<?xml version="1.0" encoding="utf-8"?>
<!-- Generator: Adobe Illustrator 21.1.0, SVG Export Plug-In . SVG Version: 6.00 Build 0)  -->
<svg version="1.1" id="Layer_1" xmlns="http://www.w3.org/2000/svg" xmlns:xlink="http://www.w3.org/1999/xlink" x="0px" y="0px"
	 viewBox="0 0 220 48" style="enable-background:new 0 0 220 48;" xml:space="preserve">
<title>airbnb</title>
<path d="M113.3,14.6c0,1.4-1.1,2.5-2.5,2.5s-2.5-1.1-2.5-2.5c0-1.4,1.1-2.5,2.5-2.5l0,0C112.2,12.2,113.3,13.3,113.3,14.6
	C113.3,14.6,113.3,14.6,113.3,14.6z M103.1,19.6v0.6c-0.9-1-2.3-1.6-3.7-1.5c-4-0.1-7.3,3.1-7.3,7.1c0,0.1,0,0.3,0,0.4
	c-0.2,4,2.9,7.3,6.9,7.5c0.1,0,0.3,0,0.4,0c1.4,0.1,2.7-0.5,3.7-1.6v0.6c0,0.3,0.2,0.5,0.5,0.5c0,0,0,0,0,0h3.1V19h-3.1
	C103.4,19,103.1,19.3,103.1,19.6L103.1,19.6z M103.1,28.3c-0.7,1-1.9,1.6-3.1,1.6c-2.2,0.2-4.1-1.4-4.3-3.6c0-0.2,0-0.3,0-0.5
	c-0.1-2.2,1.6-4,3.8-4.1c0.2,0,0.3,0,0.5,0c1.2,0,2.4,0.6,3.1,1.5V28.3L103.1,28.3z M109,19.1h3.6v14.2H109L109,19.1L109,19.1z
	 M163.3,18.7c-1.4-0.1-2.7,0.5-3.7,1.5v-8H156v21.1h3.1c0.3,0,0.5-0.2,0.5-0.5v-0.6l0,0c0.9,1,2.3,1.6,3.7,1.6
	c4,0.1,7.3-3.1,7.3-7.1c0-0.1,0-0.3,0-0.4c0.2-4-2.9-7.3-6.9-7.5C163.5,18.7,163.4,18.7,163.3,18.7L163.3,18.7z M162.6,29.8
	c-1.2,0-2.4-0.6-3.1-1.5v-5.1c0.8-0.9,1.9-1.5,3.1-1.5c2.2-0.2,4.1,1.4,4.3,3.6c0,0.2,0,0.3,0,0.5c0.1,2.2-1.6,4-3.8,4.1
	C163,29.8,162.8,29.8,162.6,29.8L162.6,29.8z M154.1,24.9v8.5h-3.6v-8.1c0-2.4-0.8-3.3-2.8-3.3c-1.1,0-2.2,0.5-2.9,1.4v9.9H141V19
	h2.9c0.3,0,0.5,0.2,0.5,0.5v0.6c1-1,2.4-1.6,3.9-1.5c1.4,0,2.9,0.4,4,1.4C153.6,21,154,22.4,154.1,24.9L154.1,24.9z M132.2,18.7
	c-1.4-0.1-2.7,0.5-3.7,1.5v-8h-3.6v21.1h3.1c0.3,0,0.5-0.2,0.5-0.5v-0.6l0,0c0.9,1,2.3,1.6,3.7,1.6c4,0.1,7.3-3.1,7.3-7.1
	c0-0.1,0-0.3,0-0.4c0.2-4-2.9-7.3-6.9-7.5C132.5,18.7,132.4,18.7,132.2,18.7L132.2,18.7z M131.6,29.8c-1.2,0-2.4-0.6-3.1-1.5v-5.1
	c0.8-0.9,1.9-1.5,3.1-1.5c2.2-0.2,4.1,1.4,4.3,3.6c0,0.2,0,0.3,0,0.5c0.1,2.2-1.6,4-3.8,4.1C131.9,29.8,131.8,29.8,131.6,29.8
	L131.6,29.8z M121.8,18.6c0.6,0,1.1,0,1.7,0.2v3.4c0,0-3-1-4.9,1.1v9.9h-3.7V19h3.1c0.3,0,0.5,0.2,0.5,0.5v0.6
	C119.4,19.3,120.6,18.7,121.8,18.6z M84.1,31.5c-0.2-0.5-0.4-0.9-0.6-1.4c-0.3-0.7-0.6-1.3-0.9-1.9l0,0c-2.6-5.7-5.4-11.4-8.4-17.1
	l-0.1-0.2c-0.3-0.6-0.6-1.2-0.9-1.8c-0.4-0.7-0.8-1.4-1.4-2.1c-1.2-1.5-2.9-2.3-4.8-2.4c-1.9,0-3.6,0.8-4.8,2.3
	c-0.5,0.6-1,1.3-1.4,2.1c-0.3,0.6-0.6,1.2-0.9,1.8l-0.1,0.2c-3,5.6-5.8,11.4-8.4,17.1v0.1c-0.3,0.6-0.6,1.2-0.9,1.9
	c-0.2,0.4-0.4,0.9-0.6,1.4c-0.5,1.3-0.6,2.7-0.5,4.1c0.4,2.8,2.3,5.2,4.9,6.3c1,0.4,2,0.6,3.1,0.6c0.3,0,0.7,0,1-0.1
	c1.3-0.2,2.6-0.6,3.8-1.3c1.8-1.1,3.3-2.4,4.7-3.9c1.4,1.5,2.9,2.9,4.7,3.9c1.1,0.6,2.4,1.1,3.6,1.2c0.3,0,0.7,0.1,1,0.1
	c1.1,0,2.1-0.2,3.1-0.6c2.6-1.1,4.5-3.5,4.9-6.3C84.7,34.2,84.6,32.8,84.1,31.5L84.1,31.5z M67,33.5c-1.8-2-3.1-4.4-3.8-7
	c-0.2-0.8-0.2-1.5-0.1-2.3c0.1-0.6,0.3-1.1,0.6-1.6c0.8-1.1,2-1.7,3.3-1.7c1.3-0.1,2.6,0.6,3.3,1.7c0.3,0.5,0.5,1,0.6,1.6
	c0.1,0.8,0.1,1.6-0.1,2.3C70,29.1,68.7,31.5,67,33.5L67,33.5z M82.1,35.3c-0.3,2-1.6,3.7-3.4,4.4c-0.9,0.4-1.9,0.5-2.9,0.4
	c-1-0.1-2-0.5-2.9-1c-1.6-1-3.1-2.2-4.3-3.7c2.1-2.4,3.7-5.3,4.6-8.4c0.2-1,0.3-2.1,0.2-3.1c-0.1-0.9-0.5-1.8-1-2.6
	c-1.2-1.7-3.2-2.7-5.3-2.7c-2.1,0-4.1,1-5.3,2.7c-0.5,0.8-0.9,1.7-1,2.6c-0.2,1.1-0.1,2.2,0.2,3.2c0.9,3.1,2.5,6,4.6,8.4
	c-1.2,1.5-2.7,2.7-4.3,3.7c-0.9,0.5-1.9,0.9-2.9,1c-1,0.1-2,0-2.9-0.4c-1.9-0.8-3.2-2.4-3.4-4.4c-0.1-1,0-2,0.3-2.9
	c0.1-0.4,0.3-0.8,0.5-1.2c0.2-0.5,0.6-1.2,0.9-1.9v-0.1c2.6-5.6,5.4-11.3,8.3-17L62,12c0.3-0.6,0.6-1.2,0.9-1.7
	c0.3-0.6,0.6-1.1,1-1.7c1.4-1.7,3.9-1.9,5.6-0.5c0.2,0.1,0.3,0.3,0.5,0.5c0.4,0.5,0.8,1.1,1,1.7c0.3,0.6,0.6,1.2,0.9,1.7l0.1,0.2
	c2.9,5.6,5.7,11.3,8.2,17l0,0c0.3,0.6,0.6,1.3,0.9,1.9c0.3,0.6,0.4,0.8,0.5,1.2C82,33.3,82.2,34.3,82.1,35.3z"/>
</svg>
