<?xml version="1.0" encoding="utf-8"?>
<!-- Generator: Adobe Illustrator 21.1.0, SVG Export Plug-In . SVG Version: 6.00 Build 0)  -->
<svg version="1.1" id="Layer_1" xmlns="http://www.w3.org/2000/svg" xmlns:xlink="http://www.w3.org/1999/xlink" x="0px" y="0px"
	 viewBox="0 0 220 36.7" style="enable-background:new 0 0 220 36.7;" xml:space="preserve">
<title>airbnb</title>
<path d="M113.2,9.7c0,1.3-1.1,2.4-2.4,2.4s-2.4-1.1-2.4-2.4c0-1.3,1.1-2.4,2.4-2.4l0,0C112.1,7.3,113.2,8.3,113.2,9.7
	C113.2,9.7,113.2,9.7,113.2,9.7z M103.3,14.5v0.6c-0.9-1-2.2-1.5-3.6-1.5c-3.9-0.1-7.1,3-7.1,6.9c0,0.1,0,0.3,0,0.4
	c-0.1,3.9,2.9,7.1,6.7,7.3c0.1,0,0.3,0,0.4,0c1.4,0.1,2.7-0.5,3.6-1.5v0.6c0,0.3,0.2,0.5,0.5,0.5c0,0,0,0,0,0h3V13.9h-3
	C103.6,13.9,103.3,14.2,103.3,14.5L103.3,14.5z M103.3,22.9c-0.7,1-1.8,1.5-3,1.5c-2.1,0.2-4-1.4-4.1-3.5c0-0.2,0-0.3,0-0.5
	c-0.1-2.1,1.5-3.9,3.7-4c0.2,0,0.3,0,0.5,0c1.2,0,2.3,0.6,3,1.5V22.9L103.3,22.9z M109,14h3.5v13.8H109L109,14L109,14z M161.7,13.6
	c-1.3-0.1-2.6,0.5-3.6,1.5V7.3h-3.5v20.5h3c0.3,0,0.5-0.2,0.5-0.5v-0.6l0,0c0.9,1,2.2,1.6,3.6,1.5c3.9,0.1,7.1-3,7.1-6.9
	c0-0.1,0-0.3,0-0.4c0.1-3.9-2.9-7.1-6.7-7.3C161.9,13.6,161.8,13.6,161.7,13.6L161.7,13.6z M161.1,24.4c-1.2,0-2.3-0.5-3-1.5v-5
	c0.7-0.9,1.8-1.5,3-1.5c2.1-0.2,4,1.4,4.1,3.5c0,0.2,0,0.3,0,0.5c0.1,2.1-1.5,3.9-3.7,4C161.4,24.4,161.2,24.4,161.1,24.4
	L161.1,24.4z M152.7,19.6v8.2h-3.5V20c0-2.3-0.7-3.2-2.7-3.2c-1.1,0-2.1,0.5-2.9,1.4v9.6h-3.5V13.9h2.8c0.3,0,0.5,0.2,0.5,0.5V15
	c1-1,2.3-1.5,3.7-1.5c1.4,0,2.8,0.4,3.9,1.3C152.3,15.9,152.7,17.2,152.7,19.6L152.7,19.6z M131.6,13.6c-1.3-0.1-2.6,0.5-3.6,1.5
	V7.3h-3.5v20.5h3c0.3,0,0.5-0.2,0.5-0.5v-0.6l0,0c0.9,1,2.2,1.6,3.6,1.5c3.9,0.1,7.1-3,7.1-6.9c0-0.1,0-0.3,0-0.4
	c0.1-3.9-2.9-7.1-6.7-7.3C131.8,13.6,131.7,13.6,131.6,13.6L131.6,13.6z M131,24.4c-1.2,0-2.3-0.5-3-1.5v-5c0.7-0.9,1.8-1.5,3-1.5
	c2.1-0.2,4,1.4,4.1,3.5c0,0.2,0,0.3,0,0.5c0.1,2.1-1.5,3.9-3.7,4C131.3,24.4,131.1,24.4,131,24.4L131,24.4z M121.5,13.6
	c0.5,0,1.1,0,1.6,0.2V17c0,0-2.9-1-4.8,1.1v9.6h-3.6V13.9h3c0.3,0,0.5,0.2,0.5,0.5V15C119.1,14.2,120.2,13.6,121.5,13.6z M84.8,26.1
	c-0.2-0.4-0.4-0.9-0.6-1.3c-0.3-0.7-0.6-1.3-0.8-1.9l0,0c-2.5-5.5-5.3-11.1-8.1-16.6l-0.1-0.2c-0.3-0.6-0.6-1.1-0.9-1.7
	C74,3.6,73.5,3,73,2.3c-1.1-1.4-2.8-2.3-4.7-2.3c-1.8,0-3.5,0.8-4.7,2.2c-0.5,0.6-0.9,1.3-1.3,2c-0.3,0.6-0.6,1.2-0.9,1.7l-0.1,0.2
	c-2.9,5.5-5.6,11.1-8.2,16.6v0.1c-0.3,0.6-0.5,1.2-0.8,1.9c-0.2,0.4-0.4,0.8-0.5,1.3c-0.5,1.3-0.6,2.7-0.4,4c0.4,2.7,2.2,5,4.8,6.1
	c0.9,0.4,2,0.6,3,0.6c0.3,0,0.7,0,1-0.1c1.3-0.2,2.5-0.6,3.7-1.3c1.7-1,3.2-2.3,4.5-3.8c1.3,1.5,2.8,2.8,4.6,3.8
	c1.1,0.6,2.3,1,3.5,1.2c0.3,0,0.7,0.1,1,0.1c1,0,2.1-0.2,3-0.6c2.6-1,4.4-3.4,4.8-6.1C85.5,28.7,85.4,27.3,84.8,26.1L84.8,26.1z
	 M68.3,28c-1.7-2-3-4.3-3.7-6.8c-0.2-0.7-0.2-1.5-0.1-2.2c0.1-0.6,0.3-1.1,0.6-1.5c0.7-1,2-1.6,3.2-1.6c1.3,0,2.5,0.6,3.2,1.6
	c0.3,0.5,0.5,1,0.6,1.5c0.1,0.7,0.1,1.5-0.1,2.2C71.2,23.7,70,26,68.3,28L68.3,28z M82.9,29.7c-0.3,1.9-1.5,3.6-3.3,4.3
	c-0.9,0.4-1.8,0.5-2.8,0.4c-1-0.1-1.9-0.5-2.8-1c-1.6-1-3-2.2-4.2-3.6c2.1-2.3,3.6-5.1,4.4-8.1c0.2-1,0.3-2,0.2-3
	c-0.1-0.9-0.5-1.8-1-2.5c-1.2-1.7-3.1-2.7-5.2-2.6c-2,0-4,0.9-5.2,2.6c-0.5,0.7-0.9,1.6-1,2.5c-0.2,1-0.1,2.1,0.2,3.1
	c0.9,3,2.4,5.8,4.4,8.1c-1.2,1.4-2.6,2.6-4.2,3.6c-0.9,0.5-1.8,0.9-2.8,1c-0.9,0.1-1.9,0-2.8-0.4c-1.8-0.7-3.1-2.4-3.3-4.3
	c-0.1-1,0-1.9,0.3-2.9c0.1-0.4,0.3-0.7,0.5-1.2c0.2-0.4,0.6-1.2,0.8-1.8v-0.1c2.5-5.5,5.3-11,8.1-16.5l0.1-0.2
	c0.3-0.6,0.6-1.1,0.9-1.7c0.3-0.6,0.6-1.1,1-1.6c1.4-1.6,3.8-1.8,5.4-0.4c0.2,0.1,0.3,0.3,0.4,0.4c0.4,0.5,0.7,1,1,1.6
	c0.3,0.6,0.6,1.1,0.9,1.7l0.1,0.2c2.8,5.5,5.5,11,8,16.5l0,0c0.3,0.6,0.5,1.3,0.8,1.8s0.4,0.8,0.5,1.2C82.9,27.8,83,28.7,82.9,29.7z
	"/>
</svg>
