<?xml version="1.0" encoding="utf-8"?>
<!-- Generator: Adobe Illustrator 21.1.0, SVG Export Plug-In . SVG Version: 6.00 Build 0)  -->
<svg version="1.1" id="Layer_1" xmlns="http://www.w3.org/2000/svg" xmlns:xlink="http://www.w3.org/1999/xlink" x="0px" y="0px"
	 viewBox="0 0 220 48" style="enable-background:new 0 0 220 48;" xml:space="preserve">
<title>amazon</title>
<path d="M91.4,39.9C84.2,45.2,73.8,48,64.9,48c-12,0-23.5-4.4-32.4-12.4c-0.7-0.6-0.1-1.4,0.7-1c9.9,5.7,21.1,8.6,32.5,8.6
	c8.5,0,16.9-1.8,24.8-5.1C91.6,37.7,92.6,39,91.4,39.9z"/>
<path d="M94.4,36.5c-0.9-1.2-6.1-0.6-8.4-0.3c-0.7,0.1-0.8-0.5-0.2-1c4.1-2.9,10.8-2.1,11.6-1.1c0.8,1-0.2,7.7-4.1,10.9
	c-0.6,0.5-1.2,0.2-0.9-0.4C93.4,42.5,95.3,37.6,94.4,36.5z"/>
<path d="M86.2,14.8V12c0-0.4,0.3-0.7,0.7-0.7c0,0,0,0,0,0h12.6c0.4,0,0.7,0.3,0.7,0.7c0,0,0,0,0,0v2.4c-0.2,0.7-0.5,1.3-1,1.8
	l-6.5,9.3c2.5-0.1,5,0.4,7.2,1.5c0.4,0.2,0.7,0.6,0.7,1.1v3c0,0.4-0.5,0.9-0.9,0.6c-4.2-2.2-9.1-2.2-13.3,0
	c-0.4,0.2-0.9-0.2-0.9-0.6v-2.8c0-0.7,0.1-1.3,0.4-1.9l7.6-10.8h-6.6c-0.4,0-0.7-0.3-0.7-0.7C86.2,14.9,86.2,14.9,86.2,14.8z"/>
<path d="M40.3,32.3h-3.8c-0.4,0-0.6-0.3-0.7-0.6V12.1c0-0.4,0.3-0.7,0.7-0.7h3.6c0.4,0,0.7,0.3,0.7,0.7v2.5h0.1
	c0.6-2.2,2.7-3.7,5-3.6c2.4,0.1,3.9,1.2,5,3.6c1.1-2.9,4.4-4.4,7.3-3.3c1,0.4,1.8,1,2.4,1.8c1.2,1.7,1,4,1,6.2v12.4
	c0,0.4-0.3,0.7-0.7,0.7H57c-0.4,0-0.7-0.3-0.7-0.7V21.2c0.1-1.2,0-2.5-0.1-3.7c-0.2-1.1-1.2-1.8-2.2-1.7c-1,0-1.9,0.7-2.3,1.6
	c-0.3,1.2-0.4,2.5-0.4,3.8v10.4c0,0.4-0.3,0.7-0.7,0.7h-3.8c-0.4,0-0.7-0.3-0.7-0.7V21.2c0-2.2,0.4-5.4-2.4-5.4
	C41,15.8,41,19,41,21.2v10.4C41,32,40.7,32.4,40.3,32.3C40.3,32.3,40.3,32.3,40.3,32.3z"/>
<path d="M111,10.9c5.7,0,8.7,4.9,8.7,11.1c0,6-3.4,10.8-8.7,10.8c-5.6,0-8.6-4.9-8.6-10.9S105.5,10.9,111,10.9z M111,15
	c-2.8,0-3,3.8-3,6.2s0,7.6,3,7.6c3,0,3.1-4.2,3.1-6.7c0.1-1.8-0.1-3.5-0.6-5.2C113.3,15.7,112.2,14.9,111,15L111,15z"/>
<path d="M127.1,32.3h-3.8c-0.4,0-0.7-0.3-0.7-0.7V12c0-0.4,0.4-0.6,0.7-0.6h3.6c0.3,0,0.6,0.2,0.7,0.6v3h0.1c1.1-2.7,2.6-4,5.2-4
	c1.8-0.1,3.5,0.8,4.5,2.3c1,1.6,1,4.2,1,6.1v12.4c-0.1,0.4-0.4,0.6-0.7,0.6h-3.8c-0.3,0-0.6-0.3-0.7-0.6V21.1c0-2.2,0.2-5.3-2.4-5.3
	c-1,0-1.8,0.7-2.2,1.6c-0.5,1.2-0.7,2.4-0.6,3.7v10.6C127.9,32,127.5,32.4,127.1,32.3C127.1,32.3,127.1,32.3,127.1,32.3z"/>
<ellipse cx="142.6" cy="30.8" rx="1.9" ry="1.8"/>
<path d="M181.3,32.3c-0.4,0-0.7-0.3-0.7-0.7V12c0-0.4,0.3-0.6,0.7-0.6h1.4c0.4,0,0.7,0.3,0.7,0.6v2.9c1-2.3,2.9-4,5.2-4h0.3
	c2.5,0,4.3,1.8,5,4.5c1.1-2.6,3-4.5,5.7-4.5h0.4c2,0.1,3.7,1.2,4.6,3c0.9,1.7,0.9,4,0.9,6v11.8c0,0.4-0.3,0.7-0.7,0.7h-1.7
	c-0.3,0-0.6-0.3-0.7-0.6V19.9c0.1-1.4,0-2.8-0.5-4.2c-0.5-1.2-1.6-2.1-2.9-2.2c-1.4,0.2-2.7,1.1-3.4,2.4c-1.1,1.7-1,3.2-1,5.2v10.7
	c-0.1,0.3-0.3,0.6-0.7,0.6h-1.7c-0.4,0-0.7-0.3-0.7-0.7V19c0.1-1.2-0.1-2.4-0.6-3.6c-0.5-1.1-1.6-1.9-2.9-2c-1.3,0.2-2.4,1-3.1,2.1
	c-0.8,1.5-1.2,3.1-1.1,4.8v11.3c0,0.4-0.3,0.7-0.7,0.7H181.3z"/>
<path d="M169.7,32.8c-5.4,0-7.9-5.5-7.9-11.1c0-5.8,2.9-10.9,8.3-10.9h0.3c5.3,0,8,5.4,8,10.9c0,5.9-2.9,11-8.4,11H169.7L169.7,32.8
	z M170.1,30.1c1.8-0.1,3.4-1.3,4-3c0.7-1.7,1-3.6,0.9-5.4c0.1-2-0.3-4-1.1-5.7c-0.9-2.1-3.3-3-5.4-2.1c-1.1,0.5-2,1.5-2.3,2.6
	c-0.6,1.7-0.9,3.5-0.9,5.2c0,2,0.3,3.9,1.1,5.7C167,28.9,168.5,29.9,170.1,30.1z"/>
<path d="M152.8,30c2.4-0.1,3.7-2,4.2-4.6c0.1-0.3,0.4-0.6,0.7-0.6h1.6c0.4,0,0.7,0.3,0.7,0.7c-0.7,4.3-3.3,7.2-7.1,7.2h-0.3
	c-5.4,0-7.7-5.4-7.7-10.9s2.4-11,7.8-11h0.3c3.7,0,6.4,2.9,7,7.2c0,0.3-0.3,0.6-0.6,0.6h-1.7c-0.3-0.1-0.6-0.3-0.6-0.7
	c-0.4-2.4-1.8-4.3-4.1-4.4c-3.7,0.1-4.7,4.6-4.7,8.1S149.1,29.9,152.8,30z"/>
<path d="M83,28.7c-0.9-1-1.4-2.2-1.4-3.5v-6c0-2.5,0.2-4.8-1.7-6.6c-1.6-1.3-3.7-2-5.8-1.9c-3.6,0-7.7,1.4-8.6,5.9c0,0,0,0,0,0.1
	c0,0.4,0.2,0.7,0.6,0.7l3.7,0.4c0.4-0.1,0.6-0.3,0.7-0.7c0.3-1.4,1.6-2.4,3.1-2.3c0.8,0,1.6,0.3,2.2,1c0.4,0.9,0.6,1.8,0.5,2.8v0.5
	c-2.2,0.2-5.1,0.4-7.2,1.3c-2.5,1-4.2,3.5-4.1,6.3c0,4,2.5,6,5.7,6c2.4,0.1,4.8-0.9,6.3-2.8c0.6,1,1.3,1.8,2.2,2.5
	c0.3,0.2,0.7,0.1,0.9-0.1h0c0.8-0.7,2.2-1.9,2.9-2.5C83.3,29.5,83.3,29,83,28.7z M75.4,27c-0.5,1-1.5,1.7-2.6,1.7
	c-1.5,0-2.3-1.1-2.3-2.8c0-3.2,2.9-3.9,5.7-3.9l0,0.8C76.3,24.4,76.1,25.8,75.4,27z"/>
<path d="M32.8,28.7c-0.9-1-1.4-2.2-1.4-3.5v-6c0-2.5,0.2-4.8-1.7-6.6c-1.6-1.3-3.7-2-5.8-1.9c-3.6,0-7.7,1.4-8.5,5.9c0,0,0,0,0,0.1
	c0,0.4,0.2,0.7,0.6,0.7l3.7,0.4c0.4-0.1,0.6-0.3,0.7-0.7c0.3-1.4,1.6-2.4,3.1-2.3c0.8,0,1.6,0.3,2.2,1c0.4,0.9,0.6,1.8,0.5,2.8v0.5
	c-2.2,0.2-5.1,0.4-7.2,1.3c-2.5,1-4.2,3.5-4.1,6.3c0,4,2.5,6,5.7,6c2.4,0.1,4.8-0.9,6.3-2.8c0.6,1,1.3,1.8,2.2,2.5
	c0.3,0.2,0.7,0.1,0.9-0.1c0.8-0.7,2.2-1.9,2.9-2.5C33.1,29.5,33.1,29,32.8,28.7z M25.3,27c-0.5,1-1.5,1.7-2.6,1.7
	c-1.5,0-2.3-1.1-2.3-2.8c0-3.2,2.9-3.9,5.7-3.9l0,0.8C26.1,24.4,25.9,25.8,25.3,27z"/>
</svg>
