<?xml version="1.0" encoding="utf-8"?>
<!-- Generator: Adobe Illustrator 21.1.0, SVG Export Plug-In . SVG Version: 6.00 Build 0)  -->
<svg version="1.1" id="Layer_1" xmlns="http://www.w3.org/2000/svg" xmlns:xlink="http://www.w3.org/1999/xlink" x="0px" y="0px"
	 viewBox="0 0 220 34.5" style="enable-background:new 0 0 220 34.5;" xml:space="preserve">
<title>amazon</title>
<path d="M92.8,27c-6.7,4.9-16.3,7.5-24.6,7.5c-11.1,0-21.8-4-30-11.5c-0.6-0.6-0.1-1.3,0.7-0.9c9.2,5.2,19.5,8,30.1,8
	c7.9,0,15.7-1.6,22.9-4.7C92.9,25,93.9,26.2,92.8,27z"/>
<path d="M95.6,23.8c-0.8-1.1-5.6-0.5-7.8-0.3c-0.7,0.1-0.8-0.5-0.2-0.9c3.8-2.7,10-1.9,10.8-1s-0.2,7.2-3.8,10.1
	c-0.6,0.5-1.1,0.2-0.8-0.4C94.6,29.4,96.4,24.9,95.6,23.8z"/>
<path d="M87.9,3.8V1.2c0-0.4,0.3-0.6,0.6-0.7c0,0,0,0,0,0h11.7c0.4,0,0.7,0.3,0.7,0.6c0,0,0,0,0,0v2.2C100.8,4,100.5,4.6,100,5
	l-6,8.6c2.3-0.1,4.6,0.4,6.6,1.4c0.4,0.2,0.6,0.6,0.6,1v2.8c0,0.4-0.4,0.8-0.9,0.6c-3.9-2-8.4-2-12.3,0c-0.4,0.2-0.8-0.2-0.8-0.6
	v-2.6c0-0.6,0.1-1.2,0.4-1.7l7-10h-6.1c-0.4,0-0.7-0.3-0.7-0.6C87.9,3.8,87.9,3.8,87.9,3.8z"/>
<path d="M45.5,20h-3.6c-0.3,0-0.6-0.3-0.6-0.6V1.2c0-0.4,0.3-0.7,0.7-0.6h3.3c0.3,0,0.6,0.3,0.6,0.6v2.3H46c0.6-2.1,2.5-3.4,4.7-3.4
	c2.2,0.1,3.6,1.1,4.6,3.4c1-2.7,4-4.1,6.7-3c0.9,0.3,1.7,0.9,2.3,1.7c1.1,1.5,0.9,3.7,0.9,5.7v11.5c0,0.4-0.3,0.7-0.7,0.6h-3.6
	c-0.4,0-0.6-0.3-0.6-0.6V9.7c0.1-1.1,0-2.3-0.1-3.4c-0.1-1-1.1-1.7-2.1-1.6c-0.9,0-1.8,0.6-2.1,1.5c-0.3,1.1-0.4,2.3-0.3,3.5v9.6
	c0,0.4-0.3,0.7-0.7,0.6h-3.5c-0.4,0-0.6-0.3-0.6-0.6V9.7c0-2,0.3-5-2.2-5c-2.5,0-2.5,2.9-2.5,5v9.6C46.1,19.7,45.8,20,45.5,20
	C45.5,20,45.5,20,45.5,20z"/>
<path d="M110.9,0.2c5.3,0,8.1,4.5,8.1,10.3c0,5.6-3.1,10-8.1,10c-5.2,0-8-4.5-8-10.1S105.8,0.2,110.9,0.2z M110.9,3.9
	c-2.6,0-2.8,3.6-2.8,5.8s0,7,2.8,7s2.9-3.9,2.9-6.2c0.1-1.6-0.1-3.3-0.6-4.9C113,4.6,112.1,3.8,110.9,3.9L110.9,3.9z"/>
<path d="M125.9,20h-3.5c-0.4,0-0.6-0.3-0.6-0.6V1.1c0-0.3,0.3-0.6,0.7-0.6h3.3c0.3,0,0.6,0.2,0.6,0.5v2.8h0.1c1-2.5,2.4-3.7,4.8-3.7
	c1.7-0.1,3.2,0.7,4.1,2.1c0.9,1.4,0.9,3.9,0.9,5.7v11.5c-0.1,0.3-0.3,0.6-0.7,0.6H132c-0.3,0-0.6-0.3-0.6-0.6V9.5
	c0-2,0.2-4.9-2.2-4.9c-0.9,0-1.7,0.6-2.1,1.5c-0.4,1.1-0.6,2.3-0.6,3.4v9.8C126.6,19.7,126.3,20,125.9,20
	C125.9,20,125.9,20,125.9,20z"/>
<ellipse cx="140.2" cy="18.6" rx="1.7" ry="1.7"/>
<path d="M176,20c-0.4,0-0.6-0.3-0.7-0.6V1.2c0-0.3,0.3-0.6,0.6-0.6h1.3c0.3,0,0.6,0.3,0.7,0.6v2.6c0.9-2.1,2.6-3.8,4.8-3.8h0.3
	c2.3,0,4,1.7,4.6,4.2c1-2.4,2.8-4.2,5.3-4.2h0.3c1.8,0.1,3.4,1.1,4.2,2.8c0.8,1.6,0.8,3.7,0.8,5.6v11c0,0.4-0.3,0.6-0.6,0.6h-1.6
	c-0.3,0-0.6-0.2-0.6-0.6v-11c0.1-1.3,0-2.6-0.5-3.9c-0.4-1.2-1.5-2-2.7-2.1c-1.3,0.2-2.5,1-3.1,2.2c-1,1.6-0.9,3-0.9,4.8v9.9
	c-0.1,0.3-0.3,0.5-0.6,0.6H186c-0.4,0-0.6-0.3-0.7-0.6V7.7c0.1-1.1-0.1-2.3-0.6-3.3c-0.5-1.1-1.5-1.8-2.7-1.9
	c-1.2,0.2-2.2,0.9-2.9,1.9c-0.8,1.3-1.1,2.9-1,4.4v10.5c0,0.4-0.3,0.6-0.6,0.6H176z"/>
<path d="M165.3,20.4c-5,0-7.3-5.1-7.3-10.3c0-5.4,2.6-10.1,7.7-10.1h0.3c4.9,0,7.4,5,7.4,10.1c0,5.4-2.7,10.2-7.8,10.2H165.3
	L165.3,20.4z M165.7,17.9c1.7-0.1,3.2-1.2,3.7-2.8c0.6-1.6,0.9-3.3,0.8-5c0.1-1.8-0.3-3.7-1.1-5.3c-0.8-1.9-3.1-2.8-5-2
	c-1,0.5-1.8,1.3-2.1,2.4c-0.6,1.6-0.9,3.2-0.8,4.9c0,1.8,0.3,3.6,1,5.3C162.8,16.8,164.2,17.8,165.7,17.9z"/>
<path d="M149.6,17.8c2.3-0.1,3.4-1.9,3.9-4.2c0.1-0.3,0.3-0.5,0.6-0.5h1.5c0.3,0,0.6,0.3,0.6,0.6c-0.7,4-3.1,6.7-6.5,6.7h-0.3
	c-5,0-7.1-5-7.1-10.1s2.2-10.2,7.2-10.2h0.3c3.5,0,5.9,2.7,6.5,6.7c0,0.3-0.3,0.6-0.6,0.6h-1.6c-0.3-0.1-0.6-0.3-0.6-0.6
	c-0.4-2.2-1.7-4-3.8-4.1c-3.4,0.1-4.4,4.3-4.4,7.5S146.3,17.7,149.6,17.8z"/>
<path d="M85,16.7c-0.8-0.9-1.3-2.1-1.3-3.3V7.9c0-2.3,0.2-4.5-1.6-6.1c-1.5-1.2-3.4-1.8-5.3-1.8c-3.4,0-7.1,1.3-7.9,5.4c0,0,0,0,0,0
	c0,0.3,0.2,0.6,0.5,0.7l3.4,0.4c0.3-0.1,0.6-0.3,0.6-0.6c0.3-1.3,1.5-2.2,2.8-2.1c0.8,0,1.5,0.3,2,0.9c0.4,0.8,0.6,1.7,0.5,2.6v0.5
	c-2,0.2-4.7,0.4-6.7,1.2c-2.4,0.9-3.9,3.3-3.8,5.8c0,3.7,2.3,5.5,5.3,5.5c2.2,0.1,4.4-0.8,5.8-2.6c0.5,0.9,1.2,1.7,2,2.4
	c0.3,0.2,0.6,0.1,0.8-0.1h0c0.7-0.6,2-1.7,2.7-2.4C85.2,17.3,85.2,16.9,85,16.7z M78,15.1c-0.5,0.9-1.4,1.6-2.4,1.6
	c-1.4,0-2.2-1-2.2-2.6c0-3,2.7-3.6,5.3-3.6l0,0.8C78.8,12.6,78.6,13.9,78,15.1z"/>
<path d="M38.5,16.7c-0.8-0.9-1.3-2.1-1.3-3.3V7.9c0-2.3,0.2-4.5-1.6-6.1c-1.5-1.2-3.4-1.8-5.3-1.8c-3.3,0-7.1,1.3-7.9,5.4
	c0,0,0,0,0,0c0,0.3,0.2,0.6,0.5,0.7l3.4,0.4c0.3-0.1,0.6-0.3,0.6-0.6c0.3-1.3,1.5-2.2,2.8-2.1c0.8,0,1.5,0.3,2,0.9
	c0.4,0.8,0.5,1.7,0.4,2.6v0.5c-2,0.2-4.7,0.4-6.7,1.2c-2.4,0.9-3.9,3.3-3.8,5.8c0,3.7,2.3,5.5,5.3,5.5c2.2,0.1,4.4-0.8,5.8-2.6
	c0.5,0.9,1.2,1.7,2,2.4c0.3,0.2,0.6,0.1,0.8-0.1c0.7-0.6,2-1.7,2.7-2.4C38.8,17.3,38.8,16.9,38.5,16.7z M31.5,15.1
	c-0.5,0.9-1.4,1.6-2.5,1.6c-1.4,0-2.2-1-2.2-2.6c0-3,2.7-3.6,5.3-3.6l0,0.8C32.3,12.6,32.1,13.9,31.5,15.1z"/>
</svg>
