<?xml version="1.0" encoding="UTF-8"?>
<svg width="8158px" height="30px" viewBox="0 0 8158 30" version="1.1" xmlns="http://www.w3.org/2000/svg" xmlns:xlink="http://www.w3.org/1999/xlink">
    <!-- Generator: Sketch 48.2 (47327) - http://www.bohemiancoding.com/sketch -->
    <title>Group 3</title>
    <desc>Created with Sketch.</desc>
    <defs>
        <linearGradient x1="1.40106824%" y1="51.4010682%" x2="98.5989318%" y2="51.4010682%" id="linearGradient-1">
            <stop stop-color="#FF4396" offset="0%"></stop>
            <stop stop-color="#FF292C" offset="100%"></stop>
        </linearGradient>
        <rect id="path-2" x="0" y="8.5864486" width="18.3995327" height="1.22663551" rx="0.613317757"></rect>
        <rect id="path-3" x="0" y="8.5864486" width="18.3995327" height="1.22663551" rx="0.613317757"></rect>
        <linearGradient x1="16.1132353%" y1="0%" x2="81.5587243%" y2="100%" id="linearGradient-4">
            <stop stop-color="#F0562C" offset="0%"></stop>
            <stop stop-color="#EB0487" offset="100%"></stop>
        </linearGradient>
        <linearGradient x1="10.74346%" y1="8.24944361%" x2="86.6556645%" y2="84.142442%" id="linearGradient-5">
            <stop stop-color="#FF4396" offset="0%"></stop>
            <stop stop-color="#FF292C" offset="100%"></stop>
        </linearGradient>
        <linearGradient x1="1.40106824%" y1="51.4010682%" x2="98.5989318%" y2="51.4010682%" id="linearGradient-6">
            <stop stop-color="#FF4396" offset="0%"></stop>
            <stop stop-color="#FF355D" offset="53.4991983%"></stop>
            <stop stop-color="#FF292C" offset="100%"></stop>
        </linearGradient>
        <linearGradient x1="0%" y1="26.3848833%" x2="93.8302142%" y2="89.2562228%" id="linearGradient-7">
            <stop stop-color="#FF4396" offset="0%"></stop>
            <stop stop-color="#FF292C" offset="100%"></stop>
        </linearGradient>
        <linearGradient x1="-9.67369661%" y1="15.340855%" x2="100%" y2="77.3768936%" id="linearGradient-8">
            <stop stop-color="#FF4396" offset="0%"></stop>
            <stop stop-color="#FF292C" offset="100%"></stop>
        </linearGradient>
        <linearGradient x1="3.50598726%" y1="94.3462675%" x2="98.509915%" y2="-4.60361858%" id="linearGradient-9">
            <stop stop-color="#FF4396" offset="0%"></stop>
            <stop stop-color="#FF292C" offset="100%"></stop>
        </linearGradient>
        <path d="M4980.03876,4.21446291 L4978.83333,1 L4977.16667,1 L4975.96124,4.21446291 C4975.50072,4.35263475 4975.05992,4.53640782 4974.64408,4.76053762 L4971.51819,3.33967654 L4970.33968,4.51818784 L4971.76054,7.64408222 C4971.53641,8.05991881 4971.35263,8.5007206 4971.21446,8.96124307 L4968,10.1666667 L4968,11.8333333 L4971.21446,13.0387569 C4971.35263,13.4992794 4971.53641,13.9400812 4971.76054,14.3559178 L4970.33968,17.4818122 L4971.51819,18.6603235 L4974.64408,17.2394624 C4975.05992,17.4635922 4975.50072,17.6473652 4975.96124,17.7855371 L4977.16667,21 L4978.83333,21 L4980.03876,17.7855371 C4980.49928,17.6473652 4980.94008,17.4635922 4981.35592,17.2394624 L4984.48181,18.6603235 L4985.66032,17.4818122 L4984.23946,14.3559178 C4984.46359,13.9400812 4984.64737,13.4992794 4984.78554,13.0387569 L4988,11.8333333 L4988,10.1666667 L4984.78554,8.96124307 C4984.64737,8.5007206 4984.46359,8.05991881 4984.23946,7.64408222 L4985.66032,4.51818784 L4984.48181,3.33967654 L4981.35592,4.76053762 C4980.94008,4.53640782 4980.49928,4.35263475 4980.03876,4.21446291 L4980.03876,4.21446291 L4980.03876,4.21446291 Z M4978,16 C4980.76142,16 4983,13.7614237 4983,11 C4983,8.23857625 4980.76142,6 4978,6 C4975.23858,6 4973,8.23857625 4973,11 C4973,13.7614237 4975.23858,16 4978,16 L4978,16 Z" id="path-10"></path>
        <circle id="path-11" cx="33" cy="9" r="8"></circle>
        <filter x="-9.4%" y="-9.4%" width="118.8%" height="118.8%" filterUnits="objectBoundingBox" id="filter-12">
            <feOffset dx="0" dy="0" in="SourceAlpha" result="shadowOffsetOuter1"></feOffset>
            <feGaussianBlur stdDeviation="0.5" in="shadowOffsetOuter1" result="shadowBlurOuter1"></feGaussianBlur>
            <feColorMatrix values="0 0 0 0 0   0 0 0 0 0   0 0 0 0 0  0 0 0 0.794638813 0" type="matrix" in="shadowBlurOuter1"></feColorMatrix>
        </filter>
        <circle id="path-13" cx="33" cy="9" r="8"></circle>
        <filter x="-9.4%" y="-9.4%" width="118.8%" height="118.8%" filterUnits="objectBoundingBox" id="filter-14">
            <feOffset dx="0" dy="0" in="SourceAlpha" result="shadowOffsetOuter1"></feOffset>
            <feGaussianBlur stdDeviation="0.5" in="shadowOffsetOuter1" result="shadowBlurOuter1"></feGaussianBlur>
            <feColorMatrix values="0 0 0 0 0   0 0 0 0 0   0 0 0 0 0  0 0 0 0.794638813 0" type="matrix" in="shadowBlurOuter1"></feColorMatrix>
        </filter>
        <circle id="path-15" cx="33" cy="9" r="8"></circle>
        <filter x="-9.4%" y="-9.4%" width="118.8%" height="118.8%" filterUnits="objectBoundingBox" id="filter-16">
            <feOffset dx="0" dy="0" in="SourceAlpha" result="shadowOffsetOuter1"></feOffset>
            <feGaussianBlur stdDeviation="0.5" in="shadowOffsetOuter1" result="shadowBlurOuter1"></feGaussianBlur>
            <feColorMatrix values="0 0 0 0 0   0 0 0 0 0   0 0 0 0 0  0 0 0 0.794638813 0" type="matrix" in="shadowBlurOuter1"></feColorMatrix>
        </filter>
        <circle id="path-17" cx="9" cy="9" r="8"></circle>
        <filter x="-9.4%" y="-9.4%" width="118.8%" height="118.8%" filterUnits="objectBoundingBox" id="filter-18">
            <feOffset dx="0" dy="0" in="SourceAlpha" result="shadowOffsetOuter1"></feOffset>
            <feGaussianBlur stdDeviation="0.5" in="shadowOffsetOuter1" result="shadowBlurOuter1"></feGaussianBlur>
            <feColorMatrix values="0 0 0 0 0   0 0 0 0 0   0 0 0 0 0  0 0 0 0.794638813 0" type="matrix" in="shadowBlurOuter1"></feColorMatrix>
        </filter>
        <linearGradient x1="0%" y1="0%" x2="111.56719%" y2="100%" id="linearGradient-19">
            <stop stop-color="#FF4396" offset="0%"></stop>
            <stop stop-color="#FF292C" offset="100%"></stop>
        </linearGradient>
        <linearGradient x1="0%" y1="-54.0559973%" x2="100%" y2="100%" id="linearGradient-20">
            <stop stop-color="#FF4396" offset="0%"></stop>
            <stop stop-color="#FF292C" offset="100%"></stop>
        </linearGradient>
    </defs>
    <g id="icon/text/pink" stroke="none" stroke-width="1" fill="none" fill-rule="evenodd" transform="translate(0.000000, 1.000000)">
        <g id="Group-3" transform="translate(0.000000, -1.000000)">
            <text id="T" fill="#9B9B9B" font-family="TrajanPro-Regular, Trajan Pro" font-size="20" font-weight="normal">
                <tspan x="0" y="16">T</tspan>
            </text>
            <circle id="Oval-3" stroke="#979797" stroke-width="1.2" cx="123.5" cy="10.5" r="9.5"></circle>
            <path d="M241.576408,17.7382643 C240.887441,15.5952243 240.168942,14.1825602 239.42091,13.5002722 C238.621066,12.7707252 236.732133,12.0277947 233.754112,11.2714806 L233.754106,11.2715033 C233.218802,11.1355545 232.89506,10.5913965 233.031009,10.0560922 C233.100798,9.78129425 233.283952,9.5490359 233.534905,9.41710003 L249.326042,1.11507414 C249.814885,0.858070084 250.419513,1.04601258 250.676517,1.53485546 C250.822435,1.81240339 250.829717,2.14232488 250.696188,2.42604096 L243.433192,17.8580385 C243.198011,18.3577382 242.602273,18.5721731 242.102573,18.3369924 C241.851787,18.2189615 241.66124,18.002136 241.576408,17.7382643 Z" id="Path-2" fill="#D8D8D8"></path>
            <g id="Searh" transform="translate(351.000000, 1.000000)" fill="#FFFFFF" fill-rule="nonzero">
                <path d="M4.96962457,5.84355791 C4.77320652,5.64713986 4.77800919,5.3238806 4.96759446,5.13429533 L4.96759446,5.13429533 C5.16289131,4.93899848 5.48323794,4.94270634 5.67685703,5.13632544 L7.68597622,7.14544463 C7.88239427,7.34186268 7.8775916,7.66512194 7.68800633,7.85470721 L7.68800633,7.85470721 C7.49270948,8.05000406 7.17236285,8.04629619 6.97874376,7.8526771 L4.96962457,5.84355791 Z M5.6099168,5.28106368 C4.42060762,6.5796337 2.38571209,6.68447826 1.06485044,5.51524056 C-0.256011222,4.34600286 -0.362655577,2.34544942 0.826653602,1.0468794 C2.01596278,-0.251690627 4.0508583,-0.35653519 5.37171996,0.812702512 C6.69258162,1.98194021 6.79922598,3.98249365 5.6099168,5.28106368 Z M5.13159048,4.85764525 C6.08303782,3.81878923 5.99772234,2.21834648 4.94103301,1.28295632 C3.88434368,0.347566156 2.25642726,0.431441806 1.30497992,1.47029783 C0.353532578,2.50915385 0.438848062,4.10959659 1.49553739,5.04498676 C2.55222672,5.98037692 4.18014313,5.89650127 5.13159048,4.85764525 Z" id="Search"></path>
            </g>
            <rect id="Rectangle-20" stroke="#979797" stroke-width="1.2" x="459.6" y="1.6" width="17.8" height="17.8" rx="1"></rect>
            <path d="M593.5,1.5 L578.92262,16.0773797" id="Line-2" stroke="#979797" stroke-width="1.2" stroke-linecap="square"></path>
            <g id="Ortalama" transform="translate(694.000000, 1.476636)">
                <rect id="Rectangle-14" fill="url(#linearGradient-1)" x="0" y="6.13317757" width="18.3995327" height="4.90654206" rx="1.25"></rect>
                <rect id="Rectangle-15" fill="#4A4A4A" x="0" y="0" width="18.3995327" height="1.22663551" rx="0.613317757"></rect>
                <rect id="Rectangle-15" fill="#4A4A4A" x="0" y="15.9462617" width="18.3995327" height="1.22663551" rx="0.613317757"></rect>
            </g>
            <g id="Ortalama2" transform="translate(822.608645, 11.238318) rotate(-270.000000) translate(-822.608645, -11.238318) translate(813.233645, 2.488318)">
                <rect id="Rectangle-14" fill="url(#linearGradient-1)" x="0" y="6.13317757" width="18.3995327" height="4.90654206" rx="1.25"></rect>
                <rect id="Rectangle-15" fill="#4A4A4A" x="0" y="0" width="18.3995327" height="1.22663551" rx="0.613317757"></rect>
                <rect id="Rectangle-15" fill="#4A4A4A" x="0" y="15.9462617" width="18.3995327" height="1.22663551" rx="0.613317757"></rect>
            </g>
            <g id="Ortalama2" transform="translate(942.044393, 10.750000) rotate(-270.000000) translate(-942.044393, -10.750000) translate(932.544393, 1.250000)">
                <rect id="Rectangle-14" fill="url(#linearGradient-1)" transform="translate(3.876109, 7.679828) rotate(-270.000000) translate(-3.876109, -7.679828) " x="-3.80371899" y="5.22655667" width="15.3596554" height="4.90654206" rx="1.25"></rect>
                <rect id="Rectangle-14" fill="#4A4A4A" transform="translate(13.447932, 11.359734) rotate(-270.000000) translate(-13.447932, -11.359734) " x="9.44801059" y="8.90646321" width="7.99984231" height="4.90654206" rx="1.25"></rect>
                <rect id="Rectangle-15" fill="#4A4A4A" x="0" y="17.1728972" width="18.3995327" height="1.22663551" rx="0.613317757"></rect>
            </g>
            <g id="Ortalama2" transform="translate(1062.390187, 10.750000) rotate(-270.000000) translate(-1062.390187, -10.750000) translate(1052.890187, 1.250000)">
                <g id="Rectangle-15">
                    <use fill="#D8D8D8" fill-rule="evenodd" xlink:href="#path-2"></use>
                    <rect stroke="#4A4A4A" stroke-width="1.25" x="0.625" y="9.2114486" width="17.1495327" height="1" rx="0.5"></rect>
                </g>
                <rect id="Rectangle-14" fill="url(#linearGradient-1)" transform="translate(3.876109, 9.199766) rotate(-270.000000) translate(-3.876109, -9.199766) " x="-5.32365765" y="6.74649533" width="18.3995327" height="4.90654206" rx="1.25"></rect>
                <rect id="Rectangle-14" fill="#4A4A4A" transform="translate(13.695813, 9.199766) rotate(-270.000000) translate(-13.695813, -9.199766) " x="9.69589222" y="6.74649533" width="7.99984231" height="4.90654206" rx="1.25"></rect>
            </g>
            <g id="Ortalama2" transform="translate(1181.656542, 10.750000) scale(-1, 1) rotate(-270.000000) translate(-1181.656542, -10.750000) translate(1172.156542, 1.250000)">
                <rect id="Rectangle-14" fill="url(#linearGradient-1)" transform="translate(3.876109, 7.679828) rotate(-270.000000) translate(-3.876109, -7.679828) " x="-3.80371899" y="5.22655667" width="15.3596554" height="4.90654206" rx="1.25"></rect>
                <rect id="Rectangle-14" fill="#4A4A4A" transform="translate(13.447932, 11.359734) rotate(-270.000000) translate(-13.447932, -11.359734) " x="9.44801059" y="8.90646321" width="7.99984231" height="4.90654206" rx="1.25"></rect>
                <rect id="Rectangle-15" fill="#4A4A4A" x="0" y="17.1728972" width="18.3995327" height="1.22663551" rx="0.613317757"></rect>
            </g>
            <g id="Ortalama2" transform="translate(1302.104816, 11.405978) scale(-1, 1) rotate(-180.000000) translate(-1302.104816, -11.405978) translate(1292.604816, 1.905978)">
                <rect id="Rectangle-14" fill="url(#linearGradient-1)" transform="translate(3.876109, 7.679828) rotate(-270.000000) translate(-3.876109, -7.679828) " x="-3.80371899" y="5.22655667" width="15.3596554" height="4.90654206" rx="1.25"></rect>
                <rect id="Rectangle-14" fill="#4A4A4A" transform="translate(13.447932, 11.359734) rotate(-270.000000) translate(-13.447932, -11.359734) " x="9.44801059" y="8.90646321" width="7.99984231" height="4.90654206" rx="1.25"></rect>
                <rect id="Rectangle-15" fill="#4A4A4A" x="0" y="17.1728972" width="18.3995327" height="1.22663551" rx="0.613317757"></rect>
            </g>
            <g id="Ortalama2" transform="translate(1422.254673, 10.750000) rotate(-360.000000) translate(-1422.254673, -10.750000) translate(1412.754673, 1.250000)">
                <g id="Rectangle-15">
                    <use fill="#D8D8D8" fill-rule="evenodd" xlink:href="#path-3"></use>
                    <rect stroke="#4A4A4A" stroke-width="1.25" x="0.625" y="9.2114486" width="17.1495327" height="1" rx="0.5"></rect>
                </g>
                <rect id="Rectangle-14" fill="url(#linearGradient-1)" transform="translate(3.876109, 9.199766) rotate(-270.000000) translate(-3.876109, -9.199766) " x="-5.32365765" y="6.74649533" width="18.3995327" height="4.90654206" rx="1.25"></rect>
                <rect id="Rectangle-14" fill="#4A4A4A" transform="translate(13.695813, 9.199766) rotate(-270.000000) translate(-13.695813, -9.199766) " x="9.69589222" y="6.74649533" width="7.99984231" height="4.90654206" rx="1.25"></rect>
            </g>
            <g id="Ortalama2" transform="translate(1541.600467, 10.750000) scale(-1, -1) rotate(-180.000000) translate(-1541.600467, -10.750000) translate(1532.100467, 1.250000)">
                <path d="M2.23219253,10.0124682 L15.0918479,10.0124682 C15.7822039,10.0124682 16.3418479,10.5721123 16.3418479,11.2624682 L16.3418479,13.6690102 C16.3418479,14.3593662 15.7822039,14.9190102 15.0918479,14.9190102 L2.23219253,14.9190102 C1.54183659,14.9190102 0.982192529,14.3593662 0.982192529,13.6690102 L0.982192529,11.2624682 C0.982192529,10.5721123 1.54183659,10.0124682 2.23219253,10.0124682 Z M9.59200561,0.440645148 L15.0918479,0.440645148 C15.7822039,0.440645148 16.3418479,1.00028921 16.3418479,1.69064515 L16.3418479,4.0971872 C16.3418479,4.78754314 15.7822039,5.3471872 15.0918479,5.3471872 L9.59200561,5.3471872 C8.90164968,5.3471872 8.34200561,4.78754314 8.34200561,4.0971872 L8.34200561,1.69064515 C8.34200561,1.00028921 8.90164968,0.440645148 9.59200561,0.440645148 Z" id="Rectangle-14" fill="url(#linearGradient-1)" transform="translate(8.662020, 7.679828) rotate(-270.000000) translate(-8.662020, -7.679828) "></path>
                <rect id="Rectangle-15" fill="#4A4A4A" x="0" y="17.1728972" width="18.3995327" height="1.22663551" rx="0.613317757"></rect>
            </g>
            <g id="Group-12" transform="translate(1652.500000, 1.250000)">
                <rect id="Rectangle-8" fill="url(#linearGradient-1)" x="0" y="0" width="15" height="15" rx="2.5"></rect>
                <path d="M3.88133471,8.78014398 L5.93894522,11.0975693 C6.11236569,11.2954618 6.45920664,11.3006695 6.63731416,11.1131924 L6.96540695,10.7642767 L7.67314997,10.0091606 L11.1134372,6.36377242 C11.2915448,6.17629532 11.2962318,5.79092572 11.1228113,5.59824092 L10.7244129,5.14517125 C10.5509925,4.95248645 10.2041515,4.95248645 10.030731,5.13996355 L6.6654364,8.87388253 C6.49201592,9.06656734 6.14517497,9.06135964 5.97644154,8.86867484 L4.85623901,7.61361978 C4.68750557,7.41572728 4.3500387,7.42093498 4.18130526,7.62403518 L3.87196063,7.99378169 C3.7032272,8.19167419 3.71260128,8.58745918 3.88133471,8.78014398 Z" id="Shape" fill="#FFFFFF"></path>
            </g>
            <path d="M1779.19643,6.57142857 L1775.17857,6.57142857 L1775.17857,2.55357143 C1775.17857,2.11160714 1774.81857,1.75 1774.375,1.75 C1773.93143,1.75 1773.57143,2.11160714 1773.57143,2.55357143 L1773.57143,6.57142857 L1769.55357,6.57142857 C1769.11,6.57142857 1768.75,6.93303571 1768.75,7.375 C1768.75,7.81696429 1769.11,8.17857143 1769.55357,8.17857143 L1773.57143,8.17857143 L1773.57143,12.1964286 C1773.57143,12.6383929 1773.93143,13 1774.375,13 C1774.81857,13 1775.17857,12.6383929 1775.17857,12.1964286 L1775.17857,8.17857143 L1779.19643,8.17857143 C1779.64,8.17857143 1780,7.81696429 1780,7.375 C1780,6.93303571 1779.64,6.57142857 1779.19643,6.57142857 L1779.19643,6.57142857 Z" id="Path" fill="url(#linearGradient-4)"></path>
            <path d="M1886.08594,4.85207031 C1885.41258,4.85207031 1884.86719,5.39746094 1884.86719,6.0703125 C1884.86719,6.74316406 1885.41258,7.2890625 1886.08594,7.2890625 C1886.7593,7.2890625 1887.30469,6.74316406 1887.30469,6.0703125 C1887.30469,5.39746094 1886.7593,4.85207031 1886.08594,4.85207031 L1886.08594,4.85207031 Z M1890.65625,8.9140625 C1889.98289,8.9140625 1889.4375,9.45996094 1889.4375,10.1328125 C1889.4375,10.8056641 1889.98289,11.3515625 1890.65625,11.3515625 C1891.32961,11.3515625 1891.875,10.8056641 1891.875,10.1328125 C1891.875,9.45996094 1891.32961,8.9140625 1890.65625,8.9140625 L1890.65625,8.9140625 Z M1893.70312,6.578125 L1888.04508,6.578125 C1887.8191,7.45308594 1887.03148,8.1015625 1886.08594,8.1015625 C1885.14039,8.1015625 1884.35277,7.45308594 1884.1268,6.578125 L1883.54688,6.578125 C1883.26656,6.578125 1883.03906,6.35113281 1883.03906,6.0703125 C1883.03906,5.79 1883.26656,5.5625 1883.54688,5.5625 L1884.1268,5.5625 C1884.35277,4.68753906 1885.14039,4.0390625 1886.08594,4.0390625 C1887.03148,4.0390625 1887.8191,4.68753906 1888.04508,5.5625 L1893.70312,5.5625 C1893.98344,5.5625 1894.21094,5.79 1894.21094,6.0703125 C1894.21094,6.35113281 1893.98344,6.578125 1893.70312,6.578125 L1893.70312,6.578125 Z M1893.70312,10.640625 L1892.61539,10.640625 C1892.38941,11.5155859 1891.6018,12.1640625 1890.65625,12.1640625 C1889.7107,12.1640625 1888.92309,11.5155859 1888.69711,10.640625 L1883.54688,10.640625 C1883.26656,10.640625 1883.03906,10.4136328 1883.03906,10.1328125 C1883.03906,9.8525 1883.26656,9.625 1883.54688,9.625 L1888.69711,9.625 C1888.92359,8.75003906 1889.7107,8.1015625 1890.65625,8.1015625 C1891.6018,8.1015625 1892.38941,8.75003906 1892.61539,9.625 L1893.70312,9.625 C1893.98344,9.625 1894.21094,9.8525 1894.21094,10.1328125 C1894.21094,10.4136328 1893.98344,10.640625 1893.70312,10.640625 L1893.70312,10.640625 Z M1893.70312,14.703125 L1888.04508,14.703125 C1887.8191,15.5780859 1887.03148,16.2265625 1886.08594,16.2265625 C1885.14039,16.2265625 1884.35277,15.5780859 1884.1268,14.703125 L1883.54688,14.703125 C1883.26656,14.703125 1883.03906,14.4761328 1883.03906,14.1953125 C1883.03906,13.9144922 1883.26656,13.6875 1883.54688,13.6875 L1884.1268,13.6875 C1884.35277,12.8130469 1885.14039,12.1640625 1886.08594,12.1640625 C1887.03148,12.1640625 1887.8191,12.8130469 1888.04508,13.6875 L1893.70312,13.6875 C1893.98344,13.6875 1894.21094,13.9144922 1894.21094,14.1953125 C1894.21094,14.4761328 1893.98344,14.703125 1893.70312,14.703125 L1893.70312,14.703125 Z M1894.71875,1.5 L1882.53125,1.5 C1881.40949,1.5 1880.5,2.40949219 1880.5,3.53125 L1880.5,15.71875 C1880.5,16.8405078 1881.40949,17.75 1882.53125,17.75 L1894.71875,17.75 C1895.84051,17.75 1896.75,16.8405078 1896.75,15.71875 L1896.75,3.53125 C1896.75,2.40949219 1895.84051,1.5 1894.71875,1.5 L1894.71875,1.5 Z M1886.08594,12.9770703 C1885.41258,12.9770703 1884.86719,13.5224609 1884.86719,14.1953125 C1884.86719,14.8681641 1885.41258,15.4140625 1886.08594,15.4140625 C1886.7593,15.4140625 1887.30469,14.8681641 1887.30469,14.1953125 C1887.30469,13.5224609 1886.7593,12.9770703 1886.08594,12.9770703 L1886.08594,12.9770703 Z" id="Fill-170" fill="url(#linearGradient-5)"></path>
            <g id="Drive" transform="translate(1997.750000, 1.000000)">
                <circle id="Combined-Shape" fill="url(#linearGradient-1)" cx="9.375" cy="9.375" r="6.375"></circle>
                <path d="M7.5,18.562466 C3.2207994,17.6938342 0,13.9105461 0,9.375 C0,8.24191429 0.201015726,7.15577831 0.569331243,6.15030802 C0.760622477,6.28038177 0.975060838,6.42390574 1.21264633,6.58087993 C0.91275161,7.45716827 0.75,8.3970778 0.75,9.375 C0.75,13.4945382 3.63811007,16.9395221 7.5,17.7956215 L7.5,18.562466 Z M11.25,18.562466 L11.25,17.7956215 C15.1118899,16.9395221 18,13.4945382 18,9.375 C18,8.47970933 17.8635904,7.61627881 17.6104214,6.8043585 L18.2528026,6.35455833 C18.5751502,7.30229925 18.75,8.31823045 18.75,9.375 C18.75,13.9105461 15.5292006,17.6938342 11.25,18.562466 Z M2.82371846,2.66892738 C4.51375384,1.01766126 6.82553316,0 9.375,0 C12.0287476,0 14.4249658,1.10261463 16.1305171,2.87470638 L15.5079987,3.31059843 C13.9445547,1.72958061 11.774174,0.75 9.375,0.75 C7.08038708,0.75 4.99505944,1.64605683 3.44984303,3.10734452 L2.82371846,2.66892738 Z" id="Combined-Shape" fill="url(#linearGradient-6)"></path>
            </g>
            <polygon id="Play-Copy-2" fill="#4A4A4A" transform="translate(2120.412756, 4.653198) rotate(180.000000) translate(-2120.412756, -4.653198) " points="2120.41276 1.99044111 2123.56595 7.31595394 2117.25956 7.31595394"></polygon>
            <g id="Group" transform="translate(2224.000000, 1.250000)" fill="#FFFFFF">
                <rect id="Icon" x="5.625" y="0" width="1.25" height="11.25" rx="0.625"></rect>
                <rect id="Icon" transform="translate(6.250000, 5.625000) rotate(-270.000000) translate(-6.250000, -5.625000) " x="5.625" y="0" width="1.25" height="11.25" rx="0.625"></rect>
            </g>
            <g id="Group" transform="translate(2337.000000, 1.250000)" fill="#FFFFFF">
                <rect id="Icon" x="5.625" y="0" width="1.25" height="11.25" rx="0.625"></rect>
                <rect id="Icon" transform="translate(6.250000, 5.625000) rotate(-270.000000) translate(-6.250000, -5.625000) " x="5.625" y="0" width="1.25" height="11.25" rx="0.625"></rect>
            </g>
            <g id="Group" transform="translate(2450.000000, 1.250000)" fill="#FFFFFF">
                <rect id="Icon" x="5.625" y="0" width="1.25" height="11.25" rx="0.625"></rect>
                <rect id="Icon" transform="translate(6.250000, 5.625000) rotate(-270.000000) translate(-6.250000, -5.625000) " x="5.625" y="0" width="1.25" height="11.25" rx="0.625"></rect>
            </g>
            <polygon id="Play" fill="#FFFFFF" transform="translate(2566.412756, 4.653198) rotate(90.000000) translate(-2566.412756, -4.653198) " points="2566.41276 1.99044111 2569.56595 7.31595394 2563.25956 7.31595394"></polygon>
            <polygon id="Play" fill="#FFFFFF" transform="translate(2673.412756, 4.653198) rotate(90.000000) translate(-2673.412756, -4.653198) " points="2673.41276 1.99044111 2676.56595 7.31595394 2670.25956 7.31595394"></polygon>
            <polygon id="Play-Copy" fill="#FFFFFF" transform="translate(2780.412756, 4.903198) rotate(90.000000) translate(-2780.412756, -4.903198) " points="2780.41276 2.24044111 2783.56595 7.56595394 2777.25956 7.56595394"></polygon>
            <polygon id="Play-Copy" fill="#FFFFFF" transform="translate(2887.662756, 4.653198) rotate(180.000000) translate(-2887.662756, -4.653198) " points="2887.66276 1.99044111 2890.81595 7.31595394 2884.50956 7.31595394"></polygon>
            <g id="Group-5" transform="translate(2991.000000, 1.000000)" fill="#FFFFFF">
                <rect id="Icon" x="5.625" y="0" width="1.25" height="11.25" rx="0.625"></rect>
                <rect id="Icon" transform="translate(6.250000, 5.625000) rotate(-270.000000) translate(-6.250000, -5.625000) " x="5.625" y="0" width="1.25" height="11.25" rx="0.625"></rect>
            </g>
            <path d="M3107.1875,9.3125 C3107.1875,9.4853125 3107.04781,9.625 3106.875,9.625 C3106.70219,9.625 3106.5625,9.4853125 3106.5625,9.3125 L3106.5625,8.0625 C3106.5625,7.89 3106.70219,7.75 3106.875,7.75 C3107.04781,7.75 3107.1875,7.89 3107.1875,8.0625 L3107.1875,9.3125 L3107.1875,9.3125 Z M3106.875,5.25 C3106.17063,5.25 3105.52281,5.4859375 3105,5.879375 L3105,4 C3105,2.9646875 3105.83969,2.125 3106.875,2.125 C3107.91031,2.125 3108.75,2.9646875 3108.75,4 L3109.375,4 C3109.375,2.619375 3108.25562,1.5 3106.875,1.5 C3105.49438,1.5 3104.375,2.619375 3104.375,4 L3104.375,6.5059375 C3103.98438,7.0275 3103.75,7.673125 3103.75,8.375 C3103.75,10.1009375 3105.14937,11.5 3106.875,11.5 C3108.60063,11.5 3110,10.1009375 3110,8.375 C3110,6.649375 3108.60063,5.25 3106.875,5.25 L3106.875,5.25 Z" id="Fill-174" fill="#4A4A4A"></path>
            <path d="M3210.75008,21.9375 L3216.74992,21.9375 C3216.66758,21.9144271 3216.57386,21.9020951 3216.46696,21.9020951 C3215.3455,21.9020951 3214.42048,21.5843248 3214.42048,20.9230898 C3214.42024,20.8484328 3214.42024,20.8484328 3214.41952,20.7500218 C3214.41554,20.1861975 3214.42368,19.7906658 3214.4619,19.3508974 C3214.50346,18.8727586 3214.5759,18.4712045 3214.69001,18.157482 C3214.78478,17.8969412 3214.845,17.260701 3214.86666,16.3986163 C3214.88026,15.8576035 3214.87835,15.2779853 3214.86693,14.726219 C3214.86351,14.5609713 3214.8601,14.4388113 3214.85785,14.3721675 L3214.89009,14.2230069 C3215.21544,13.5654949 3215.33126,12.7407514 3215.27872,11.8194086 C3215.24237,11.1818783 3215.13286,10.5830645 3215.00073,10.0938886 L3214.90386,9.73526634 L3215.27377,9.70121409 C3215.55716,9.67512618 3215.76003,9.6317172 3215.87453,9.57843896 C3216.08618,9.47995618 3216.28374,9.08338702 3216.40957,8.39572199 L3216.63982,6.21921702 C3216.69359,5.71095947 3216.43252,5.22116609 3215.98061,4.9824457 C3215.68169,4.82454622 3215.43144,4.70422644 3215.23115,4.62178753 C3215.05426,4.54897431 3214.81981,4.46902418 3214.52909,4.38273724 L3214.30551,4.31637727 L3214.30551,3.44043779 L3214.37154,3.24831025 C3214.53629,3.03697232 3214.63109,2.75522361 3214.63109,2.45274894 C3214.63109,2.09774803 3214.5053,1.66993122 3214.34675,1.48128524 C3214.23534,1.34871774 3214.0931,1.3125 3213.72264,1.3125 C3213.35218,1.3125 3213.20994,1.34871774 3213.09852,1.48128524 C3212.93998,1.66993122 3212.81418,2.09774803 3212.81418,2.45274894 C3212.81418,2.75522361 3212.90899,3.03697232 3213.07373,3.24831025 L3213.13977,3.44043779 L3213.13977,4.31611122 L3212.91617,4.38246039 C3212.62502,4.46885294 3212.39026,4.54889597 3212.21317,4.62178753 C3212.01289,4.70422644 3211.76263,4.82454622 3211.46372,4.9824457 C3211.0118,5.22116609 3210.75073,5.71095947 3210.8045,6.21921765 L3211.03145,8.37272966 C3211.16058,9.08338702 3211.35814,9.47995618 3211.5698,9.57843896 C3211.69153,9.63508423 3211.91188,9.68022739 3212.22188,9.70567954 L3212.59556,9.73635977 L3212.49806,10.0983935 C3212.36578,10.5895716 3212.2567,11.1888458 3212.22091,11.8258651 C3212.16929,12.7447095 3212.28535,13.5671022 3212.60991,14.2230069 L3212.64215,14.3721675 C3212.6399,14.4388113 3212.63649,14.5609713 3212.63307,14.726219 C3212.62165,15.2779853 3212.61974,15.8576035 3212.63334,16.3986163 C3212.655,17.260701 3212.71522,17.8969412 3212.80999,18.157482 C3212.9241,18.4712045 3212.99654,18.8727586 3213.0381,19.3508974 C3213.07632,19.7906658 3213.08446,20.1861975 3213.08048,20.7500218 C3213.07976,20.8484328 3213.07976,20.8484328 3213.07952,20.9230898 C3213.07952,21.5843248 3212.1545,21.9020951 3211.03304,21.9020951 C3210.92614,21.9020951 3210.83242,21.9144271 3210.75008,21.9375 Z" id="Oscar" stroke="#FFFFFF" stroke-width="0.625"></path>
            <g id="photo-icon" transform="translate(3318.750000, 1.500000)" stroke="#FFFFFF" stroke-width="1.25">
                <rect id="Mask" x="0.625" y="0.625" width="18.75" height="15"></rect>
                <path d="M15.0618559,15.625 L9.375,7.35320954 L3.68814406,15.625 L15.0618559,15.625 Z" id="Triangle-1"></path>
                <circle id="Oval-7" cx="15.625" cy="5.625" r="1.25"></circle>
                <path d="M15.5749262,15.625 C15.3403987,14.1843971 14.3119255,13.125 13.125,13.125 C11.9380745,13.125 10.9096013,14.1843971 10.6750738,15.625 L15.5749262,15.625 Z" id="Oval-8"></path>
            </g>
            <g id="teglas-icon" transform="translate(3446.318490, 11.285053) rotate(-360.000000) translate(-3446.318490, -11.285053) translate(3439.818490, 1.285053)" stroke="#FFFFFF" stroke-width="0.9375">
                <rect id="Rectangle-12" x="0.46875" y="4.27827381" width="11.5625" height="15.2529762"></rect>
                <rect id="Rectangle-13" x="2.39182692" y="0.46875" width="7.71634615" height="3.82440476"></rect>
                <rect id="Rectangle-14" x="4.31490385" y="1.42113095" width="1" height="1.91964286"></rect>
                <rect id="Rectangle-14" x="6.23798077" y="1.42113095" width="1" height="1.91964286"></rect>
                <rect id="Rectangle-14" x="8.16105769" y="1.42113095" width="1" height="1.91964286"></rect>
                <path d="M2.39182692,17.6264881 L10.1081731,17.6264881 L10.1081731,13.3035714 C10.1081731,12.526921 9.47857351,11.8973214 8.70192308,11.8973214 L3.79807692,11.8973214 C3.02142649,11.8973214 2.39182692,12.526921 2.39182692,13.3035714 L2.39182692,17.6264881 Z" id="Rectangle-12"></path>
            </g>
            <path d="M3560.90107,16.25 C3557.64163,16.25 3555,13.5134809 3555,10.4414714 C3555,9.72810748 3555.01591,9.14904185 3555.51314,8.59040183 C3555.45926,8.91414751 3556.22999,11.6823263 3558.74846,11.5373046 C3558.63916,9.43397891 3558.06753,4.2811119 3560.7225,2.5 C3560.48799,5.30034909 3561.17713,9.06223307 3564.25133,9.61168158 C3564.07533,8.48878449 3564.09637,6.62086382 3564.8866,6.27567126 C3564.97178,7.99601701 3566.25,9.05712668 3566.25,10.7105786 C3566.25,13.7049708 3563.33898,16.25 3560.90107,16.25 L3560.90107,16.25 Z M3565.86322,4.78082031 C3563.54423,5.41558594 3563.11957,7.21578125 3563.26923,8.359375 C3561.615,6.49164063 3561.68269,4.34410156 3561.68269,1.25 C3556.37731,3.17105469 3557.61111,8.70875 3557.45192,10.390625 C3556.11764,9.34199219 3555.86538,6.8359375 3555.86538,6.8359375 C3554.45654,7.53214844 3553.75,9.39074219 3553.75,10.8984375 C3553.75,14.5445312 3556.82788,17.5 3560.625,17.5 C3564.42212,17.5 3567.5,14.5445312 3567.5,10.8984375 C3567.5,8.73160156 3565.84312,7.73222656 3565.86322,4.78082031 L3565.86322,4.78082031 Z" id="Fill-156" fill="url(#linearGradient-7)"></path>
            <g id="Drive" transform="translate(3668.000000, 1.000000)">
                <circle id="Combined-Shape" fill="url(#linearGradient-1)" cx="9.375" cy="9.375" r="6.375"></circle>
                <path d="M7.5,18.562466 C3.2207994,17.6938342 0,13.9105461 0,9.375 C0,8.24191429 0.201015726,7.15577831 0.569331243,6.15030802 C0.760622477,6.28038177 0.975060838,6.42390574 1.21264633,6.58087993 C0.91275161,7.45716827 0.75,8.3970778 0.75,9.375 C0.75,13.4945382 3.63811007,16.9395221 7.5,17.7956215 L7.5,18.562466 Z M11.25,18.562466 L11.25,17.7956215 C15.1118899,16.9395221 18,13.4945382 18,9.375 C18,8.47970933 17.8635904,7.61627881 17.6104214,6.8043585 L18.2528026,6.35455833 C18.5751502,7.30229925 18.75,8.31823045 18.75,9.375 C18.75,13.9105461 15.5292006,17.6938342 11.25,18.562466 Z M2.82371846,2.66892738 C4.51375384,1.01766126 6.82553316,0 9.375,0 C12.0287476,0 14.4249658,1.10261463 16.1305171,2.87470638 L15.5079987,3.31059843 C13.9445547,1.72958061 11.774174,0.75 9.375,0.75 C7.08038708,0.75 4.99505944,1.64605683 3.44984303,3.10734452 L2.82371846,2.66892738 Z" id="Combined-Shape" fill="url(#linearGradient-6)"></path>
            </g>
            <path d="M3802.1875,3.25 C3801.87644,3.25 3801.625,3.5014375 3801.625,3.8125 C3801.625,4.1235625 3801.87644,4.375 3802.1875,4.375 C3802.49856,4.375 3802.75,4.1235625 3802.75,3.8125 C3802.75,3.5014375 3802.49856,3.25 3802.1875,3.25 L3802.1875,3.25 Z M3803.875,16.75 C3803.875,17.371 3803.371,17.875 3802.75,17.875 L3789.25,17.875 C3788.629,17.875 3788.125,17.371 3788.125,16.75 L3788.125,3.25 C3788.125,2.629 3788.629,2.125 3789.25,2.125 L3802.75,2.125 C3803.371,2.125 3803.875,2.629 3803.875,3.25 L3803.875,16.75 L3803.875,16.75 Z M3802.75,1 L3789.25,1 C3788.00744,1 3787,2.0074375 3787,3.25 L3787,16.75 C3787,17.9925625 3788.00744,19 3789.25,19 L3802.75,19 C3803.99256,19 3805,17.9925625 3805,16.75 L3805,3.25 C3805,2.0074375 3803.99256,1 3802.75,1 L3802.75,1 Z M3796,12.25 C3794.75744,12.25 3793.75,11.2425625 3793.75,10 C3793.75,8.7574375 3794.75744,7.75 3796,7.75 C3797.24256,7.75 3798.25,8.7574375 3798.25,10 C3798.25,11.2425625 3797.24256,12.25 3796,12.25 L3796,12.25 Z M3796,6.625 C3794.13644,6.625 3792.625,8.1364375 3792.625,10 C3792.625,11.8635625 3794.13644,13.375 3796,13.375 C3797.86356,13.375 3799.375,11.8635625 3799.375,10 C3799.375,8.1364375 3797.86356,6.625 3796,6.625 L3796,6.625 Z M3796,15.625 C3792.89388,15.625 3790.375,13.1066875 3790.375,10 C3790.375,6.893875 3792.89388,4.375 3796,4.375 C3799.10613,4.375 3801.625,6.893875 3801.625,10 C3801.625,13.1066875 3799.10613,15.625 3796,15.625 L3796,15.625 Z M3796,3.25 C3792.27231,3.25 3789.25,6.2723125 3789.25,10 C3789.25,13.72825 3792.27231,16.75 3796,16.75 C3799.72769,16.75 3802.75,13.72825 3802.75,10 C3802.75,6.2723125 3799.72769,3.25 3796,3.25 L3796,3.25 Z M3789.8125,15.625 C3789.50144,15.625 3789.25,15.8764375 3789.25,16.1875 C3789.25,16.4985625 3789.50144,16.75 3789.8125,16.75 C3790.12356,16.75 3790.375,16.4985625 3790.375,16.1875 C3790.375,15.8764375 3790.12356,15.625 3789.8125,15.625 L3789.8125,15.625 Z M3789.8125,4.375 C3790.12356,4.375 3790.375,4.1235625 3790.375,3.8125 C3790.375,3.5014375 3790.12356,3.25 3789.8125,3.25 C3789.50144,3.25 3789.25,3.5014375 3789.25,3.8125 C3789.25,4.1235625 3789.50144,4.375 3789.8125,4.375 L3789.8125,4.375 Z M3802.1875,15.625 C3801.87644,15.625 3801.625,15.8764375 3801.625,16.1875 C3801.625,16.4985625 3801.87644,16.75 3802.1875,16.75 C3802.49856,16.75 3802.75,16.4985625 3802.75,16.1875 C3802.75,15.8764375 3802.49856,15.625 3802.1875,15.625 L3802.1875,15.625 Z" id="Fill-133" fill="#9B9B9B"></path>
            <path d="M3920.90323,11.0657895 L3906.09677,11.0657895 L3906.09677,3.23684211 C3906.09677,2.61947368 3906.58813,2.11842105 3907.19355,2.11842105 L3919.80645,2.11842105 C3920.41187,2.11842105 3920.90323,2.61947368 3920.90323,3.23684211 L3920.90323,11.0657895 L3920.90323,11.0657895 Z M3920.90323,13.3026316 C3920.90323,13.92 3920.41187,14.4210526 3919.80645,14.4210526 L3907.19355,14.4210526 C3906.58813,14.4210526 3906.09677,13.92 3906.09677,13.3026316 L3906.09677,12.1842105 L3920.90323,12.1842105 L3920.90323,13.3026316 L3920.90323,13.3026316 Z M3912.67742,15.5394737 L3914.87097,15.5394737 L3914.87097,17.7763158 L3912.67742,17.7763158 L3912.67742,15.5394737 Z M3919.80645,1 L3907.19355,1 C3905.98216,1 3905,2.00154605 3905,3.23684211 L3905,13.3026316 C3905,14.5379276 3905.98216,15.5394737 3907.19355,15.5394737 L3911.58065,15.5394737 L3911.58065,17.7763158 L3910.48387,17.7763158 C3910.18061,17.7763158 3909.93548,18.0268421 3909.93548,18.3355263 C3909.93548,18.6447697 3910.18061,18.8947368 3910.48387,18.8947368 L3917.06452,18.8947368 C3917.36777,18.8947368 3917.6129,18.6447697 3917.6129,18.3355263 C3917.6129,18.0268421 3917.36777,17.7763158 3917.06452,17.7763158 L3915.96774,17.7763158 L3915.96774,15.5394737 L3919.80645,15.5394737 C3921.01784,15.5394737 3922,14.5379276 3922,13.3026316 L3922,3.23684211 C3922,2.00154605 3921.01784,1 3919.80645,1 L3919.80645,1 Z" id="Fill-143" fill="#9B9B9B"></path>
            <path d="M4037.7,15.2000625 C4037.7,16.0271307 4037.03338,16.7 4036.20936,16.7 L4033.43914,16.7 L4029.29844,12.4654396 L4034.22807,7.48956867 L4037.7,10.9940719 L4037.7,15.2000625 Z M4023.77772,15.9 C4022.9645,15.9 4022.3,15.2511108 4022.3,14.4452511 L4022.3,13.770046 L4026.70268,9.91941492 L4032.82778,15.9 L4023.77772,15.9 Z M4024,1.5 C4023.17164,1.5 4022.5,2.17164237 4022.5,3 L4022.5,15 C4022.5,15.8283576 4023.17164,16.5 4024,16.5 L4036,16.5 C4036.82836,16.5 4037.5,15.8283576 4037.5,15 L4037.5,3 C4037.5,2.17164237 4036.82836,1.5 4036,1.5 L4024,1.5 Z M4026.4,7.1 C4025.46146,7.1 4024.7,6.33854237 4024.7,5.4 C4024.7,4.46145763 4025.46146,3.7 4026.4,3.7 C4027.33854,3.7 4028.1,4.46145763 4028.1,5.4 C4028.1,6.33854237 4027.33854,7.1 4026.4,7.1 Z" id="Fill-216" stroke="#9B9B9B"></path>
            <path d="M4148.99239,4.57104844 L4145.39239,4.57104844 L4145.39239,2.06895685 C4145.37379,1.45094023 4145.40499,1.42341722 4145.99239,1.44343395 L4148.39239,1.44343395 C4148.98039,1.44781261 4148.99479,1.4227917 4148.99239,2.06895685 L4148.99239,4.57104844 L4148.99239,4.57104844 Z M4148.99239,13.9538919 C4147.75999,13.9532664 4145.74159,13.9538919 4145.39239,13.9538919 L4145.39239,5.82209424 L4148.99239,5.82209424 L4148.99239,13.9538919 L4148.99239,13.9538919 Z M4147.19239,18.4933116 L4145.39239,15.2049377 L4148.99239,15.2049377 L4147.19239,18.4933116 L4147.19239,18.4933116 Z M4148.99239,0.192388155 L4145.39239,0.192388155 C4144.66639,0.192388155 4144.19239,0.679670493 4144.19239,1.44343395 L4144.19239,15.3381741 L4146.59239,19.7556168 C4146.95479,20.3379786 4147.42999,20.3379786 4147.79239,19.7556168 L4150.19239,15.3381741 L4150.19239,1.44343395 C4150.19239,0.679670493 4149.71839,0.193013678 4148.99239,0.192388155 L4148.99239,0.192388155 Z" id="Fill-213" fill="#9B9B9B" transform="translate(4147.192388, 10.192388) rotate(-315.000000) translate(-4147.192388, -10.192388) "></path>
            <g id="Group-2" transform="translate(4257.000000, 1.000000)" stroke="#979797" stroke-linecap="square" stroke-width="1.044">
                <path d="M14.5588235,7.5 L0.441176471,7.5" id="Line-5"></path>
                <path d="M7.5,14.5588235 L7.5,0.441176471" id="Line-5"></path>
            </g>
            <path d="M4389.46032,1 L4379.30159,1 C4377.89905,1 4376.7619,2.13714286 4376.7619,3.53968254 L4376.7619,13.6984127 C4376.7619,15.1009524 4377.89905,16.2380952 4379.30159,16.2380952 L4389.46032,16.2380952 C4390.86286,16.2380952 4392,15.1009524 4392,13.6984127 L4392,3.53968254 C4392,2.13714286 4390.86286,1 4389.46032,1 L4389.46032,1 Z M4385.96825,18.4603175 C4385.96825,19.1612698 4385.39937,19.7301587 4384.69841,19.7301587 L4374.53968,19.7301587 C4373.83873,19.7301587 4373.26984,19.1612698 4373.26984,18.4603175 L4373.26984,8.3015873 C4373.26984,7.60063492 4373.83873,7.03174603 4374.53968,7.03174603 L4375.80952,7.03174603 L4375.80952,5.76190476 L4374.53968,5.76190476 C4373.13714,5.76190476 4372,6.89904762 4372,8.3015873 L4372,18.4603175 C4372,19.8628571 4373.13714,21 4374.53968,21 L4384.69841,21 C4386.10095,21 4387.2381,19.8628571 4387.2381,18.4603175 L4387.2381,17.1904762 L4385.96825,17.1904762 L4385.96825,18.4603175 L4385.96825,18.4603175 Z" id="Fill-60" fill="url(#linearGradient-1)"></path>
            <path d="M4511,5.93595496 C4511,3.20951293 4508.6611,1 4505.775,1 C4502.906,1 4500.55,3.20412825 4500.55,5.93595496 C4500.55,7.60700008 4499.0927,9.07701721 4497.225,9.07701721 C4495.3915,9.07701721 4493.9,7.66802643 4493.9,5.93595496 C4493.9,4.2038835 4495.3915,2.79489271 4497.225,2.79489271 C4498.33365,2.79489271 4499.31025,3.31451416 4499.9154,4.1051644 C4500.151,3.43118218 4500.45215,2.91963776 4500.8692,2.40270866 C4499.92775,1.53577548 4498.64335,1 4497.225,1 C4494.3389,1 4492,3.20951293 4492,5.93595496 C4492,8.662397 4494.3389,10.8719099 4497.225,10.8719099 C4500.094,10.8719099 4502.45,8.66778168 4502.45,5.93595496 C4502.45,4.26042262 4503.9111,2.79489271 4505.775,2.79489271 C4507.6085,2.79489271 4509.1,4.2038835 4509.1,5.93595496 C4509.1,7.01289059 4508.5224,7.96418373 4507.64555,8.52957494 L4507.0176,6.96442849 L4505.6116,9.05817084 L4504.5039,10.7067798 L4504.4735,10.7525496 L4509.03635,12 L4508.3305,10.2392102 C4509.9227,9.39291833 4511,7.78469446 4511,5.93595496" id="arrow_infinity-[#239]" fill="url(#linearGradient-1)"></path>
            <path d="M4625.25,13.7063678 C4625.25,14.0457508 4624.984,14.3211921 4624.65625,14.3211921 L4621.6875,14.3211921 L4621.6875,6.32847682 L4624.65625,6.32847682 C4624.984,6.32847682 4625.25,6.60391808 4625.25,6.94330107 L4625.25,13.7063678 L4625.25,13.7063678 Z M4619.90625,11.9106906 C4619.90625,12.261482 4619.64025,12.5450331 4619.3125,12.5450331 L4614.5625,12.5450331 L4614.5625,3.66423841 L4619.3125,3.66423841 C4619.64025,3.66423841 4619.90625,3.94842384 4619.90625,4.29858089 L4619.90625,11.9106906 L4619.90625,11.9106906 Z M4613.67188,18.158964 C4613.67188,18.4922159 4613.27287,18.7615894 4612.78125,18.7615894 C4612.28963,18.7615894 4611.89062,18.4922159 4611.89062,18.158964 L4611.89062,2.49070482 C4611.89062,2.15805563 4612.28963,1.88807947 4612.78125,1.88807947 C4613.27287,1.88807947 4613.67188,2.15805563 4613.67188,2.49070482 L4613.67188,18.158964 L4613.67188,18.158964 Z M4624.92937,5.07961507 L4621.29562,5.07961507 L4621.29562,3.91401076 C4621.29562,3.27059719 4620.75299,2.74840646 4620.08438,2.74840646 L4614.63375,2.74840646 L4614.63375,2.1656043 C4614.63375,1.52219073 4614.09111,1 4613.4225,1 L4612.21125,1 C4611.54264,1 4611,1.52219073 4611,2.1656043 L4611,18.4840646 C4611,19.1274781 4611.54264,19.6496689 4612.21125,19.6496689 L4613.4225,19.6496689 C4614.09111,19.6496689 4614.63375,19.1274781 4614.63375,18.4840646 L4614.63375,13.2388452 L4620.08438,13.2388452 L4620.08438,13.8216474 C4620.08438,14.4650609 4620.65366,14.9872517 4621.29562,14.9872517 L4624.92937,14.9872517 C4625.59799,14.9872517 4626.14062,14.4650609 4626.14062,13.8216474 L4626.14062,6.24521937 C4626.14062,5.60180579 4625.59799,5.07961507 4624.92937,5.07961507 L4624.92937,5.07961507 Z" id="Fill-100" fill="url(#linearGradient-8)"></path>
            <path d="M4743.625,18.6428571 L4729.375,18.6428571 C4728.7195,18.6428571 4728.1875,18.0321429 4728.1875,17.2857143 C4728.1875,16.5392857 4728.7195,15.9285714 4729.375,15.9285714 L4743.625,15.9285714 C4744.2805,15.9285714 4744.8125,16.5392857 4744.8125,17.2857143 C4744.8125,18.0321429 4744.2805,18.6428571 4743.625,18.6428571 L4743.625,18.6428571 Z M4729.375,14.5714286 C4728.06341,14.5714286 4727,15.7860714 4727,17.2857143 C4727,18.7853571 4728.06341,20 4729.375,20 L4743.625,20 C4744.93659,20 4746,18.7853571 4746,17.2857143 C4746,15.7860714 4744.93659,14.5714286 4743.625,14.5714286 L4729.375,14.5714286 Z M4743.625,11.8571429 L4729.375,11.8571429 C4728.7195,11.8571429 4728.1875,11.2464286 4728.1875,10.5 C4728.1875,9.75357143 4728.7195,9.14285714 4729.375,9.14285714 L4743.625,9.14285714 C4744.2805,9.14285714 4744.8125,9.75357143 4744.8125,10.5 C4744.8125,11.2464286 4744.2805,11.8571429 4743.625,11.8571429 L4743.625,11.8571429 Z M4743.625,7.78571429 L4729.375,7.78571429 C4728.06341,7.78571429 4727,9.00035714 4727,10.5 C4727,11.9996429 4728.06341,13.2142857 4729.375,13.2142857 L4743.625,13.2142857 C4744.93659,13.2142857 4746,11.9996429 4746,10.5 C4746,9.00035714 4744.93659,7.78571429 4743.625,7.78571429 L4743.625,7.78571429 Z M4729.375,2.35714286 L4743.625,2.35714286 C4744.2805,2.35714286 4744.8125,2.96785714 4744.8125,3.71428571 C4744.8125,4.46071429 4744.2805,5.07142857 4743.625,5.07142857 L4729.375,5.07142857 C4728.7195,5.07142857 4728.1875,4.46071429 4728.1875,3.71428571 C4728.1875,2.96785714 4728.7195,2.35714286 4729.375,2.35714286 L4729.375,2.35714286 Z M4729.375,6.42857143 L4743.625,6.42857143 C4744.93659,6.42857143 4746,5.21392857 4746,3.71428571 C4746,2.21464286 4744.93659,1 4743.625,1 L4729.375,1 C4728.06341,1 4727,2.21464286 4727,3.71428571 C4727,5.21392857 4728.06341,6.42857143 4729.375,6.42857143 L4729.375,6.42857143 Z" id="Fill-38" fill="url(#linearGradient-9)" transform="translate(4736.500000, 10.500000) rotate(-270.000000) translate(-4736.500000, -10.500000) "></path>
            <g id="Drive" transform="translate(4846.000000, 1.000000)">
                <circle id="Combined-Shape" fill="url(#linearGradient-1)" cx="11" cy="11" r="7.48"></circle>
                <path d="M8.8,21.7799601 C3.77907129,20.7607654 0,16.3217074 0,11 C0,9.67051276 0.235858452,8.39611322 0.668015325,7.2163614 C0.892463706,7.36898127 1.14407138,7.53738273 1.42283836,7.72156578 C1.07096189,8.74974411 0.88,9.85257128 0.88,11 C0.88,15.8335914 4.26871582,19.8757059 8.8,20.8801959 L8.8,21.7799601 Z M13.2,21.7799601 L13.2,20.8801959 C17.7312842,19.8757059 21.12,15.8335914 21.12,11 C21.12,9.94952561 20.9599461,8.9364338 20.6628944,7.98378063 L21.4166217,7.45601511 C21.7948429,8.56803112 22,9.76005706 22,11 C22,16.3217074 18.2209287,20.7607654 13.2,21.7799601 Z M3.313163,3.13154146 C5.29613784,1.19405588 8.00862557,0 11,0 C14.1137306,0 16.9252932,1.29373449 18.9264734,3.37298882 L18.1960518,3.88443549 C16.3616109,2.02937458 13.8150308,0.88 11,0.88 C8.30765417,0.88 5.86086974,1.93137334 4.04781583,3.64595091 L3.313163,3.13154146 Z" id="Combined-Shape" fill="url(#linearGradient-6)"></path>
            </g>
            <g id="Grind">
                <use fill="url(#linearGradient-4)" fill-rule="evenodd" xlink:href="#path-10"></use>
                <path stroke="url(#linearGradient-4)" stroke-width="0.72" d="M4978.58385,1.36 L4977.41615,1.36 L4976.23565,4.50798559 L4976.0647,4.55927727 C4975.63091,4.68942756 4975.21244,4.86316505 4974.81489,5.07743791 L4974.65769,5.16216654 L4971.59634,3.7706441 L4970.77064,4.59633716 L4972.16217,7.65768653 L4972.07744,7.8148868 C4971.86317,8.21243543 4971.68943,8.63091178 4971.55928,9.06469868 L4971.50799,9.23565224 L4968.36,10.4161468 L4968.36,11.5838532 L4971.50799,12.7643478 L4971.55928,12.9353013 C4971.68943,13.3690882 4971.86317,13.7875646 4972.07744,14.1851132 L4972.16217,14.3423135 L4970.77064,17.4036628 L4971.59634,18.2293559 L4974.65769,16.8378335 L4974.81489,16.9225621 C4975.21244,17.1368349 4975.63091,17.3105724 4976.0647,17.4407227 L4976.23565,17.4920144 L4977.41615,20.64 L4978.58385,20.64 L4979.76435,17.4920144 L4979.9353,17.4407227 C4980.36909,17.3105724 4980.78756,17.1368349 4981.18511,16.9225621 L4981.34231,16.8378335 L4984.40366,18.2293559 L4985.22936,17.4036628 L4983.83783,14.3423135 L4983.92256,14.1851132 C4984.13683,13.7875646 4984.31057,13.3690882 4984.44072,12.9353013 L4984.49201,12.7643478 L4987.64,11.5838532 L4987.64,10.4161468 L4984.49201,9.23565224 L4984.44072,9.06469868 C4984.31057,8.63091178 4984.13683,8.21243543 4983.92256,7.8148868 L4983.83783,7.65768653 L4985.22936,4.59633716 L4984.40366,3.7706441 L4981.34231,5.16216654 L4981.18511,5.07743791 C4980.78756,4.86316505 4980.36909,4.68942756 4979.9353,4.55927727 L4979.76435,4.50798559 L4978.58385,1.36 Z M4978,16.36 C4975.03975,16.36 4972.64,13.9602463 4972.64,11 C4972.64,8.03975374 4975.03975,5.64 4978,5.64 C4980.96025,5.64 4983.36,8.03975374 4983.36,11 C4983.36,13.9602463 4980.96025,16.36 4978,16.36 Z"></path>
            </g>
            <g id="Group-19-Copy" transform="translate(5088.000000, 1.000000)">
                <rect id="Rectangle-32" fill="url(#linearGradient-1)" x="0" y="0" width="42" height="18" rx="9"></rect>
                <text id="On" font-family="AppleSDGothicNeo-Regular, Apple SD Gothic Neo" font-size="10" font-weight="normal" fill="#FFFFFF">
                    <tspan x="9" y="13">On</tspan>
                </text>
                <g id="Oval-4">
                    <use fill="black" fill-opacity="1" filter="url(#filter-12)" xlink:href="#path-11"></use>
                    <use fill="#FFFFFF" fill-rule="evenodd" xlink:href="#path-11"></use>
                </g>
            </g>
            <g id="Group-19" transform="translate(5230.000000, 1.000000)">
                <rect id="Rectangle-32" fill="url(#linearGradient-1)" x="0" y="0" width="42" height="18" rx="9"></rect>
                <text id="On" font-family="AppleSDGothicNeo-Regular, Apple SD Gothic Neo" font-size="10" font-weight="normal" fill="#FFFFFF">
                    <tspan x="9" y="13">On</tspan>
                </text>
                <g id="Oval-4">
                    <use fill="black" fill-opacity="1" filter="url(#filter-14)" xlink:href="#path-13"></use>
                    <use fill="#FFFFFF" fill-rule="evenodd" xlink:href="#path-13"></use>
                </g>
            </g>
            <g id="Group-19-Copy-2" transform="translate(5372.000000, 1.000000)">
                <rect id="Rectangle-32" fill="url(#linearGradient-1)" x="0" y="0" width="42" height="18" rx="9"></rect>
                <text id="On" font-family="AppleSDGothicNeo-Regular, Apple SD Gothic Neo" font-size="10" font-weight="normal" fill="#FFFFFF">
                    <tspan x="9" y="13">On</tspan>
                </text>
                <g id="Oval-4">
                    <use fill="black" fill-opacity="1" filter="url(#filter-16)" xlink:href="#path-15"></use>
                    <use fill="#FFFFFF" fill-rule="evenodd" xlink:href="#path-15"></use>
                </g>
            </g>
            <g id="Group-17" transform="translate(5514.000000, 1.000000)">
                <rect id="Rectangle-32" stroke="#FFFFFF" x="0.5" y="0.5" width="41" height="17" rx="8.5"></rect>
                <text id="off" font-family="AppleSDGothicNeo-Regular, Apple SD Gothic Neo" font-size="10" font-weight="normal" fill="#FFFFFF">
                    <tspan x="21" y="13">off</tspan>
                </text>
                <g id="Oval-4">
                    <use fill="black" fill-opacity="1" filter="url(#filter-18)" xlink:href="#path-17"></use>
                    <use fill="#FFFFFF" fill-rule="evenodd" xlink:href="#path-17"></use>
                </g>
            </g>
            <g id="Layers" transform="translate(5656.000000, 1.000000)" fill="url(#linearGradient-19)">
                <path d="M10.322238,12.1905151 L0.570371512,7.35885169 C0.178649781,7.14758238 -0.00935497855,6.72145277 0.000397429704,6.30011113 C-0.00989677901,5.87398152 0.179733381,5.44306393 0.575789517,5.22999913 C0.575789517,5.22999913 7.08823103,1.82156073 10.4501029,0.394744733 C11.7027455,-0.136720288 13.0805441,-0.131333818 14.329936,0.409707149 L24.0818024,5.24137056 C24.4735241,5.45263988 24.6615289,5.87876949 24.6517765,6.29951263 C24.6620707,6.72624074 24.4724405,7.15715832 24.0758426,7.37022313 C24.0758426,7.37022313 17.5639429,10.7786615 14.202071,12.2054775 C12.9494284,12.7369425 11.5716298,12.7309576 10.322238,12.1905151 Z M24.0818024,11.9610074 C24.4735241,12.1860681 24.6615289,12.640015 24.6517765,13.0888614 C24.6620707,13.5428083 24.4724405,14.0018557 24.0758426,14.2288291 C24.0758426,14.2288291 17.5639429,17.8597666 14.202071,19.3797235 C12.9494284,19.945882 11.5716298,19.9395063 10.322238,19.3637844 L0.570371512,14.2167153 C0.178649781,13.9916546 -0.00935497855,13.5377077 0.000397429704,13.0894989 C-0.00989677901,12.6349145 0.179733381,12.1758671 0.575789517,11.9488936 C0.575789517,11.9488936 1.42587444,11.4751822 2.66713929,10.8 L10.322238,14.8402547 C11.5716298,15.4159767 12.9494284,15.4223524 14.202071,14.8561939 C16.3508517,13.8845435 19.7853248,12.0515417 21.9850346,10.8548307 L24.0818024,11.9610074 Z M24.0818024,19.1610074 C24.4735241,19.3860681 24.6615289,19.840015 24.6517765,20.2888614 C24.6620707,20.7428083 24.4724405,21.2018557 24.0758426,21.4288291 C24.0758426,21.4288291 17.5639429,25.0597666 14.202071,26.5797235 C12.9494284,27.145882 11.5716298,27.1395063 10.322238,26.5637844 L0.570371512,21.4167153 C0.178649781,21.1916546 -0.00935497855,20.7377077 0.000397429704,20.2894989 C-0.00989677901,19.8349145 0.179733381,19.3758671 0.575789517,19.1488936 C0.575789517,19.1488936 1.42587444,18.6751822 2.66713929,18 L10.322238,22.0402547 C11.5716298,22.6159767 12.9494284,22.6223524 14.202071,22.0568315 C16.3508517,21.0845435 19.7853248,19.2515417 21.9850346,18.0548307 L24.0818024,19.1610074 Z"></path>
            </g>
            <g id="Library" transform="translate(5782.000000, 1.000000)" fill="url(#linearGradient-7)">
                <path d="M11.9184455,23.9583333 C6.48604269,23.9583333 2.08333333,19.6047802 2.08333333,14.7174924 C2.08333333,13.5825952 2.10984537,12.6613545 2.93856048,11.772609 C2.84876163,12.2876589 4.13331281,16.6915797 8.33076765,16.4608633 C8.14860427,13.1146634 7.19588123,4.91692044 11.6208265,2.08333333 C11.2299877,6.53843416 12.3785577,12.5232496 17.5022236,13.3973722 C17.2088807,11.610945 17.243945,8.63925304 18.5609948,8.09008306 C18.7029625,10.8269968 20.8333333,12.5151258 20.8333333,15.1456175 C20.8333333,19.9094233 15.9816297,23.9583333 11.9184455,23.9583333 L11.9184455,23.9583333 Z M19.2710337,5.43203125 C15.5817308,6.40859375 14.9061298,9.178125 15.1442308,10.9375 C12.5125,8.0640625 12.6201923,4.76015625 12.6201923,0 C4.17980769,2.95546875 6.14266827,11.475 5.88942308,14.0625 C3.76670673,12.4492187 3.36538462,8.59375 3.36538462,8.59375 C1.12403846,9.66484375 0,12.5242187 0,14.84375 C0,20.453125 4.89663462,25 10.9375,25 C16.9783654,25 21.875,20.453125 21.875,14.84375 C21.875,11.5101562 19.2390625,9.97265625 19.2710337,5.43203125 L19.2710337,5.43203125 Z" id="Fill-156"></path>
            </g>
            <g id="Message" transform="translate(5904.000000, 1.000000)" fill="url(#linearGradient-1)">
                <path d="M10.0613489,20.5878662 C10.8725628,20.7028671 12.7173697,20.8269231 13.5724329,20.8269231 C21.068592,20.8269231 26.1008326,15.9887383 26.1008326,10.3002717 C26.1008326,4.61180518 19.81262,0 13.5724329,0 C6.06687752,0 0,4.61180518 0,10.3002717 C0,13.5963587 1.44807419,16.393505 4.17613321,18.4082834 L4.17613321,23.5434783 L10.0613489,20.5878662 L10.0613489,20.5878662 Z M27.8368081,8.67391304 C27.8558701,8.9219451 27.8879744,9.16824267 27.8879744,9.42061095 C27.8879744,9.97217874 27.8257723,10.5124724 27.7364821,11.045828 C29.0868711,12.4126061 29.894496,14.0967958 29.894496,15.9249481 C29.894496,18.8163428 27.8960005,21.3547688 24.8781921,22.824749 L24.8781921,25.8982651 L21.454063,23.9252829 C20.6203533,24.0753162 19.7545393,24.1637752 18.8586274,24.1637752 C16.260182,24.1637752 14.8796951,23.4890586 12.9935648,22.3677109 C12.4467877,22.4058697 11.8949943,22.4292853 11.3341715,22.4292853 C10.9348737,22.4292853 10.543602,22.4050024 10.1503238,22.3850558 C12.5390877,24.4031348 14.9950701,25.6814539 18.8586274,25.6814539 C19.680298,25.6814539 20.4819033,25.6172778 21.261437,25.5071377 L26.8847137,28.5 L26.8847137,23.5818539 C29.9346264,21.7753826 31.9010176,18.9733141 31.9010176,15.8165425 C31.9010176,13.0031999 30.3349275,10.4708446 27.8368081,8.67391304 L27.8368081,8.67391304 Z M18.8506013,12.3913043 C19.6519935,12.3913043 20.3006475,11.837 20.3006475,11.1521739 C20.3006475,10.4681739 19.6519935,9.91304348 18.8506013,9.91304348 C18.0492091,9.91304348 17.400555,10.4681739 17.400555,11.1521739 C17.400555,11.837 18.0492091,12.3913043 18.8506013,12.3913043 L18.8506013,12.3913043 Z M7.25023127,12.3913043 C8.0516235,12.3913043 8.70027752,11.837 8.70027752,11.1521739 C8.70027752,10.4681739 8.0516235,9.91304348 7.25023127,9.91304348 C6.44883904,9.91304348 5.80018501,10.4681739 5.80018501,11.1521739 C5.80018501,11.837 6.44883904,12.3913043 7.25023127,12.3913043 L7.25023127,12.3913043 Z M13.0504163,12.3913043 C13.8518085,12.3913043 14.5004625,11.837 14.5004625,11.1521739 C14.5004625,10.4681739 13.8518085,9.91304348 13.0504163,9.91304348 C12.2490241,9.91304348 11.60037,10.4681739 11.60037,11.1521739 C11.60037,11.837 12.2490241,12.3913043 13.0504163,12.3913043 L13.0504163,12.3913043 Z" id="Fill-189"></path>
            </g>
            <g id="Proporties" transform="translate(6037.000000, 1.000000)" fill="url(#linearGradient-5)">
                <path d="M8.125,3.75 C7.0890625,3.75 6.25,4.58923734 6.25,5.62460929 C6.25,6.65998125 7.0890625,7.5 8.125,7.5 C9.1609375,7.5 10,6.65998125 10,5.62460929 C10,4.58923734 9.1609375,3.75 8.125,3.75 L8.125,3.75 Z M15.625,11.25 C14.5890625,11.25 13.75,12.0898438 13.75,13.125 C13.75,14.1601562 14.5890625,15 15.625,15 C16.6609375,15 17.5,14.1601562 17.5,13.125 C17.5,12.0898438 16.6609375,11.25 15.625,11.25 L15.625,11.25 Z M16.875,6.875 L9.91125,6.875 C9.633125,7.951875 8.66375,8.75 7.5,8.75 C6.33625,8.75 5.366875,7.951875 5.08875,6.875 L4.375,6.875 C4.03,6.875 3.75,6.595625 3.75,6.25 C3.75,5.905 4.03,5.625 4.375,5.625 L5.08875,5.625 C5.366875,4.548125 6.33625,3.75 7.5,3.75 C8.66375,3.75 9.633125,4.548125 9.91125,5.625 L16.875,5.625 C17.22,5.625 17.5,5.905 17.5,6.25 C17.5,6.595625 17.22,6.875 16.875,6.875 L16.875,6.875 Z M19.3181818,13.125 L17.8577273,13.125 C17.5543182,14.201875 16.4968182,15 15.2272727,15 C13.9577273,15 12.9002273,14.201875 12.5968182,13.125 L5.68181818,13.125 C5.30545455,13.125 5,12.845625 5,12.5 C5,12.155 5.30545455,11.875 5.68181818,11.875 L12.5968182,11.875 C12.9009091,10.798125 13.9577273,10 15.2272727,10 C16.4968182,10 17.5543182,10.798125 17.8577273,11.875 L19.3181818,11.875 C19.6945455,11.875 20,12.155 20,12.5 C20,12.845625 19.6945455,13.125 19.3181818,13.125 L19.3181818,13.125 Z M16.875,19.375 L9.91125,19.375 C9.633125,20.451875 8.66375,21.25 7.5,21.25 C6.33625,21.25 5.366875,20.451875 5.08875,19.375 L4.375,19.375 C4.03,19.375 3.75,19.095625 3.75,18.75 C3.75,18.404375 4.03,18.125 4.375,18.125 L5.08875,18.125 C5.366875,17.04875 6.33625,16.25 7.5,16.25 C8.66375,16.25 9.633125,17.04875 9.91125,18.125 L16.875,18.125 C17.22,18.125 17.5,18.404375 17.5,18.75 C17.5,19.095625 17.22,19.375 16.875,19.375 L16.875,19.375 Z M3.125,0 C1.39921875,0 0,1.39921875 0,3.125 L0,21.875 C0,23.6007812 1.39921875,25 3.125,25 L21.875,25 C23.6007813,25 25,23.6007812 25,21.875 L25,3.125 C25,1.39921875 23.6007813,0 21.875,0 L3.125,0 Z M8.125,17.5 C7.0890625,17.5 6.25,18.3392373 6.25,19.3746093 C6.25,20.4099812 7.0890625,21.25 8.125,21.25 C9.1609375,21.25 10,20.4099812 10,19.3746093 C10,18.3392373 9.1609375,17.5 8.125,17.5 L8.125,17.5 Z" id="Fill-170"></path>
            </g>
            <g id="Group-2" transform="translate(6162.000000, 1.000000)" fill="#9B9B9B">
                <path d="M8.62579509,3.77419347 L8.62579509,0 L0,6.06666654 L8.62579509,12.0215051 L8.62579509,8.2728758 C14.6328441,8.64691962 16.4168358,13 16.4168358,13 L16.9733382,13 C16.9733382,13 17.913652,3.77419347 8.62579509,3.77419347 L8.62579509,3.77419347 L8.62579509,3.77419347 Z" id="reply-path"></path>
            </g>
            <path d="M6287.3742,4.77419347 L6287.3742,1 L6296,7.06666654 L6287.3742,13.0215051 L6287.3742,9.2728758 C6281.36716,9.64691962 6279.58316,14 6279.58316,14 L6279.02666,14 C6279.02666,14 6278.08635,4.77419347 6287.3742,4.77419347 Z" id="reply-path" fill="#9B9B9B"></path>
            <path d="M6404.68302,7.756799 L6402.80894,7.756799 L6402.80894,9.63238512 C6402.80894,9.89496718 6402.59936,10.1012817 6402.34054,10.1012817 C6402.08219,10.1012817 6401.87214,9.89496718 6401.87214,9.63238512 L6401.87214,7.756799 L6399.999,7.756799 C6399.74065,7.756799 6399.5306,7.42388246 6399.5306,7.16130041 C6399.5306,6.90340731 6399.74065,6.81900594 6399.999,6.81900594 L6401.87214,6.81900594 L6401.87214,4.94341982 C6401.87214,4.68083776 6402.08219,4.47452329 6402.34054,4.47452329 C6402.59936,4.47452329 6402.80894,4.68083776 6402.80894,4.94341982 L6402.80894,6.81900594 L6404.68302,6.81900594 C6404.94137,6.81900594 6405.15142,7.03000938 6405.15142,7.28790247 C6405.15142,7.54579556 6404.94137,7.756799 6404.68302,7.756799 L6404.68302,7.756799 Z M6410.85758,15.18412 L6406.98518,11.3719912 C6407.99934,10.2700844 6408.622,8.81650516 6408.622,7.21287902 C6408.622,3.78055642 6405.79659,1 6402.311,1 C6398.82542,1 6396,3.78055642 6396,7.21287902 C6396,10.6405127 6398.82542,13.4210691 6402.311,13.4210691 C6403.81702,13.4210691 6405.19831,12.9005939 6406.28328,12.0331354 L6410.17162,15.859331 C6410.36105,16.0468897 6410.66816,16.0468897 6410.85758,15.859331 C6411.04747,15.6764614 6411.04747,15.3716786 6410.85758,15.18412 L6410.85758,15.18412 Z" id="Fill-18" fill="#9B9B9B"></path>
            <path d="M6519.76273,7.71928728 L6515.05245,7.71928728 C6514.79879,7.71928728 6514.59296,7.51766177 6514.59296,7.26914661 C6514.59296,7.02063145 6514.79879,6.81900594 6515.05245,6.81900594 L6519.76273,6.81900594 C6520.01639,6.81900594 6520.22222,7.02063145 6520.22222,7.26914661 C6520.22222,7.51766177 6520.01639,7.71928728 6519.76273,7.71928728 L6519.76273,7.71928728 Z M6525.85758,15.18412 L6521.98518,11.3719912 C6522.99934,10.2700844 6523.622,8.81650516 6523.622,7.21287902 C6523.622,3.78055642 6520.79659,1 6517.311,1 C6513.82542,1 6511,3.78055642 6511,7.21287902 C6511,10.6405127 6513.82542,13.4210691 6517.311,13.4210691 C6518.81702,13.4210691 6520.19831,12.9005939 6521.28328,12.0331354 L6525.17162,15.859331 C6525.36105,16.0468897 6525.66816,16.0468897 6525.85758,15.859331 C6526.04747,15.6764614 6526.04747,15.3716786 6525.85758,15.18412 L6525.85758,15.18412 Z" id="Fill-17" fill="#9B9B9B"></path>
            <path d="M6626,2.4991585 C6626,1.67119625 6626.67642,1 6627.51036,1 L6634.05486,1 C6634.88901,1 6635.56522,1.67115475 6635.56522,2.4991585 L6635.56522,19.5008415 C6635.56522,20.3288038 6634.8888,21 6634.05486,21 L6627.51036,21 C6626.67621,21 6626,20.3288453 6626,19.5008415 L6626,2.4991585 L6626,2.4991585 Z M6626.75515,3.75 L6634.81007,3.75 L6634.81007,18.25 L6626.75515,18.25 L6626.75515,3.75 L6626.75515,3.75 Z M6630.78261,20.25 C6631.19967,20.25 6631.53776,19.9142135 6631.53776,19.5 C6631.53776,19.0857865 6631.19967,18.75 6630.78261,18.75 C6630.36555,18.75 6630.02746,19.0857865 6630.02746,19.5 C6630.02746,19.9142135 6630.36555,20.25 6630.78261,20.25 L6630.78261,20.25 Z" id="use-as-wallpaper" fill="#929292"></path>
            <path d="M6748.97519,3.933 C6748.14944,2.19758333 6746.43044,1 6744.4375,1 C6741.76619,1 6739.58313,3.14783333 6739.39356,5.86791667 C6737.42987,6.44833333 6736,8.2275 6736,10.3333333 C6736,12.8183333 6737.99125,14.8570833 6740.5,15 L6748.9375,15 C6751.73088,15 6754,12.5190833 6754,9.45833333 C6754,6.509 6751.77756,4.10508333 6748.97519,3.933" id="Fill-84" fill="#9B9B9B"></path>
            <path d="M6854,6.66037736 L6859.45455,6.66037736 L6859.45455,8.19010334 L6855.45508,8.19010334 L6855.45508,19.7385914 L6867.75173,19.7385914 L6867.75173,8.19010334 L6863.54545,8.19010334 L6863.54545,6.66037736 L6869,6.66037736 L6869,21 L6854,21 L6854,6.66037736 Z M6859.25,4.39622642 C6859.25,4.39622642 6860.49981,3.13856 6861.12471,2.50972679 C6861.17501,2.45910453 6861.12471,13.1734668 6861.12471,13.1734668 L6861.88833,13.1734668 C6861.88833,13.1734668 6861.8317,2.46586189 6861.88833,2.52284377 L6863.75,4.39622642 L6864.3125,3.83018868 L6861.5,1 L6858.6875,3.83018868 L6859.25,4.39622642 Z" id="share" fill="#929292"></path>
            <path d="M6996,9 L6976,9 C6975.448,9 6975,9.448 6975,10 C6975,10.553 6975.448,11 6976,11 L6996,11 C6996.552,11 6997,10.553 6997,10 C6997,9.448 6996.552,9 6996,9 L6996,9 Z M6996,17 L6976,17 C6975.448,17 6975,17.448 6975,18 C6975,18.553 6975.448,19 6976,19 L6996,19 C6996.552,19 6997,18.553 6997,18 C6997,17.448 6996.552,17 6996,17 L6996,17 Z M6976,3 L6996,3 C6996.552,3 6997,2.553 6997,2 C6997,1.448 6996.552,1 6996,1 L6976,1 C6975.448,1 6975,1.448 6975,2 C6975,2.553 6975.448,3 6976,3 L6976,3 Z" id="Fill-120" fill="#FFFFFF"></path>
            <g id="Group-10" transform="translate(7097.000000, 1.000000)" fill="url(#linearGradient-20)">
                <path d="M0,13.2 C0,14.19405 0.83953125,15 1.875,15 L13.125,15 C14.1604688,15 15,14.19405 15,13.2 L15,6 L0,6 L0,13.2 L0,13.2 Z" id="Fill-206"></path>
                <path d="M6.5625,1.8 C6.5625,0.80595 5.72296875,0 4.6875,0 L1.875,0 C0.83953125,0 0,0.80595 0,1.8 L0,4.5 L15,4.5 L15,3.6 C15,2.60595 14.1604688,1.8 13.125,1.8 L6.5625,1.8 Z" id="Path"></path>
            </g>
            <path d="M7221.375,9.75 C7221.375,10.095 7221.095,10.375 7220.75,10.375 L7219.135,10.375 L7216.8325,8.0421875 L7219.5,5.3746875 L7221.375,7.2496875 L7221.375,9.75 L7221.375,9.75 Z M7213.25,10.375 C7212.905,10.375 7212.625,10.095 7212.625,9.75 L7212.625,9.4565625 L7215.10781,7.2328125 L7218.25031,10.375 L7213.25,10.375 L7213.25,10.375 Z M7214.5,2.25 C7215.19031,2.25 7215.75,2.8096875 7215.75,3.5 C7215.75,4.1903125 7215.19031,4.75 7214.5,4.75 C7213.80969,4.75 7213.25,4.1903125 7213.25,3.5 C7213.25,2.8096875 7213.80969,2.25 7214.5,2.25 L7214.5,2.25 Z M7220.75,1 L7213.25,1 C7212.55969,1 7212,1.5596875 7212,2.25 L7212,9.75 C7212,10.4403125 7212.55969,11 7213.25,11 L7220.75,11 C7221.44031,11 7222,10.4403125 7222,9.75 L7222,2.25 C7222,1.5596875 7221.44031,1 7220.75,1 L7220.75,1 Z M7214.5,4.125 C7214.845,4.125 7215.125,3.845 7215.125,3.5 C7215.125,3.155 7214.845,2.875 7214.5,2.875 C7214.155,2.875 7213.875,3.155 7213.875,3.5 C7213.875,3.845 7214.155,4.125 7214.5,4.125 L7214.5,4.125 Z" id="Fill-216" fill="url(#linearGradient-4)"></path>
            <g id="Drive" transform="translate(7322.000000, 1.000000)">
                <circle id="Combined-Shape" fill="url(#linearGradient-1)" cx="7.5" cy="7.5" r="5.1"></circle>
                <path d="M6,14.8499728 C2.57663952,14.1550673 0,11.1284369 0,7.5 C0,6.59353143 0.160812581,5.72462265 0.455464995,4.92024641 C0.608497982,5.02430541 0.780048671,5.13912459 0.970117061,5.26470394 C0.730201288,5.96573462 0.6,6.71766224 0.6,7.5 C0.6,10.7956305 2.91048806,13.5516176 6,14.2364972 L6,14.8499728 Z M9,14.8499728 L9,14.2364972 C12.0895119,13.5516176 14.4,10.7956305 14.4,7.5 C14.4,6.78376746 14.2908724,6.09302305 14.0883371,5.4434868 L14.6022421,5.08364666 C14.8601202,5.8418394 15,6.65458436 15,7.5 C15,11.1284369 12.4233605,14.1550673 9,14.8499728 Z M2.25897477,2.1351419 C3.61100307,0.814129012 5.46042653,0 7.5,0 C9.62299811,0 11.5399727,0.882091701 12.9044137,2.29976511 L12.406399,2.64847875 C11.1556438,1.38366448 9.41933921,0.6 7.5,0.6 C5.66430966,0.6 3.99604755,1.31684546 2.75987443,2.48587562 L2.25897477,2.1351419 Z" id="Combined-Shape" fill="url(#linearGradient-6)"></path>
            </g>
            <path d="M7441.60587,6.80500719 L7437.2545,4.50421509 C7437.07971,4.40361066 7436.99583,4.20069179 7437.00018,4.00005292 C7436.99558,3.79713406 7437.0802,3.59193521 7437.25692,3.49047577 C7437.25692,3.49047577 7440.16283,1.86740987 7441.66292,1.18797368 C7442.22186,0.934895101 7442.83664,0.937460087 7443.39413,1.19509864 L7447.7455,3.49589074 C7447.92029,3.59649518 7448.00417,3.79941404 7447.99982,3.99976792 C7448.00442,4.20297178 7447.9198,4.40817063 7447.74284,4.50963006 C7447.74284,4.50963006 7444.83717,6.13269596 7443.33708,6.81213215 C7442.77814,7.06521073 7442.16336,7.06236075 7441.60587,6.80500719 Z M7447.7455,6.51600329 C7447.92029,6.61603028 7448.00417,6.81778445 7447.99982,7.01727172 C7448.00442,7.21902589 7447.9198,7.42304696 7447.74284,7.52392404 C7447.74284,7.52392404 7444.83717,9.13767403 7443.33708,9.81321046 C7442.77814,10.0648364 7442.16336,10.0620028 7441.60587,9.80612639 L7437.2545,7.51854015 C7437.07971,7.41851316 7436.99583,7.21675899 7437.00018,7.01755508 C7436.99558,6.81551755 7437.0802,6.61149648 7437.25692,6.5106194 C7437.25692,6.5106194 7437.63624,6.30008099 7438.1901,6 L7441.60587,7.79566877 C7442.16336,8.0515452 7442.77814,8.05437882 7443.33708,7.80275284 C7444.29588,7.37090824 7445.82837,6.55624078 7446.8099,6.02436918 L7447.7455,6.51600329 Z M7447.7455,9.51600329 C7447.92029,9.61603028 7448.00417,9.81778445 7447.99982,10.0172717 C7448.00442,10.2190259 7447.9198,10.423047 7447.74284,10.523924 C7447.74284,10.523924 7444.83717,12.137674 7443.33708,12.8132105 C7442.77814,13.0648364 7442.16336,13.0620028 7441.60587,12.8061264 L7437.2545,10.5185402 C7437.07971,10.4185132 7436.99583,10.216759 7437.00018,10.0175551 C7436.99558,9.81551755 7437.0802,9.61149648 7437.25692,9.5106194 C7437.25692,9.5106194 7437.63624,9.30008099 7438.1901,9 L7441.60587,10.7956688 C7442.16336,11.0515452 7442.77814,11.0543788 7443.33708,10.8030362 C7444.29588,10.3709082 7445.82837,9.55624078 7446.8099,9.02436918 L7447.7455,9.51600329 Z" id="Layers" fill="url(#linearGradient-19)"></path>
            <path d="M7644.14442,13.4385043 L7642.02254,15.5 L7639.86017,13.4053177 C7640.37786,12.8314341 7641.13901,12.4689119 7641.98756,12.4689119 C7642.85236,12.4689119 7643.62637,12.8454456 7644.14442,13.4385043 Z M7646.3235,11.3214425 L7645.23462,12.3793293 C7644.43563,11.518235 7643.27688,10.9766839 7641.98756,10.9766839 C7640.71365,10.9766839 7639.5672,11.5053708 7638.7693,12.3486 L7637.67927,11.2926936 C7638.75663,10.1797589 7640.28827,9.48445596 7641.98756,9.48445596 C7643.70144,9.48445596 7645.24478,10.1917456 7646.3235,11.3214425 Z M7648.5,9.20687933 L7647.41187,10.2640427 C7646.05388,8.86552609 7644.126,7.99222798 7641.98756,7.99222798 C7639.86289,7.99222798 7637.94608,8.85431655 7636.58956,10.2370944 L7635.5,9.18164431 C7637.13555,7.52895605 7639.43751,6.5 7641.98756,6.5 C7644.55057,6.5 7646.86296,7.53943672 7648.5,9.20687933 Z" id="Wi-Fi" fill="#030303"></path>
            <text id="Carrier" font-family=".AppleSystemUIFont" font-size="12" font-weight="normal" fill="#030303">
                <tspan x="7592" y="16.5">Sketch</tspan>
            </text>
            <path d="M7557.25,14 C7555.73122,14 7554.5,12.7687831 7554.5,11.25 C7554.5,9.73121694 7555.73122,8.5 7557.25,8.5 C7558.76878,8.5 7560,9.73121694 7560,11.25 C7560,12.7687831 7558.76878,14 7557.25,14 Z M7564.25,14 C7562.73122,14 7561.5,12.7687831 7561.5,11.25 C7561.5,9.73121694 7562.73122,8.5 7564.25,8.5 C7565.76878,8.5 7567,9.73121694 7567,11.25 C7567,12.7687831 7565.76878,14 7564.25,14 Z M7571.25,14 C7569.73122,14 7568.5,12.7687831 7568.5,11.25 C7568.5,9.73121694 7569.73122,8.5 7571.25,8.5 C7572.76878,8.5 7574,9.73121694 7574,11.25 C7574,12.7687831 7572.76878,14 7571.25,14 Z M7578.25,14 C7576.73122,14 7575.5,12.7687831 7575.5,11.25 C7575.5,9.73121694 7576.73122,8.5 7578.25,8.5 C7579.76878,8.5 7581,9.73121694 7581,11.25 C7581,12.7687831 7579.76878,14 7578.25,14 Z M7585.25,14 C7583.73122,14 7582.5,12.7687831 7582.5,11.25 C7582.5,9.73121694 7583.73122,8.5 7585.25,8.5 C7586.76878,8.5 7588,9.73121694 7588,11.25 C7588,12.7687831 7586.76878,14 7585.25,14 Z" id="Mobile-Signal" fill="#030303"></path>
            <g id="Pin-Right" transform="translate(8097.000000, 4.000000)" fill="#030303">
                <path d="M37.4937128,2.5 L57.0062872,2.5 C57.8266197,2.5 58.5,3.17394722 58.5,4.00530324 L58.5,10.4946968 C58.5,11.3319784 57.831242,12 57.0062872,12 L37.4937128,12 C36.6733803,12 36,11.3260528 36,10.4946968 L36,4.00530324 C36,3.16802155 36.668758,2.5 37.4937128,2.5 Z M59,5.5 L59.75,5.5 C60.1671014,5.5 60.5,5.83232111 60.5,6.24225998 L60.5,8.25774002 C60.5,8.66440529 60.1642136,9 59.75,9 L59,9 L59,5.5 Z M37.5081524,3 C36.9513652,3 36.5,3.45699692 36.5,4.00844055 L36.5,10.4915594 C36.5,11.0485058 36.9490581,11.5 37.5081524,11.5 L56.9918476,11.5 C57.5486348,11.5 58,11.0430031 58,10.4915594 L58,4.00844055 C58,3.45149422 57.5509419,3 56.9918476,3 L37.5081524,3 Z M37.5067444,3.5 L56.9932556,3.5 C57.2697754,3.5 57.5,3.72031886 57.5,3.99209595 L57.5,10.5079041 C57.5,10.783628 57.2731228,11 56.9932556,11 L37.5067444,11 C37.2302246,11 37,10.7796811 37,10.5079041 L37,3.99209595 C37,3.71637201 37.2268772,3.5 37.5067444,3.5 Z" id="Battery"></path>
                <text id="100%" font-family=".AppleSystemUIFont" font-size="12" font-weight="normal">
                    <tspan x="2.85351562" y="12.5">100%</tspan>
                </text>
            </g>
            <text id="Time" font-family=".AppleSystemUIFont" font-size="12" font-weight="normal" fill="#030303">
                <tspan x="7952.25586" y="16.5">9:41 AM</tspan>
            </text>
            <g id="Overrides/Status-Bar/Signal---Black" transform="translate(7788.000000, 1.000000)"></g>
        </g>
    </g>
</svg>