<?xml version="1.0" encoding="utf-8"?>
<!-- Generator: Adobe Illustrator 21.1.0, SVG Export Plug-In . SVG Version: 6.00 Build 0)  -->
<svg version="1.1" id="Layer_1" xmlns="http://www.w3.org/2000/svg" xmlns:xlink="http://www.w3.org/1999/xlink" x="0px" y="0px"
	 viewBox="0 0 220 48" style="enable-background:new 0 0 220 48;" xml:space="preserve">
<style type="text/css">
	.st0{opacity:0.79;}
	.st1{opacity:0.79;enable-background:new    ;}
</style>
<title>evernote</title>
<g id="Layer_2">
	<g class="st0">
		<path d="M42.7,8.7c0-3.1-4.6-3.4-4.6-3.4L27.4,4.6c0,0-0.2-3-2.4-4s-6.7-0.4-8.4-0.4s-2.1,2.2-2.1,4.3s0,3,0,4.6s-0.8,2.2-2,2.2
			h-6c-1.7-0.1-3,0.2-3,1.6s2,16.1,4.7,18.9c1.6,1.6,11.3,2.8,13.4,2.8s1.4-6.2,1.9-6.2s1.2,3.5,4.4,4.3s7.5,0.7,7.8,3
			c0.3,3.1,0.6,7.1-1.4,7.3l-4.5,0.2c-3.1-0.2-2.3-3.7-0.9-3.7s2,0,2,0l0.2-3.8c0,0-7.1-0.8-7.4,4c-0.3,4.4,0.5,6.5,1,7
			S26.2,48,34.9,48C47.1,48,42.7,11.8,42.7,8.7z M36.7,23.5c-0.3,0.3-1.6-0.8-2.7-0.8s-2,0.9-2.2,0.5s0.2-2.9,2.2-2.9
			S37,23.2,36.7,23.5z"/>
		<path d="M13.2,9c0-0.6,0.1-7.2,0.1-7.2L5,10.3h6.9C13,10.3,13.2,9.6,13.2,9z"/>
	</g>
</g>
<g id="Layer_4">
	<path class="st1" d="M49.9,30h2.2l0.1-15.5h-2.5v-2.4h15.2l0.2,5.3h-2.9l-0.2-3h-6.3l-0.1,6.3h6.2v2.5h-6.2L55.5,30h6.6l0.3-3.3
		h2.9L65,32.4H49.9V30z"/>
	<path class="st1" d="M50.2,30.3h2.2l0.1-16.1H50v-1.9h14.6l0.1,4.8h-2.3l-0.2-3h-6.8L55.3,21h6.2v2h-6.1l-0.1,7.3h7.1l0.3-3.3H65
		l-0.2,5.2H50.2V30.3z"/>
	<polygon class="st1" points="50.5,31.9 50.5,30.5 52.6,30.5 52.8,13.9 50.3,13.9 50.3,12.6 64.4,12.6 64.5,16.9 62.6,16.9 
		62.4,13.9 55.1,13.9 55.1,21.3 61.2,21.3 61.2,22.8 55.1,22.8 55,30.5 62.6,30.5 62.9,27.2 64.7,27.2 64.5,31.9 	"/>
	<polygon class="st1" points="54.8,21.5 61,21.5 61,22.5 54.8,22.5 54.8,30.8 62.9,30.8 63.1,27.5 64.4,27.5 64.3,31.6 50.7,31.6 
		50.7,30.8 52.9,30.8 53,13.7 50.5,13.7 50.5,12.9 64.1,12.9 64.2,16.6 62.9,16.6 62.7,13.7 54.9,13.7 	"/>
	<polygon class="st1" points="51,31.4 51,31.1 53.1,31.1 53.3,13.4 50.8,13.4 50.8,13.1 63.8,13.1 63.9,16.4 63.1,16.4 62.9,13.4 
		54.6,13.4 54.5,21.8 60.7,21.8 60.7,22.2 54.6,22.2 54.5,31.1 63.1,31.1 63.4,27.8 64.2,27.8 64,31.4 	"/>
	<path class="st1" d="M66.9,12.1H75v2.4h-2.2l2.6,6.7l2.6,6.7c0.1,0.3,0.2,0.6,0.3,0.9c0.1,0.3,0.2,0.6,0.2,0.9h0.1
		c0.1-0.3,0.2-0.6,0.2-0.9c0.1-0.3,0.2-0.6,0.3-0.9l2.5-6.7l2.5-6.7h-2.5v-2.4h7.9v2.4h-1.9l-3.7,9l-3.7,9h-3.8l-3.7-9l-3.7-9h-1.9
		V12.1z"/>
	<path class="st1" d="M67.2,12.3h7.1l0.5,0.7l-1.2,1.2l-0.7,1l2,5.1l0.6,1.5l2.1,5.6c0,0.1,0.3,0.8,0.3,0.9s0.2,0.6,0.3,0.9l0.1,0.4
		c0,0.1,0.3,0.2,0.3,0.3h0.2l0.1-0.4l0.1-0.5l0.1-0.5c0-0.1,0.1-0.3,0.1-0.4l0.1-0.4l2.4-6.3l0.3-0.9l2.2-5.8l-0.5-0.7h-1l-0.9-0.9
		v-0.6l0.4-0.4h7v1.4l-0.4,0.5h-0.9l-0.7,0.4l-3.5,8.6L80,31.9l-0.3,0.2h-3.2l-3.7-9l-3.6-8.6l-0.6-0.4h-0.9l-0.4-0.5L67.2,12.3z"/>
	<path class="st1" d="M76.6,31.9l-3.7-9l-3.7-9h-1.7v-1.3h7v1.3H72l2.7,7.1l2.7,7.1c0.1,0.3,0.2,0.5,0.2,0.8
		c0.1,0.3,0.2,0.6,0.2,0.9l0.1,0.4h0.9l0.1-0.4c0.1-0.3,0.2-0.6,0.2-0.9c0.1-0.3,0.1-0.5,0.2-0.8l2.7-7.1l2.7-7.1H82v-1.3h6.8v1.3
		h-1.7l-3.7,9l-3.7,9L76.6,31.9z"/>
	<path class="st1" d="M67.7,13.7v-0.8h6.5v0.8h-2.5l5.6,14.5c0.1,0.3,0.2,0.5,0.2,0.8c0.1,0.3,0.2,0.6,0.2,0.9l0.2,0.6h1.3l0.2-0.6
		c0.1-0.3,0.2-0.6,0.2-0.9c0.1-0.3,0.1-0.5,0.2-0.8l5.4-14.5h-2.8v-0.8h6.3v0.8H87l-7.4,18h-2.8l-7.5-17.9H67.7z"/>
	<path class="st1" d="M77,31.4l-7.5-17.9H68v-0.3h6v0.3h-2.8L77,28.3c0.1,0.2,0.2,0.5,0.2,0.7c0.1,0.3,0.2,0.6,0.2,1l0.2,0.8h1.7
		l0.2-0.8c0.1-0.3,0.2-0.6,0.2-1c0.1-0.3,0.1-0.5,0.2-0.7l5.6-14.9h-3v-0.3h5.8v0.3h-1.6l-7.4,18H77z"/>
	<path class="st1" d="M91,30h2.2l0.1-15.5h-2.5v-2.4h15.1l0.1,5.3h-2.9l-0.2-2.9h-6.3l-0.1,6.3h6.2v2.5h-6.2L96.6,30h6.6l0.3-3.3
		h2.9l-0.3,5.7H91V30z"/>
	<path class="st1" d="M91.3,30.3h2.2l0.1-16.1H91v-1.9h14.6l0.1,4.8h-2.3l-0.2-3h-6.8L96.4,21h6.2v2h-6.2l-0.1,7.3h7.1l0.3-3.3h2.3
		l-0.2,5.2H91.3V30.3z"/>
	<polygon class="st1" points="91.5,31.9 91.5,30.5 93.7,30.5 93.8,13.9 91.3,13.9 91.3,12.6 105.4,12.6 105.5,16.9 103.7,16.9 
		103.5,13.9 96.2,13.9 96.1,21.3 102.3,21.3 102.3,22.8 96.1,22.8 96.1,30.5 103.7,30.5 103.9,27.2 105.8,27.2 105.6,31.9 	"/>
	<polygon class="st1" points="91.6,13.7 91.6,12.9 105.2,12.9 105.3,16.6 103.9,16.6 103.8,13.7 95.9,13.7 95.9,21.5 102,21.5 
		102,22.5 95.9,22.5 95.8,30.8 103.9,30.8 104.2,27.5 105.5,27.5 105.3,31.6 91.8,31.6 91.8,30.8 93.9,30.8 94.1,13.7 	"/>
	<polygon class="st1" points="92.1,31.4 92.1,31.1 94.2,31.1 94.3,13.4 91.8,13.4 91.8,13.1 104.9,13.1 105,16.4 104.2,16.4 
		104,13.4 95.7,13.4 95.6,21.8 101.8,21.8 101.8,22.2 95.6,22.2 95.5,31.1 104.2,31.1 104.4,27.8 105.2,27.8 105.1,31.4 	"/>
	<path class="st1" d="M117.4,21.2h-2.7l0.1-6.7h2.9c1-0.1,2.1,0.2,2.9,0.9c0.7,0.6,1.1,1.5,1,2.5c0.1,1-0.4,1.9-1.1,2.5
		C119.5,21,118.4,21.3,117.4,21.2z M127,30c-0.3,0-0.7-0.1-1-0.3c-0.4-0.3-0.7-0.6-0.9-1l-2.3-3.7c-0.3-0.5-0.7-1.1-1.2-1.5
		c-0.4-0.4-1-0.7-1.5-0.7v-0.1c0.7-0.1,1.4-0.2,2-0.5c0.6-0.2,1.2-0.6,1.7-1c0.5-0.5,0.9-1,1.1-1.6c0.3-0.7,0.4-1.4,0.4-2.2
		c0-0.7-0.1-1.4-0.4-2.1c-0.3-0.7-0.7-1.2-1.2-1.7c-0.6-0.5-1.3-0.9-2-1.1c-0.9-0.3-1.9-0.4-2.9-0.4H109v2.4h2.3l-0.1,15.6H109v2.3
		h8.1V30h-2.5l0.1-6.3h1.8c0.2,0,0.4,0,0.7,0.1c0.2,0.1,0.4,0.2,0.6,0.3c0.2,0.2,0.4,0.3,0.5,0.5c0.2,0.3,0.4,0.6,0.6,0.9l3,4.7
		c0.2,0.4,0.5,0.8,0.9,1.2c0.2,0.3,0.5,0.5,0.9,0.6c0.3,0.2,0.7,0.2,1,0.3c0.4,0,0.8,0.1,1.2,0.1h2V30H127z"/>
	<path class="st1" d="M117.4,21.5h-3l0.1-7.3h3.1c1.1-0.1,2.2,0.3,3.1,0.9c0.8,0.7,1.2,1.7,1.1,2.7c0,1-0.4,2-1.2,2.7
		C119.6,21.2,118.5,21.5,117.4,21.5z M109.3,12.4v1.3l0.5,0.5h1.2l0.5,0.5l-0.1,15.2l-0.5,0.4h-1.2l-0.5,0.5v1.3h7.5v-1.4l-0.6-0.5
		h-1.4l-0.6-0.6l0.1-6.2h1.8c0.2,0,0.4,0,0.6,0c0.2,0,0.4,0.1,0.6,0.2l0.1,0.1c0.2,0.1,0.4,0.2,0.5,0.4l0.1,0.1
		c0.2,0.2,0.4,0.4,0.6,0.7c0.1,0.1,0.5,0.7,0.6,0.9l2.4,3.8c0.1,0.2,0.5,0.8,0.6,0.9l0.2,0.3c0.2,0.3,0.4,0.5,0.7,0.7l0.1,0.1
		c0.2,0.1,0.4,0.3,0.7,0.3l0.2,0.1c0.2,0,0.4,0.1,0.6,0.1h0.6h2v-1.3l-0.1-0.1c-0.1,0-0.3-0.4-0.4-0.5s-0.4-0.1-0.5-0.1
		s-0.2,0-0.3-0.1c-0.3-0.1-0.6-0.3-0.8-0.5c-0.1-0.1-0.2-0.2-0.2-0.3c-0.2-0.3-0.4-0.5-0.6-0.8l-1.8-2.9c-0.1-0.1-0.5-0.7-0.6-0.8
		s-0.3-0.4-0.5-0.6c-0.2-0.3-0.5-0.5-0.8-0.7l-0.2-0.1c-0.2-0.1-0.3-0.1-0.5-0.1c-0.1-0.1-0.3-0.6-0.5-0.6v-0.1l0.5,0
		c0.5-0.1,1-0.2,1.5-0.3l0.3-0.1c0.5-0.2,0.9-0.5,1.3-0.8l0.1-0.1c0.4-0.4,0.8-0.9,1-1.5c0.3-0.7,0.4-1.4,0.4-2.2
		c0-0.7-0.1-1.4-0.4-2c-0.2-0.6-0.6-1.2-1.1-1.6c-0.6-0.5-1.2-0.9-1.9-1.1c-0.9-0.3-1.9-0.4-2.8-0.4L109.3,12.4z"/>
	<path class="st1" d="M117.4,21.7h-3.2l0.1-7.8h3.4c1.2-0.1,2.3,0.3,3.2,1c0.8,0.7,1.2,1.8,1.2,2.9c0.1,1.1-0.4,2.2-1.3,2.9
		C119.7,21.4,118.5,21.8,117.4,21.7z M127,30.5c-0.4,0-0.9-0.1-1.2-0.3c-0.5-0.3-0.9-0.7-1.1-1.2l-2.3-3.7c-0.3-0.5-0.7-1-1.1-1.4
		c-0.3-0.3-0.7-0.5-1.2-0.5h-0.5v-1h0.5c0.6-0.1,1.2-0.2,1.8-0.4c0.5-0.2,1-0.5,1.5-0.9c0.4-0.4,0.8-0.9,1-1.5
		c0.3-0.7,0.4-1.4,0.4-2.1c0-0.6-0.1-1.3-0.4-1.9c-0.2-0.6-0.6-1.1-1.1-1.5c-0.5-0.5-1.2-0.8-1.8-1c-0.9-0.3-1.8-0.4-2.7-0.4h-9V14
		h2.3l-0.2,16.5h-2.1v1.3h7v-1.3H114l0.1-7.3h2.4c0.3,0,0.5,0,0.8,0.1c0.3,0.1,0.5,0.2,0.8,0.4c0.2,0.2,0.5,0.4,0.6,0.6
		c0.2,0.3,0.4,0.6,0.6,0.9l3,4.7c0.2,0.4,0.5,0.8,0.8,1.1c0.2,0.2,0.5,0.4,0.7,0.5c0.3,0.1,0.5,0.2,0.8,0.2c0.4,0,0.8,0.1,1.1,0h1.5
		v-1.3H127z"/>
	<path class="st1" d="M113.9,13.7h3.7c1.2-0.1,2.5,0.3,3.4,1.1c0.9,0.8,1.3,1.9,1.3,3.1c0.1,1.2-0.5,2.4-1.5,3.1
		c-0.6,0.4-1.3,0.7-2,0.9c-0.5,0.1-1,0.2-1.5,0.1h-3.5L113.9,13.7z M109.8,12.9v0.3l0.5,0.5h1.3l0.5,0.5l-0.1,16.3l-0.5,0.4h-1.2
		l-0.5,0.5v0.3h6.5v-0.3l-0.6-0.5h-1.4l-0.6-0.5l0.1-7.3h2.4h0.5h0.3c0.2,0,0.4,0.1,0.6,0.2l0.2,0.1c0.3,0.1,0.5,0.3,0.7,0.5
		c0.2,0.2,0.3,0.3,0.4,0.5c0.1,0.1,0.2,0.3,0.3,0.4s0.5,0.8,0.7,1l2.4,3.8c0.1,0.2,0.5,0.8,0.6,0.9l0.2,0.2c0.2,0.2,0.4,0.5,0.6,0.6
		l0,0c0.2,0.1,0.4,0.2,0.6,0.3h0.1c0.2,0.1,0.4,0.1,0.6,0.1h0.6h1.6v-0.3c-0.2,0-0.3-0.6-0.5-0.6s-0.2,0-0.3-0.1
		c-0.4-0.1-0.8-0.3-1.1-0.5c-0.2-0.1-0.3-0.3-0.5-0.5c-0.2-0.2-0.4-0.5-0.5-0.7l-1.9-3c-0.1-0.1-0.3-0.5-0.4-0.6
		c-0.2-0.3-0.4-0.6-0.7-0.8c-0.2-0.2-0.4-0.3-0.6-0.4c-0.3-0.1-0.5-0.2-0.8-0.3c-0.1,0-0.2-0.2-0.3-0.2l-0.3-0.2l0,0v-0.8
		c0,0,0-0.1,0.1-0.1s0.4-0.1,0.4-0.1c0.6-0.1,1.2-0.3,1.8-0.5l0.3-0.1c0.4-0.2,0.8-0.4,1.2-0.7l0.1-0.1c0.4-0.4,0.7-0.8,0.9-1.3
		c0.3-0.6,0.4-1.3,0.3-2c0-0.6-0.1-1.2-0.3-1.8c-0.2-0.5-0.6-1-1-1.4l0,0c-0.5-0.4-1.1-0.7-1.7-0.9h-0.1c-0.8-0.3-1.7-0.4-2.6-0.4
		L109.8,12.9z"/>
	<path class="st1" d="M117.4,22.3h-3.8l0.1-8.8h3.9c1.3-0.1,2.6,0.3,3.6,1.1c0.9,0.8,1.4,2,1.4,3.3c0.1,1.3-0.5,2.6-1.5,3.4
		c-0.7,0.4-1.4,0.7-2.1,0.9C118.4,22.2,117.9,22.3,117.4,22.3z M125.5,30.7c-0.5-0.3-1-0.8-1.3-1.3l-2.3-3.7
		c-0.3-0.5-0.7-0.9-1.1-1.3c-0.5-0.2-1-0.4-1.5-0.5l-0.3-0.8v-0.8l2.6-0.9c0.5-0.2,0.9-0.5,1.3-0.8c0.4-0.4,0.7-0.8,0.9-1.3
		c0.2-0.6,0.3-1.2,0.3-1.8c0-0.6-0.1-1.2-0.3-1.7c-0.2-0.5-0.5-1-0.9-1.3c-0.5-0.4-1-0.7-1.7-0.9c-0.8-0.3-1.7-0.4-2.6-0.4h-8.5v0.3
		h2.3l-0.1,17.7h-2.1v0.3h6v-0.3h-2.5l0.1-8.4h2.9c0.3,0,0.6,0,0.9,0.1c0.3,0.1,0.7,0.2,0.9,0.5c0.2,0.1,0.3,0.3,0.5,0.4l0.3,0.3
		c0.2,0.3,0.5,0.7,0.7,1l3,4.7c0.2,0.4,0.5,0.7,0.7,1c0.2,0.2,0.4,0.3,0.6,0.4c0.2,0.1,0.4,0.2,0.6,0.2c0.4,0,0.7,0.1,1.1,0h0.9
		v-0.3C126.3,31.1,125.9,30.9,125.5,30.7z"/>
	<path class="st1" d="M129.1,30h2.1l0.1-15.5h-2.7v-2.4h5.7l10,12.3l0.5,0.7l0.6,0.8l0.6,0.8c0.2,0.3,0.3,0.5,0.5,0.7h0.1l-0.1-12.9
		h-2.4v-2.4h7.5v2.4h-2.1l-0.1,17.9h-2.8l-10.8-13.2c-0.3-0.4-0.6-0.8-0.9-1.1s-0.5-0.7-0.6-1l-0.1,0.1l0.1,12.9h2.4v2.4h-7.5
		L129.1,30z"/>
	<path class="st1" d="M128.9,12.3h5l0.4,0.2l9.8,12l0.5,0.7l0.6,0.8l0.6,0.8c0.2,0.3,0.3,0.5,0.5,0.7l0.1,0.1l0.4-0.4l-0.1-12l-1-1
		h-0.3l-1-1v-0.3l0.5-0.5h6.5v1.3l-0.5,0.5h-1.2l-0.5,0.4l-0.1,17.5h-2l-0.6-0.3L136,19.3l-0.4-0.5l-0.5-0.6l-0.4-0.5l-0.3-0.4
		c-0.1-0.1-0.3-0.5-0.3-0.6h-0.1l-0.3,0.8l0.1,11.9l1,0.9h0.4l1,1v0.4l-0.5,0.5h-6.5v-1.3l0.5-0.5h1.1l0.5-0.4l0.1-15.3l-0.4-0.4
		h-1.8l-0.5-0.5L128.9,12.3z"/>
	<path class="st1" d="M146.7,31.9l-10.6-13c-0.3-0.4-0.6-0.8-0.8-1.1s-0.5-0.7-0.6-1l-0.3-0.6l-0.7,0.7l0.2,13.6h2.3v1.3h-6.4v-1.3
		h2.1l0.1-16.6h-2.7v-1.3h4.9l9.8,12.1l0.5,0.7l0.6,0.8l0.6,0.8c0.2,0.3,0.3,0.5,0.5,0.7l0.1,0.3h0.9l-0.1-14h-2.4v-1.3h6.5v1.3
		h-2.1l-0.1,17.9L146.7,31.9z"/>
	<path class="st1" d="M135.8,30.8v0.8h-5.9v-0.8h2.1l0.1-17.1h-2.7v-0.8h4.5l9.7,12l0.5,0.7l0.6,0.8l0.6,0.8
		c0.2,0.2,0.3,0.5,0.5,0.7l0.2,0.4h1.3l-0.1-14.5h-2.4v-0.8h5.9v0.8h-2.1l-0.1,17.9h-1.6l-10.6-12.9c-0.3-0.4-0.6-0.7-0.8-1.1
		s-0.4-0.7-0.6-0.9l-0.5-0.9l-1,1l0.1,14H135.8z"/>
	<path class="st1" d="M146.9,31.4l-10.5-12.8c-0.3-0.4-0.6-0.7-0.8-1.1s-0.4-0.6-0.6-0.9l-0.7-1.2l-1.4,1.3l0.1,14.4h2.4v0.3h-5.4
		v-0.3h2.1l0.1-17.7h-2.7v-0.3h4.1l9.7,11.9l0.5,0.7l0.6,0.8l0.6,0.8c0.2,0.2,0.3,0.5,0.5,0.7l0.3,0.5h1.7l-0.1-15.1H145v-0.3h5.4
		v0.3h-2.1l-0.1,17.9L146.9,31.4z"/>
	<path class="st1" d="M157.4,22.4c0,1,0.1,1.9,0.4,2.8c0.2,0.9,0.6,1.7,1.2,2.4c0.5,0.7,1.2,1.3,2,1.7c0.9,0.4,1.9,0.6,2.9,0.6
		c1.2,0.1,2.4-0.2,3.4-0.9c0.8-0.5,1.5-1.2,2-2.1c0.5-0.8,0.8-1.7,1-2.6c0.1-0.8,0.2-1.6,0.2-2.4c0-0.9-0.1-1.8-0.3-2.7
		c-0.2-0.9-0.5-1.7-1-2.4c-0.5-0.7-1.2-1.4-2-1.8c-1-0.5-2.1-0.7-3.1-0.7c-0.9,0-1.8,0.1-2.6,0.4c-0.8,0.3-1.6,0.8-2.2,1.4
		c-0.7,0.7-1.2,1.6-1.5,2.5C157.4,20,157.3,21.2,157.4,22.4z M153.5,22.6c0-1.5,0.2-3,0.8-4.4c0.5-1.3,1.2-2.5,2.2-3.4
		c1-1,2.1-1.8,3.4-2.3c1.4-0.5,3-0.8,4.5-0.8c1.4,0,2.8,0.2,4.2,0.7c1.2,0.4,2.2,1.1,3.1,2c0.9,0.9,1.6,2,2,3.2
		c0.5,1.4,0.7,2.8,0.7,4.2c0,1.4-0.2,2.7-0.6,4c-0.4,1.3-1.1,2.5-1.9,3.5c-0.9,1-2,1.9-3.3,2.5c-1.5,0.7-3.1,1-4.7,0.9
		c-1.5,0-2.9-0.2-4.3-0.7c-1.2-0.4-2.3-1.1-3.2-2c-0.9-0.9-1.6-2-2-3.2C153.8,25.5,153.6,24,153.5,22.6L153.5,22.6z"/>
	<path class="st1" d="M157.1,22.4c0,1,0.1,2,0.4,2.9c0.3,0.9,0.7,1.8,1.3,2.5c0.6,0.7,1.3,1.3,2.1,1.8c0.9,0.4,2,0.7,3,0.6
		c1.3,0.1,2.5-0.3,3.6-0.9c0.9-0.6,1.6-1.3,2.1-2.2c0.5-0.8,0.8-1.7,1-2.7c0.1-0.8,0.2-1.6,0.2-2.5c0-0.9-0.1-1.9-0.3-2.8
		c-0.2-0.9-0.5-1.8-1-2.5c-0.5-0.8-1.2-1.4-2-1.9c-1-0.5-2.1-0.8-3.3-0.7c-0.9,0-1.8,0.2-2.7,0.5c-0.9,0.3-1.6,0.8-2.3,1.5
		c-0.7,0.7-1.2,1.6-1.6,2.6C157.3,19.9,157.1,21.2,157.1,22.4z M153.8,22.6c0-1.5,0.2-2.9,0.8-4.3c0.5-1.2,1.2-2.4,2.1-3.4
		c1-1,2.1-1.7,3.4-2.2c1.4-0.5,2.9-0.8,4.4-0.8c1.4,0,2.8,0.2,4.1,0.7c1.1,0.4,2.2,1.1,3,2c0.9,0.9,1.5,1.9,1.9,3.1
		c0.5,1.3,0.7,2.7,0.7,4.1c0,1.3-0.2,2.6-0.6,3.9c-0.4,1.2-1,2.4-1.9,3.4c-0.9,1-2,1.8-3.2,2.4c-1.4,0.6-3,1-4.6,0.9
		c-1.4,0-2.8-0.2-4.2-0.7c-1.2-0.4-2.2-1.1-3.1-2c-0.9-0.9-1.6-1.9-2-3.1C154,25.4,153.8,24,153.8,22.6z"/>
	<path class="st1" d="M164.2,13.9c-0.9,0-1.9,0.2-2.8,0.5c-0.9,0.3-1.7,0.9-2.4,1.5c-0.7,0.8-1.3,1.7-1.6,2.7
		c-0.4,1.2-0.6,2.5-0.6,3.8c0,1,0.1,2,0.4,3c0.3,0.9,0.7,1.8,1.3,2.6c0.6,0.8,1.4,1.4,2.2,1.8c1,0.5,2.1,0.7,3.2,0.7
		c1.3,0.1,2.6-0.3,3.7-0.9c0.9-0.6,1.7-1.3,2.2-2.3c0.5-0.9,0.8-1.8,1-2.8c0.1-0.8,0.2-1.7,0.2-2.5c0-0.9-0.1-1.9-0.3-2.8
		c-0.2-0.9-0.6-1.8-1.1-2.6c-0.5-0.8-1.3-1.5-2.1-1.9C166.5,14.2,165.4,13.9,164.2,13.9z M163.8,32.2c-1.4,0-2.8-0.2-4.1-0.7
		c-1.1-0.4-2.1-1.1-3-1.9c-0.8-0.9-1.5-1.9-1.9-3c-0.5-1.3-0.7-2.6-0.7-4c0-1.4,0.2-2.8,0.7-4.2c0.5-1.2,1.2-2.3,2.1-3.3
		c0.9-0.9,2-1.6,3.2-2.1c1.4-0.5,2.8-0.8,4.3-0.8c1.4,0,2.7,0.2,4,0.7c1.1,0.4,2.1,1.1,3,1.9c0.8,0.9,1.5,1.9,1.9,3
		c0.4,1.3,0.7,2.7,0.6,4.1c0,1.3-0.2,2.6-0.6,3.8c-0.4,1.2-1,2.3-1.8,3.3c-0.9,1-1.9,1.8-3.1,2.3C166.9,32,165.4,32.3,163.8,32.2z"
		/>
	<path class="st1" d="M164.2,13.7c-1,0-1.9,0.2-2.9,0.5c-0.9,0.3-1.8,0.9-2.5,1.6c-0.7,0.8-1.3,1.7-1.7,2.7
		c-0.4,1.3-0.6,2.6-0.6,3.9c0,1,0.1,2.1,0.4,3.1c0.3,1,0.7,1.9,1.3,2.7c0.6,0.8,1.4,1.5,2.3,1.9c1,0.5,2.1,0.7,3.3,0.7
		c1.4,0,2.7-0.3,3.9-1c0.9-0.6,1.7-1.4,2.3-2.3c0.5-0.9,0.9-1.9,1.1-2.9c0.1-0.8,0.2-1.7,0.2-2.5c0-1-0.1-1.9-0.3-2.9
		c-0.2-1-0.6-1.9-1.1-2.7c-0.6-0.8-1.3-1.5-2.2-2C166.6,13.9,165.4,13.6,164.2,13.7z M163.8,32c-1.4,0-2.7-0.2-4-0.7
		c-1.1-0.4-2.1-1-2.9-1.9c-0.8-0.8-1.4-1.9-1.8-2.9c-0.5-1.3-0.7-2.6-0.7-3.9c0-1.4,0.2-2.8,0.7-4.1c0.4-1.2,1.1-2.3,2-3.2
		c0.9-0.9,2-1.6,3.1-2.1c1.3-0.5,2.8-0.8,4.2-0.7c1.3,0,2.7,0.2,3.9,0.7c1.1,0.4,2,1,2.9,1.8c0.8,0.8,1.4,1.8,1.8,2.9
		c0.4,1.3,0.7,2.6,0.6,4c0,1.3-0.2,2.5-0.6,3.7c-0.4,1.2-1,2.3-1.8,3.2c-0.8,1-1.9,1.7-3,2.3C166.8,31.7,165.3,32,163.8,32z"/>
	<path class="st1" d="M164.2,13.4c-1,0-2,0.2-2.9,0.5c-1,0.4-1.9,0.9-2.6,1.7c-0.8,0.8-1.4,1.8-1.7,2.9c-0.4,1.3-0.6,2.6-0.6,4
		c0,1.1,0.1,2.1,0.4,3.1c0.3,1,0.7,2,1.4,2.8c0.6,0.8,1.5,1.5,2.4,2c1.1,0.5,2.2,0.8,3.4,0.7c1.4,0.1,2.8-0.3,4-1
		c1-0.6,1.8-1.5,2.4-2.4c0.5-0.9,0.9-1.9,1.1-3c0.2-0.9,0.2-1.7,0.3-2.6c0-1-0.1-2-0.3-2.9c-0.2-1-0.6-2-1.1-2.8
		c-0.6-0.9-1.4-1.6-2.3-2.1C166.7,13.7,165.5,13.4,164.2,13.4z M163.8,31.7c-1.3,0-2.6-0.2-3.9-0.6c-1.1-0.4-2-1-2.9-1.8
		c-0.8-0.8-1.4-1.8-1.8-2.8c-0.5-1.2-0.7-2.5-0.6-3.8c0-1.4,0.2-2.7,0.7-4c0.4-1.2,1.1-2.2,2-3.1c0.9-0.9,1.9-1.6,3.1-2
		c1.3-0.5,2.7-0.7,4.1-0.7c1.3,0,2.6,0.2,3.8,0.6c1,0.4,2,1,2.8,1.8c0.8,0.8,1.4,1.8,1.7,2.8c0.4,1.2,0.6,2.6,0.6,3.9
		c0,1.2-0.2,2.5-0.6,3.6c-0.4,1.1-0.9,2.2-1.7,3.1c-0.8,0.9-1.9,1.7-3,2.2C166.7,31.4,165.3,31.7,163.8,31.7L163.8,31.7z"/>
	<path class="st1" d="M181.2,30h2.2l0.1-15.5h-5l-0.1,3h-3.1l0.1-5.3H195l0.1,5.3H192l-0.1-3H187l-0.1,15.6h2.5v2.3h-8.2V30z"/>
	<path class="st1" d="M181.5,30.3h2.2l0.1-16.1h-5.5l-0.1,3h-2.6l0.1-4.8h19l0.1,4.8h-2.6l-0.1-3h-5.4l-0.1,16.1h2.5v1.9h-7.6
		L181.5,30.3z"/>
	<polygon class="st1" points="181.8,31.9 181.8,30.5 184,30.5 184.1,13.9 178.1,13.9 177.9,16.9 175.9,16.9 176,12.6 194.5,12.6 
		194.6,16.9 192.6,16.9 192.5,13.9 186.5,13.9 186.4,30.5 188.9,30.5 188.9,31.9 	"/>
	<polygon class="st1" points="184.4,13.7 177.8,13.7 177.7,16.6 176.2,16.6 176.3,12.9 194.3,12.9 194.3,16.6 192.8,16.6 
		192.7,13.7 186.3,13.7 186.1,30.8 188.6,30.8 188.6,31.6 182,31.6 182,30.8 184.3,30.8 	"/>
	<polygon class="st1" points="182.3,31.4 182.3,31.1 184.5,31.1 184.6,13.4 177.6,13.4 177.4,16.4 176.4,16.4 176.5,13.1 194,13.1 
		194.1,16.4 193.1,16.4 193,13.4 186,13.4 185.8,31.1 188.3,31.1 188.3,31.4 	"/>
	<path class="st1" d="M197.2,30h2.1l0.1-15.5H197v-2.4h15.1l0.1,5.3h-2.9l-0.2-3h-6.3l-0.1,6.3h6.2v2.5h-6.2l-0.1,6.7h6.6l0.3-3.3
		h2.9l-0.3,5.7h-15.1V30z"/>
	<path class="st1" d="M197.5,30.3h2.1l0.1-16.1h-2.5v-1.9h14.6l0.1,4.8h-2.4l-0.2-3h-6.8l-0.1,6.8h6.2v2h-6.1l-0.1,7.3h7.1l0.3-3.3
		h2.4l-0.2,5.2h-14.6V30.3z"/>
	<polygon class="st1" points="197.8,31.9 197.8,30.5 199.9,30.5 200,13.9 197.5,13.9 197.5,12.6 211.6,12.6 211.7,16.9 209.9,16.9 
		209.7,13.9 202.4,13.9 202.3,21.3 208.5,21.3 208.5,22.8 202.4,22.8 202.3,30.5 209.9,30.5 210.1,27.2 212,27.2 211.8,31.9 	"/>
	<polygon class="st1" points="200.3,13.7 197.8,13.7 197.8,12.9 211.4,12.9 211.5,16.6 210.1,16.6 210,13.7 202.2,13.7 202.1,21.5 
		208.3,21.5 208.3,22.5 202.1,22.5 202,30.8 210.1,30.8 210.4,27.5 211.7,27.5 211.5,31.6 198,31.6 198,30.8 200.2,30.8 	"/>
	<polygon class="st1" points="198.3,31.4 198.3,31.1 200.4,31.1 200.6,13.4 198.1,13.4 198.1,13.1 211.1,13.1 211.2,16.4 
		210.4,16.4 210.2,13.4 201.9,13.4 201.8,21.8 208,21.8 208,22.2 201.8,22.2 201.8,31.1 210.4,31.1 210.6,27.8 211.4,27.8 
		211.3,31.4 	"/>
	<path class="st1" d="M213.6,14.6v-2.6h2.9v2.6l-1.2,1.7L213.6,14.6z"/>
	<path class="st1" d="M213.9,14.5v-2.2h2.4v2.2l-1,1.4L213.9,14.5z"/>
	<polygon class="st1" points="214.2,14.4 214.2,12.6 216,12.6 216,14.5 215.3,15.5 	"/>
	<polygon class="st1" points="214.4,14.3 214.4,12.9 215.8,12.9 215.8,14.4 215.2,15.1 	"/>
	<polygon class="st1" points="214.7,14.2 214.7,13.1 215.5,13.1 215.5,14.3 215.2,14.7 	"/>
</g>
</svg>
