<svg xmlns="http://www.w3.org/2000/svg" width="20" height="12" viewBox="0 0 20 12">
  <path fill="#FFF" d="M254.833333,536.142857 L254.833333,538.2 L258.141667,538.2 C258.008333,539.082 257.141667,540.788571 254.833333,540.788571 C252.841667,540.788571 251.216667,539.092286 251.216667,537 C251.216667,534.908571 252.841667,533.211429 254.833333,533.211429 C255.966667,533.211429 256.725,533.708571 257.158333,534.137143 L258.741667,532.568571 C257.725,531.591429 256.408333,531 254.833333,531 C251.608333,531 249,533.682857 249,537 C249,540.317143 251.608333,543 254.833333,543 C258.2,543 260.434167,540.565714 260.434167,537.137143 C260.434167,536.742857 260.391667,536.442857 260.341667,536.142857 L254.833333,536.142857 Z M254.833333,536.142857 L269,537.857143 L266.5,537.857143 L266.5,540.428571 L264.833333,540.428571 L264.833333,537.857143 L262.333333,537.857143 L262.333333,536.142857 L264.833333,536.142857 L264.833333,533.571429 L266.5,533.571429 L266.5,536.142857 L269,536.142857 L269,537.857143 L254.833333,536.142857 Z" opacity=".654" transform="translate(-249 -531)"/>
</svg>
