<svg xmlns="http://www.w3.org/2000/svg" viewBox="0 0 152.41 40"><defs><style>.a{fill-rule:evenodd;}</style></defs><title>logo_dark</title><polygon class="a" points="38 33 38 38 2 38 2 2 38 2 38 12 40 12 40 0 0 0 0 40 40 40 40 33 38 33"/><path d="M25.87,14.9a8.24,8.24,0,0,0-2.18-1.55,7.13,7.13,0,0,0-2.88-.65,6.73,6.73,0,0,0-6.71,6.95,6.68,6.68,0,0,0,6.74,6.8,7,7,0,0,0,3.1-.77,7.59,7.59,0,0,0,1.93-1.4v2.3a8.7,8.7,0,0,1-5,1.63,8.44,8.44,0,0,1-8.64-8.57A8.48,8.48,0,0,1,20.94,11a7.88,7.88,0,0,1,4.93,1.65Z" transform="translate(0 0)"/><path d="M38,17.52h1.8V27.9H38V26.45a4.39,4.39,0,0,1-3.56,1.75c-2.63,0-5.06-1.85-5.06-5.5s2.4-5.42,5.06-5.42A4.3,4.3,0,0,1,38,19ZM31.2,22.7c0,2.22,1.25,3.9,3.41,3.9s3.46-1.82,3.46-3.87a3.52,3.52,0,0,0-3.46-3.85C32.83,18.87,31.2,20.17,31.2,22.7Z" transform="translate(0 0)"/><path d="M44,17.52h1.8v1.13a2.89,2.89,0,0,1,2.35-1.37,3.81,3.81,0,0,1,1.6.43l-.85,1.62A1.86,1.86,0,0,0,47.82,19a1.75,1.75,0,0,0-1.45.65,4.47,4.47,0,0,0-.6,2.8V27.9H44Z" transform="translate(0 0)"/><path d="M54.3,27.9h-1.8V9.68h1.8V19a4.47,4.47,0,0,1,3.56-1.7c3.25,0,5.06,2.7,5.06,5.5s-1.83,5.42-5,5.42a4.41,4.41,0,0,1-3.63-1.75Zm6.76-5.12c0-2.55-1.73-3.9-3.41-3.9a3.6,3.6,0,0,0-3.46,3.87,3.55,3.55,0,0,0,3.48,3.85C59.78,26.6,61.06,24.85,61.06,22.77Z" transform="translate(0 0)"/><path d="M66,22.75a5.51,5.51,0,0,1,11,0,5.51,5.51,0,0,1-11,0Zm1.85,0a3.66,3.66,0,1,0,7.31,0,3.66,3.66,0,1,0-7.31,0Z" transform="translate(0 0)"/><path d="M80.63,17.52h1.8v1.2a3.67,3.67,0,0,1,3-1.45,3.53,3.53,0,0,1,3,1.42,4.62,4.62,0,0,1,.6,2.77V27.9h-1.8V21.52a3.05,3.05,0,0,0-.48-1.9,2,2,0,0,0-1.7-.75,2.27,2.27,0,0,0-1.83.8,4.36,4.36,0,0,0-.75,2.8V27.9h-1.8Z" transform="translate(0 0)"/><path d="M94.11,12.33a1.27,1.27,0,1,1-1.28,1.27A1.28,1.28,0,0,1,94.11,12.33Zm.9,5.2V27.9h-1.8V17.52Z" transform="translate(0 0)"/><path d="M101,23.57a3.52,3.52,0,0,0,.5,2.22,2.49,2.49,0,0,0,3.66,0,3.52,3.52,0,0,0,.5-2.22v-6h1.8v6.25a4.12,4.12,0,0,1-1,3.12,4.54,4.54,0,0,1-6.36,0,4.12,4.12,0,0,1-1-3.12V17.52H101Z" transform="translate(0 0)"/><path d="M111.63,17.52h1.8v1.1A3,3,0,0,1,116,17.27a3.16,3.16,0,0,1,2.85,1.67A3.47,3.47,0,0,1,122,17.27c3.08,0,3.38,2.57,3.38,4V27.9h-1.8V21.6c0-1.18-.15-2.73-1.85-2.73-2.08,0-2.3,2-2.3,3.25V27.9h-1.8V21.75c0-.73,0-2.87-1.9-2.87s-2.28,2.12-2.28,3.37V27.9h-1.8Z" transform="translate(0 0)"/><path d="M130.75,25.65a1.25,1.25,0,1,1-1.25,1.25A1.27,1.27,0,0,1,130.75,25.65Z" transform="translate(0 0)"/><path d="M137,12.33a1.27,1.27,0,1,1-1.28,1.27A1.28,1.28,0,0,1,137,12.33Zm.9,5.2V27.9h-1.8V17.52Z" transform="translate(0 0)"/><path d="M141.39,22.75a5.51,5.51,0,0,1,11,0,5.51,5.51,0,0,1-11,0Zm1.85,0a3.66,3.66,0,1,0,7.31,0,3.66,3.66,0,1,0-7.31,0Z" transform="translate(0 0)"/></svg>