<?xml version="1.0" encoding="utf-8"?>
<!-- Generator: Adobe Illustrator 21.1.0, SVG Export Plug-In . SVG Version: 6.00 Build 0)  -->
<svg version="1.1" id="Layer_1" xmlns="http://www.w3.org/2000/svg" xmlns:xlink="http://www.w3.org/1999/xlink" x="0px" y="0px"
	 viewBox="0 0 220 48" style="enable-background:new 0 0 220 48;" xml:space="preserve">
<style type="text/css">
	.st0{fill:#020202;}
</style>
<path class="st0" d="M28.1,5.5h16.4c0,5.5,0,10.9,0,16.4c-5.5,0-10.9,0-16.4,0V5.5L28.1,5.5z"/>
<path class="st0" d="M46.2,5.5h16.4c0,5.5,0,10.9,0,16.4c-5.5,0-10.9,0-16.4,0C46.2,16.4,46.2,11,46.2,5.5L46.2,5.5z"/>
<path class="st0" d="M176.1,11.7c1.5-1,3.5-1.1,5.2-0.6c0,1,0,2,0,3c-0.8-0.4-1.8-0.6-2.6-0.2c-0.7,0.3-1.1,1-1.2,1.7
	c-0.1,0.9,0,1.8-0.1,2.7c1.7,0,3.5,0,5.2,0c0-1.1,0-2.2,0-3.4c1.2-0.3,2.3-0.7,3.5-1.1c0,1.5,0,3,0,4.4c1.2,0,2.3,0,3.5,0v2.9
	c-1.2,0-2.4,0-3.5,0c0,1.7,0,3.3,0,5c0,0.9,0,1.8,0.1,2.8c0.1,0.5,0.3,1.1,0.8,1.4c0.8,0.5,1.9,0.3,2.7-0.3v2.9
	c-1,0.4-2.1,0.6-3.2,0.5c-1-0.1-2.1-0.5-2.8-1.3c-0.8-0.9-1-2.2-1-3.4c0-2.5,0-5.1,0-7.6c-1.7,0-3.5,0-5.2,0c0,4,0,8,0,12
	c-1.2,0-2.4,0-3.6,0c0-4,0-8,0-12c-0.8,0-1.6,0-2.5,0c0-0.9,0-1.9,0-2.8c0.8,0,1.6,0,2.5,0c0.1-1.3-0.1-2.6,0.2-3.8
	C174.4,13.4,175.1,12.4,176.1,11.7L176.1,11.7z"/>
<path class="st0" d="M100.1,12c0.7-0.1,1.5,0.1,2,0.7c0.6,0.6,0.7,1.6,0.2,2.3c-0.5,0.8-1.5,1.2-2.4,1c-0.9-0.2-1.7-1-1.6-2
	C98.3,13,99.1,12.1,100.1,12L100.1,12z"/>
<path class="st0" d="M72.9,12.4c1.7,0,3.4,0,5.2,0c1.6,4.1,3.2,8.2,4.8,12.2c0.4,1,0.8,2.1,1.2,3.1c2.1-5.1,4.2-10.2,6.2-15.3
	c1.7,0,3.3,0,5,0c0,6.9,0,13.8,0,20.7c-1.2,0-2.4,0-3.6,0c0-5.1,0-10.2,0-15.3c0-0.2,0-0.5,0-0.7c-0.1,0.1-0.1,0.2-0.2,0.3
	c-2.1,5.2-4.1,10.4-6.2,15.6c-0.8,0-1.7,0-2.6,0c-2.1-5.2-4.2-10.4-6.3-15.7c-0.1-0.1-0.1-0.2-0.2-0.3c0,2.2,0,4.5,0,6.7
	c0,3.1,0,6.2,0,9.3c-1.1,0-2.3,0-3.4,0C72.9,26.2,72.9,19.3,72.9,12.4L72.9,12.4z"/>
<path class="st0" d="M109.9,18.2c1.7-0.5,3.6-0.5,5.3,0c0.4,0.1,0.7,0.2,1,0.4c0,1.1,0,2.3,0,3.4c-1.1-0.9-2.6-1.4-4.1-1.2
	c-1.2,0.1-2.3,0.7-2.9,1.6c-0.9,1.2-1.1,2.7-0.9,4.1c0.1,1.1,0.6,2.2,1.4,2.9c0.9,0.8,2.2,1.1,3.3,1c1.2-0.1,2.2-0.6,3.2-1.3
	c0,1.1,0,2.1,0,3.2c-1.5,0.9-3.2,1.1-4.9,1c-1.7-0.1-3.4-0.7-4.6-1.9c-1.3-1.3-2.1-3.1-2.1-5c-0.1-1.9,0.3-3.9,1.4-5.5
	C106.9,19.7,108.3,18.7,109.9,18.2L109.9,18.2z"/>
<path class="st0" d="M148.7,18c1.6-0.3,3.4-0.1,4.9,0.5c0,1.1,0,2.2,0,3.3c-1.1-0.7-2.4-1.1-3.7-1.1c-0.7,0-1.4,0.3-1.7,0.9
	c-0.2,0.6-0.1,1.4,0.5,1.8c1,0.7,2.2,1,3.3,1.6c0.8,0.5,1.6,1.1,2,1.9c0.8,1.6,0.5,3.8-0.9,5c-1.3,1.2-3.2,1.6-4.9,1.5
	c-1.2-0.1-2.5-0.3-3.6-0.8c0-1.1,0-2.3,0-3.4c1,0.7,2.1,1.2,3.2,1.4c0.8,0.1,1.7,0.1,2.4-0.2c0.7-0.4,0.9-1.4,0.4-2
	c-0.4-0.5-1-0.8-1.5-1c-1-0.5-2.1-0.9-3.1-1.6c-0.6-0.5-1.1-1.2-1.3-2c-0.3-1.2-0.2-2.5,0.5-3.5C145.9,19,147.3,18.3,148.7,18
	L148.7,18z"/>
<path class="st0" d="M124.1,18.5c1-0.6,2.2-0.6,3.3-0.3c0,1.2,0,2.4,0,3.6c-0.7-0.5-1.6-0.6-2.4-0.6c-1,0.1-1.8,0.9-2.2,1.8
	c-0.4,0.9-0.5,2-0.5,3c0,2.4,0,4.7,0,7.1c-1.2,0-2.3,0-3.5,0c0-4.9,0-9.9,0-14.8c1.2,0,2.3,0,3.5,0c0,0.8,0,1.7,0,2.5
	C122.6,19.9,123.2,19,124.1,18.5L124.1,18.5z"/>
<path class="st0" d="M98.6,18.3c1.2,0,2.4,0,3.5,0c0,4.9,0,9.9,0,14.8c-1.2,0-2.4,0-3.5,0C98.6,28.2,98.6,23.2,98.6,18.3L98.6,18.3z
	"/>
<path class="st0" d="M133.9,18c1.7-0.2,3.5-0.1,5.1,0.6c1.4,0.6,2.5,1.8,3.1,3.1c0.7,1.5,0.8,3.1,0.7,4.7c-0.1,1.5-0.6,3.1-1.6,4.3
	c-1,1.3-2.5,2.2-4.1,2.5c-1.4,0.3-2.8,0.3-4.2,0c-1.6-0.3-3.1-1.3-4.1-2.7c-1.1-1.6-1.4-3.6-1.3-5.5c0.1-1.6,0.6-3.3,1.6-4.5
	C130.4,19.1,132.1,18.2,133.9,18L133.9,18z M135,20.8c-0.8,0-1.7,0.3-2.3,0.9c-0.9,0.8-1.3,2-1.4,3.1c-0.1,1.3,0,2.6,0.5,3.7
	c0.4,0.9,1.3,1.6,2.2,1.8c0.9,0.2,2,0.2,2.9-0.1c0.8-0.3,1.4-1,1.7-1.7c0.5-1.1,0.6-2.4,0.5-3.6c-0.1-1.1-0.4-2.3-1.2-3.1
	C137.2,21,136.1,20.7,135,20.8L135,20.8z"/>
<path class="st0" d="M162.2,18c1.8-0.2,3.7-0.1,5.3,0.7c1.4,0.7,2.5,2,3,3.5c0.4,1.1,0.6,2.3,0.6,3.5c0,1.8-0.5,3.6-1.6,5.1
	c-1.1,1.4-2.7,2.3-4.4,2.6s-3.4,0.2-5-0.4c-1.6-0.6-2.9-1.9-3.6-3.5c-0.7-1.6-0.8-3.4-0.6-5.2c0.2-1.7,1-3.4,2.3-4.6
	C159.4,18.7,160.8,18.2,162.2,18L162.2,18z M163.2,20.8c-1,0.1-2,0.5-2.6,1.2c-0.7,0.8-1,1.9-1.1,3s0,2.2,0.4,3.2
	c0.3,0.9,1,1.6,1.9,2c0.8,0.3,1.7,0.4,2.5,0.3s1.6-0.5,2.1-1.1s0.8-1.4,0.9-2.2c0.2-1,0.2-2.1,0-3.2c-0.2-0.9-0.6-1.8-1.3-2.4
	C165.3,21,164.2,20.7,163.2,20.8L163.2,20.8z"/>
<path class="st0" d="M28.1,23.6c5.5,0,10.9,0,16.4,0c0,5.5,0,10.9,0,16.4H28.1V23.6L28.1,23.6z"/>
<path class="st0" d="M46.2,23.6c5.5,0,10.9,0,16.4,0c0,5.5,0,10.9,0,16.4H46.2C46.2,34.5,46.2,29.1,46.2,23.6L46.2,23.6z"/>
<circle class="st0" cx="-231" cy="-12" r="0"/>
</svg>
