<?xml version="1.0" encoding="utf-8"?>
<!-- Generator: Adobe Illustrator 21.1.0, SVG Export Plug-In . SVG Version: 6.00 Build 0)  -->
<svg version="1.1" id="Layer_1" xmlns="http://www.w3.org/2000/svg" xmlns:xlink="http://www.w3.org/1999/xlink" x="0px" y="0px"
	 viewBox="0 0 220 35.5" style="enable-background:new 0 0 220 35.5;" xml:space="preserve">
<title>paypal</title>
<path d="M148.3,7.7h-7.8c-0.5,0-1,0.4-1.1,0.9l-3.2,20c-0.1,0.4,0.2,0.7,0.5,0.7c0,0,0.1,0,0.1,0h4c0.4,0,0.7-0.3,0.8-0.6l0.9-5.7
	c0.1-0.5,0.5-0.9,1.1-0.9h2.5c5.1,0,8.1-2.5,8.9-7.4c0.4-1.7,0.1-3.6-1-5C153,8.4,151,7.7,148.3,7.7z M149.2,15
	c-0.4,2.8-2.6,2.8-4.6,2.8h-1.2l0.8-5.2c0-0.3,0.3-0.5,0.6-0.6h0.5c1.4,0,2.7,0,3.4,0.8C149.3,13.5,149.5,14.3,149.2,15L149.2,15z"
	/>
<path d="M92.7,7.7h-7.8c-0.5,0-1,0.4-1.1,0.9l-3.2,20c-0.1,0.4,0.2,0.7,0.5,0.7c0,0,0.1,0,0.1,0H85c0.5,0,1-0.4,1.1-0.9l0.8-5.4
	c0.1-0.5,0.5-0.9,1.1-0.9h2.5c5.1,0,8.1-2.5,8.9-7.4c0.4-1.7,0.1-3.6-1-5C97.3,8.4,95.3,7.7,92.7,7.7z M93.6,15
	c-0.4,2.8-2.6,2.8-4.6,2.8h-1.2l0.8-5.2c0-0.3,0.3-0.5,0.6-0.6h0.5c1.4,0,2.7,0,3.4,0.8C93.6,13.5,93.8,14.3,93.6,15L93.6,15z"/>
<path d="M116,14.9h-3.7c-0.3,0-0.6,0.2-0.6,0.5l-0.2,1l-0.3-0.4c-0.8-1.2-2.6-1.6-4.4-1.6c-4.3,0.1-7.8,3.3-8.3,7.5
	c-0.4,2,0.1,4.1,1.4,5.8c1.2,1.3,2.9,2,4.7,1.9c1.9,0,3.8-0.8,5.2-2.1l-0.2,1c-0.1,0.4,0.2,0.7,0.5,0.7c0,0,0.1,0,0.1,0h3.4
	c0.5,0,1-0.4,1.1-0.9l2-12.8C116.7,15.3,116.4,15,116,14.9C116,14.9,116,14.9,116,14.9z M110.8,22.2c-0.3,2.1-2.1,3.6-4.2,3.6
	c-1.6,0.2-3-1-3.2-2.6c0-0.4,0-0.7,0.1-1.1c0.3-2.1,2.1-3.6,4.2-3.6c0.9-0.1,1.9,0.3,2.5,1C110.8,20.3,111,21.3,110.8,22.2z"/>
<path d="M171.7,14.9H168c-0.3,0-0.6,0.2-0.6,0.5l-0.2,1l-0.3-0.4c-0.8-1.2-2.6-1.6-4.4-1.6c-4.3,0.1-7.8,3.3-8.3,7.5
	c-0.4,2,0.1,4.1,1.4,5.8c1.2,1.3,2.9,2,4.7,1.9c1.9,0,3.8-0.8,5.2-2.1l-0.2,1c-0.1,0.4,0.2,0.7,0.5,0.7c0,0,0.1,0,0.1,0h3.4
	c0.5,0,0.9-0.3,1.1-0.8l2-12.8C172.4,15.3,172.1,15,171.7,14.9C171.8,14.9,171.7,14.9,171.7,14.9z M166.5,22.2
	c-0.3,2.1-2.1,3.6-4.2,3.6c-1.6,0.2-3-1-3.2-2.6c0-0.4,0-0.7,0.1-1.1c0.3-2.1,2.1-3.6,4.2-3.6c0.9-0.1,1.9,0.3,2.5,1
	C166.5,20.3,166.7,21.3,166.5,22.2L166.5,22.2z"/>
<path d="M135.9,14.9h-3.8c-0.4,0-0.7,0.2-0.9,0.5l-5.2,7.6l-2.2-7.3c-0.1-0.4-0.5-0.8-1-0.8h-3.7c-0.4,0-0.7,0.3-0.7,0.6
	c0,0.1,0,0.1,0,0.2l4.1,12.1l-3.9,5.5c-0.2,0.3-0.1,0.7,0.2,0.9c0.1,0.1,0.2,0.1,0.4,0.1h3.8c0.4,0,0.7-0.2,0.9-0.5l12.5-18
	c0.2-0.3,0.2-0.7-0.1-0.9C136.3,15,136.1,14.9,135.9,14.9z"/>
<path d="M176.1,8.3l-3.2,20.4c-0.1,0.4,0.2,0.7,0.5,0.7c0,0,0.1,0,0.1,0h3.2c0.5,0,1-0.4,1.1-0.9l3.2-20c0.1-0.4-0.2-0.7-0.5-0.7
	c0,0-0.1,0-0.1,0h-3.6C176.4,7.7,176.2,7.9,176.1,8.3z"/>
<path d="M48.2,20.1l0,0.3c0.1-0.7,0.8-1.3,1.5-1.3h3.1c6.2,0,11-2.5,12.4-9.8c0-0.2,0.1-0.4,0.1-0.6c0.4-2.7,0-4.5-1.4-6.2
	C62.3,0.8,59.4,0,55.7,0H45c-0.8,0-1.4,0.5-1.5,1.3L39,29.6c-0.1,0.5,0.3,1,0.8,1c0,0,0.1,0,0.1,0h6.6L48.2,20.1z"/>
<path d="M67.8,10.9c-0.4-0.5-0.9-0.9-1.5-1.2c0,0.2-0.1,0.4-0.1,0.6c-1.4,7.3-6.3,9.8-12.4,9.8h-3.2c-0.8,0-1.4,0.6-1.5,1.3l0.1-0.3
	l-1.7,10.5l-0.5,2.9c-0.1,0.4,0.2,0.8,0.7,0.9c0,0,0.1,0,0.1,0h5.6c0.7,0,1.2-0.5,1.3-1.1l0-0.3l1-6.7l0.1-0.4
	c0.1-0.6,0.7-1.1,1.3-1.1h0.8c5.4,0,9.6-2.2,10.9-8.5C69.5,14.7,69.2,12.5,67.8,10.9z"/>
</svg>
