<?xml version="1.0" encoding="utf-8"?>
<!-- Generator: Adobe Illustrator 21.1.0, SVG Export Plug-In . SVG Version: 6.00 Build 0)  -->
<svg version="1.1" id="Layer_1" xmlns="http://www.w3.org/2000/svg" xmlns:xlink="http://www.w3.org/1999/xlink" x="0px" y="0px"
	 viewBox="0 0 220 48" style="enable-background:new 0 0 220 48;" xml:space="preserve">
<title>paypal</title>
<path d="M147,11.7h-7.5c-0.5,0-1,0.4-1,0.9l-3.1,19.3c-0.1,0.3,0.2,0.7,0.5,0.7c0,0,0.1,0,0.1,0h3.9c0.4,0,0.7-0.3,0.7-0.6l0.9-5.5
	c0.1-0.5,0.5-0.9,1-0.9h2.4c5,0,7.8-2.4,8.6-7.2c0.4-1.7,0.1-3.4-1-4.8C151.5,12.4,149.6,11.7,147,11.7z M147.9,18.8
	c-0.4,2.7-2.5,2.7-4.5,2.7h-1.1l0.8-5.1c0-0.3,0.3-0.5,0.6-0.5h0.5c1.4,0,2.6,0,3.3,0.8C148,17.3,148.1,18,147.9,18.8L147.9,18.8z"
	/>
<path d="M93.3,11.7h-7.5c-0.5,0-1,0.4-1,0.9l-3.1,19.3c-0.1,0.3,0.2,0.7,0.5,0.7c0,0,0.1,0,0.1,0h3.6c0.5,0,1-0.4,1-0.9l0.8-5.2
	c0.1-0.5,0.5-0.9,1-0.9h2.4c5,0,7.8-2.4,8.6-7.2c0.4-1.7,0.1-3.4-1-4.8C97.7,12.4,95.8,11.7,93.3,11.7z M94.1,18.8
	c-0.4,2.7-2.5,2.7-4.5,2.7h-1.1l0.8-5.1c0-0.3,0.3-0.5,0.6-0.5h0.5c1.4,0,2.6,0,3.3,0.8C94.2,17.3,94.3,18.1,94.1,18.8L94.1,18.8z"
	/>
<path d="M115.8,18.7h-3.6c-0.3,0-0.6,0.2-0.6,0.5l-0.2,1l-0.3-0.4c-0.8-1.1-2.5-1.5-4.3-1.5c-4.1,0.1-7.5,3.2-8.1,7.3
	c-0.4,2,0.1,4,1.3,5.6c1.2,1.3,2.8,1.9,4.5,1.8c1.9,0,3.7-0.7,5-2.1l-0.2,1c-0.1,0.3,0.2,0.7,0.5,0.7c0,0,0.1,0,0.1,0h3.3
	c0.5,0,0.9-0.3,1-0.8l1.9-12.4C116.4,19.1,116.2,18.7,115.8,18.7C115.8,18.7,115.8,18.7,115.8,18.7z M110.8,25.7
	c-0.3,2-2,3.5-4.1,3.4c-1.5,0.2-2.9-1-3.1-2.5c0-0.3,0-0.7,0.1-1c0.3-2,2-3.5,4-3.5c0.9-0.1,1.8,0.3,2.4,1
	C110.7,23.9,111,24.8,110.8,25.7z"/>
<path d="M169.6,18.7H166c-0.3,0-0.6,0.2-0.6,0.5l-0.2,1l-0.3-0.4c-0.8-1.1-2.5-1.5-4.3-1.5c-4.1,0.1-7.5,3.2-8.1,7.3
	c-0.4,2,0.1,4,1.3,5.6c1.2,1.3,2.8,1.9,4.5,1.8c1.9,0,3.7-0.7,5-2.1l-0.2,1c-0.1,0.3,0.2,0.7,0.5,0.7c0,0,0.1,0,0.1,0h3.3
	c0.5,0,0.9-0.3,1-0.8l1.9-12.4C170.2,19.1,170,18.7,169.6,18.7C169.6,18.7,169.6,18.7,169.6,18.7z M164.6,25.7c-0.3,2-2,3.5-4,3.4
	c-1.5,0.2-2.9-1-3.1-2.5c0-0.3,0-0.7,0.1-1c0.3-2,2-3.5,4-3.5c0.9-0.1,1.8,0.3,2.4,1C164.6,23.9,164.8,24.8,164.6,25.7L164.6,25.7z"
	/>
<path d="M135,18.7h-3.6c-0.3,0-0.7,0.2-0.9,0.5l-5,7.4l-2.1-7.1c-0.1-0.4-0.5-0.7-1-0.7h-3.6c-0.3,0-0.6,0.3-0.6,0.6
	c0,0.1,0,0.1,0,0.2l4,11.7l-3.8,5.3c-0.2,0.3-0.1,0.7,0.2,0.9c0.1,0.1,0.2,0.1,0.3,0.1h3.6c0.3,0,0.7-0.2,0.9-0.5l12.1-17.4
	c0.2-0.3,0.2-0.7-0.1-0.9C135.4,18.7,135.2,18.7,135,18.7z"/>
<path d="M173.9,12.2l-3.1,19.7c-0.1,0.3,0.2,0.7,0.5,0.7c0,0,0.1,0,0.1,0h3.1c0.5,0,1-0.4,1-0.9l3.1-19.3c0.1-0.3-0.2-0.7-0.5-0.7
	c0,0-0.1,0-0.1,0h-3.5C174.2,11.7,173.9,11.9,173.9,12.2z"/>
<path d="M50.3,23.7l0,0.3c0.1-0.7,0.7-1.2,1.5-1.2h3c6,0,10.6-2.4,12-9.4c0-0.2,0.1-0.4,0.1-0.6c0.4-2.6,0-4.4-1.4-5.9
	c-1.5-1.8-4.3-2.5-7.9-2.5H47.2c-0.7,0-1.3,0.5-1.5,1.2l-4.3,27.3c-0.1,0.5,0.3,0.9,0.7,1c0,0,0.1,0,0.1,0h6.4L50.3,23.7z"/>
<path d="M69.3,14.8c-0.4-0.5-0.9-0.9-1.4-1.1c0,0.2-0.1,0.4-0.1,0.6c-1.4,7-6,9.4-12,9.4h-3.1c-0.7,0-1.4,0.5-1.5,1.3l0-0.3
	l-1.6,10.2l-0.4,2.8c-0.1,0.4,0.2,0.8,0.6,0.9c0,0,0.1,0,0.1,0h5.4c0.6,0,1.2-0.5,1.3-1.1l0-0.3l1-6.4l0.1-0.4
	c0.1-0.6,0.6-1.1,1.3-1.1h0.8c5.2,0,9.3-2.1,10.5-8.2C70.8,18.5,70.6,16.3,69.3,14.8z"/>
</svg>
