<svg xmlns="http://www.w3.org/2000/svg" width="14" height="12" viewBox="0 0 14 12">
  <path fill="#FFF" fill-rule="evenodd" d="M370.796875,533.982302 C370.6875,539.160395 367.515625,542.762547 362.703125,542.987681 C360.734375,543.100248 359.3125,542.424845 358,541.636874 C359.421875,541.862009 361.28125,541.299172 362.265625,540.398635 C360.84375,540.286067 359.96875,539.498097 359.53125,538.259857 C359.96875,538.372424 360.40625,538.259857 360.734375,538.259857 C359.421875,537.809588 358.546875,537.021617 358.4375,535.220542 C358.765625,535.445676 359.203125,535.558243 359.640625,535.558243 C358.65625,534.995407 358,532.85663 358.765625,531.505823 C360.1875,533.081764 361.9375,534.432571 364.78125,534.657705 C364.015625,531.505823 368.171875,529.817314 369.8125,531.956092 C370.578125,531.843524 371.125,531.505823 371.671875,531.280688 C371.453125,532.068659 371.015625,532.518928 370.46875,532.969197 C371.015625,532.85663 371.5625,532.744062 372,532.518928 C371.890625,533.081764 371.34375,533.532033 370.796875,533.982302 L370.796875,533.982302 Z" opacity=".654" transform="translate(-358 -531)"/>
</svg>
