<?xml version="1.0" encoding="UTF-8"?>
<svg width="16px" height="10px" viewBox="0 0 16 10" version="1.1" xmlns="http://www.w3.org/2000/svg" xmlns:xlink="http://www.w3.org/1999/xlink">
    <!-- Generator: Sketch 52.6 (67491) - http://www.bohemiancoding.com/sketch -->
    <title>Aa</title>
    <desc>Created with Sketch.</desc>
    <g id="CarbUI" stroke="none" stroke-width="1" fill="none" fill-rule="evenodd">
        <g id="Style-Guide" transform="translate(-429.000000, -4199.000000)" fill="#394859">
            <path d="M436.230377,4208.90829 L435.234741,4206.07245 L431.293396,4206.07245 L430.29776,4208.90829 L429,4208.90829 L432.652954,4199 L433.875183,4199 L437.528137,4208.90829 L436.230377,4208.90829 Z M433.243469,4200.50375 L431.657318,4205.02188 L434.870819,4205.02188 L433.284668,4200.50375 L433.243469,4200.50375 Z M441.152032,4207.94012 C442.360529,4207.94012 443.246301,4207.15735 443.246301,4206.09305 L443.246301,4205.49567 L441.309961,4205.61926 C440.197595,4205.68793 439.620813,4206.09305 439.620813,4206.80716 C439.620813,4207.4938 440.218195,4207.94012 441.152032,4207.94012 Z M440.897974,4208.97696 C439.39422,4208.97696 438.398584,4208.11179 438.398584,4206.80029 C438.398584,4205.53 439.373621,4204.78156 441.172632,4204.67169 L443.246301,4204.5481 L443.246301,4203.93011 C443.246301,4203.01001 442.642053,4202.50189 441.550287,4202.50189 C440.69198,4202.50189 440.0534,4202.94135 439.909204,4203.64172 L438.762506,4203.64172 C438.796838,4202.39203 440.012201,4201.43759 441.56402,4201.43759 C443.314966,4201.43759 444.441064,4202.37143 444.441064,4203.82712 L444.441064,4208.90829 L443.308099,4208.90829 L443.308099,4207.62427 L443.280634,4207.62427 C442.86178,4208.44824 441.934808,4208.97696 440.897974,4208.97696 Z" id="Aa"></path>
        </g>
    </g>
</svg>