<?xml version="1.0" encoding="UTF-8"?>
<svg width="15px" height="15px" viewBox="0 0 15 15" version="1.1" xmlns="http://www.w3.org/2000/svg" xmlns:xlink="http://www.w3.org/1999/xlink">
    <!-- Generator: Sketch 52.6 (67491) - http://www.bohemiancoding.com/sketch -->
    <title>Group 2</title>
    <desc>Created with Sketch.</desc>
    <g id="CarbUI" stroke="none" stroke-width="1" fill="none" fill-rule="evenodd">
        <g id="Style-Guide" transform="translate(-464.000000, -4197.000000)">
            <g id="Group-2" transform="translate(464.000000, 4196.000000)">
                <g id="Group" transform="translate(0.000000, 1.000000)">
                    <path d="M5.625,1.125 L5.625,5.0625 L4.5,5.0625 L4.5,1.125 L0.5625,1.125 L0.5625,0 L5.625,0 L5.625,1.125 Z" id="Combined-Shape" fill="#5D7590"></path>
                    <path d="M4.33302579,1.25342675 C2.06166327,2.37058408 0.5625,4.69887589 0.5625,7.3125 C0.5625,9.9270415 2.06271446,12.2559951 4.33529292,13.3726897 L4.33302579,1.25342675 Z" id="Shape" stroke="#5D7590" stroke-width="1.125"></path>
                </g>
                <g id="Group" transform="translate(11.625000, 8.125000) rotate(180.000000) translate(-11.625000, -8.125000) translate(8.625000, 0.625000)">
                    <path d="M5.625,1.125 L5.625,5.0625 L4.5,5.0625 L4.5,1.125 L0.5625,1.125 L0.5625,0 L5.625,0 L5.625,1.125 Z" id="Combined-Shape" fill="#5D7590"></path>
                    <path d="M4.33302579,1.25342675 C2.06166327,2.37058408 0.5625,4.69887589 0.5625,7.3125 C0.5625,9.9270415 2.06271446,12.2559951 4.33529292,13.3726897 L4.33302579,1.25342675 Z" id="Shape" stroke="#5D7590" stroke-width="1.125"></path>
                </g>
            </g>
        </g>
    </g>
</svg>