<?xml version="1.0" encoding="UTF-8"?>
<svg width="10px" height="14px" viewBox="0 0 10 14" version="1.1" xmlns="http://www.w3.org/2000/svg" xmlns:xlink="http://www.w3.org/1999/xlink">
    <!-- Generator: Sketch 52.6 (67491) - http://www.bohemiancoding.com/sketch -->
    <title>Shape</title>
    <desc>Created with Sketch.</desc>
    <g id="CarbUI" stroke="none" stroke-width="1" fill="none" fill-rule="evenodd">
        <g id="Style-Guide" transform="translate(-400.000000, -4197.000000)" fill="#5D7590">
            <path d="M407.777778,4200.76923 C407.777778,4199.28231 406.534124,4198.07692 405,4198.07692 C403.465876,4198.07692 402.222222,4199.28231 402.222222,4200.76923 L402.222222,4203.46154 L407.777778,4203.46154 L407.777778,4200.76923 Z M401.111111,4200.76923 C401.111111,4198.68754 402.852226,4197 405,4197 C407.147774,4197 408.888889,4198.68754 408.888889,4200.76923 L408.888889,4203.46154 L409.488636,4203.46154 C409.771055,4203.46154 410,4203.69659 410,4203.98654 L410,4210.475 C410,4210.76495 409.771055,4211 409.488636,4211 L400.511364,4211 C400.228945,4211 400,4210.76495 400,4210.475 L400,4203.98654 C400,4203.69659 400.228945,4203.46154 400.511364,4203.46154 L401.111111,4203.46154 L401.111111,4200.76923 Z" id="Shape"></path>
        </g>
    </g>
</svg>