<?xml version="1.0" encoding="UTF-8"?>
<svg width="15px" height="15px" viewBox="0 0 15 15" version="1.1" xmlns="http://www.w3.org/2000/svg" xmlns:xlink="http://www.w3.org/1999/xlink">
    <!-- Generator: Sketch 52.6 (67491) - http://www.bohemiancoding.com/sketch -->
    <title>icon/pro/2 copy</title>
    <desc>Created with Sketch.</desc>
    <g id="CarbUI" stroke="none" stroke-width="1" fill="none" fill-rule="evenodd">
        <g id="Style-Guide" transform="translate(-325.000000, -3939.000000)">
            <g id="icon/proporties_mid2" transform="translate(325.000000, 3939.000000)">
                <g id="Ortalama2" transform="translate(7.414532, 7.414532) rotate(-270.000000) translate(-7.414532, -7.414532) ">
                    <rect id="Rectangle-14" fill="#30AFFF" x="1.42108547e-14" y="5.23378759" width="14.8290648" height="4.36148966" rx="0.930451128"></rect>
                    <path d="M0.427996649,13.9567669 L14.4010682,13.9567669 C14.6374442,13.9567669 14.8290648,14.1483875 14.8290648,14.3847636 L14.8290648,14.3847636 C14.8290648,14.6211396 14.6374442,14.8127602 14.4010682,14.8127602 L0.427996649,14.8127602 C0.191620627,14.8127602 1.42398024e-14,14.6211396 1.42108547e-14,14.3847636 L1.42108547e-14,14.3847636 C1.4181907e-14,14.1483875 0.191620627,13.9567669 0.427996649,13.9567669 Z" id="Rectangle-15" fill="#394859"></path>
                    <path d="M0.427996649,0 L14.4010682,-1.72084569e-15 C14.6374442,-7.1454685e-16 14.8290648,0.191620627 14.8290648,0.427996649 L14.8290648,0.427996649 C14.8290648,0.664372671 14.6374442,0.855993298 14.4010682,0.855993298 L0.427996649,0.855993298 C0.191620627,0.855993298 1.42398024e-14,0.664372671 1.42108547e-14,0.427996649 L1.42108547e-14,0.427996649 C1.4181907e-14,0.191620627 0.191620627,-6.76007316e-17 0.427996649,-1.11022302e-16 Z" id="Rectangle-15-Copy" fill="#394859"></path>
                </g>
            </g>
        </g>
    </g>
</svg>