<?xml version="1.0" encoding="UTF-8"?>
<svg width="16px" height="16px" viewBox="0 0 16 16" version="1.1" xmlns="http://www.w3.org/2000/svg" xmlns:xlink="http://www.w3.org/1999/xlink">
    <!-- Generator: Sketch 52.6 (67491) - http://www.bohemiancoding.com/sketch -->
    <title>icon/pro/7 copy</title>
    <desc>Created with Sketch.</desc>
    <g id="CarbUI" stroke="none" stroke-width="1" fill="none" fill-rule="evenodd">
        <g id="Style-Guide" transform="translate(-492.000000, -3939.000000)">
            <g id="icon/pro/7" transform="translate(492.000000, 3939.000000)">
                <g id="Ortalama2-Copy-4" transform="translate(7.633929, 7.633929) scale(-1, 1) rotate(180.000000) translate(-7.633929, -7.633929) ">
                    <path d="M0.394275701,7.23214286 L14.8735814,7.23214286 C15.0913339,7.23214286 15.2678571,7.4086661 15.2678571,7.62641856 L15.2678571,7.62641856 C15.2678571,7.84417101 15.0913339,8.02069426 14.8735814,8.02069426 L0.394275701,8.02069426 C0.176523244,8.02069426 2.66669849e-17,7.84417101 0,7.62641856 L0,7.62641856 C-2.66669849e-17,7.4086661 0.176523244,7.23214286 0.394275701,7.23214286 Z" id="Rectangle-15" fill="#394859"></path>
                    <path d="M-2.86607143,6.02678571 L10.9017857,6.02678571 C11.3159993,6.02678571 11.6517857,6.36257215 11.6517857,6.77678571 L11.6517857,8.49107143 C11.6517857,8.90528499 11.3159993,9.24107143 10.9017857,9.24107143 L-2.86607143,9.24107143 C-3.28028499,9.24107143 -3.61607143,8.90528499 -3.61607143,8.49107143 L-3.61607143,6.77678571 C-3.61607143,6.36257215 -3.28028499,6.02678571 -2.86607143,6.02678571 Z" id="Rectangle-14" fill="#30AFFF" transform="translate(4.017857, 7.633929) rotate(-270.000000) translate(-4.017857, -7.633929) "></path>
                    <path d="M8.38399193,6.02684907 L14.1160081,6.02684907 C14.5302216,6.02684907 14.8660081,6.36263551 14.8660081,6.77684907 L14.8660081,8.49113478 C14.8660081,8.90534835 14.5302216,9.24113478 14.1160081,9.24113478 L8.38399193,9.24113478 C7.96977837,9.24113478 7.63399193,8.90534835 7.63399193,8.49113478 L7.63399193,6.77684907 C7.63399193,6.36263551 7.96977837,6.02684907 8.38399193,6.02684907 Z" id="Rectangle-14" fill="#394859" transform="translate(11.250000, 7.633992) rotate(-270.000000) translate(-11.250000, -7.633992) "></path>
                </g>
            </g>
        </g>
    </g>
</svg>