<?xml version="1.0" encoding="UTF-8"?>
<svg width="12px" height="11px" viewBox="0 0 12 11" version="1.1" xmlns="http://www.w3.org/2000/svg" xmlns:xlink="http://www.w3.org/1999/xlink">
    <!-- Generator: Sketch 52.6 (67491) - http://www.bohemiancoding.com/sketch -->
    <title>Shape Copy 6</title>
    <desc>Created with Sketch.</desc>
    <g id="CarbUI" stroke="none" stroke-width="1" fill="none" fill-rule="evenodd">
        <g id="Style-Guide" transform="translate(-853.000000, -3941.000000)" fill="#5D7590">
            <path d="M865,3948.33333 L853,3948.33333 L853,3949.55556 L865,3949.55556 L865,3948.33333 L865,3948.33333 Z M865,3943.44444 L853,3943.44444 L853,3944.66667 L865,3944.66667 L865,3943.44444 L865,3943.44444 Z M853,3947.11111 L865,3947.11111 L865,3945.88889 L853,3945.88889 L853,3947.11111 L853,3947.11111 Z M853,3952 L865,3952 L865,3950.77778 L853,3950.77778 L853,3952 L853,3952 Z M853,3941 L853,3942.22222 L865,3942.22222 L865,3941 L853,3941 L853,3941 Z" id="Shape-Copy-6" transform="translate(859.000000, 3946.500000) scale(-1, 1) translate(-859.000000, -3946.500000) "></path>
        </g>
    </g>
</svg>