<?xml version="1.0" encoding="UTF-8"?>
<svg width="12px" height="11px" viewBox="0 0 12 11" version="1.1" xmlns="http://www.w3.org/2000/svg" xmlns:xlink="http://www.w3.org/1999/xlink">
    <!-- Generator: Sketch 52.6 (67491) - http://www.bohemiancoding.com/sketch -->
    <title>Shape Copy 7</title>
    <desc>Created with Sketch.</desc>
    <g id="CarbUI" stroke="none" stroke-width="1" fill="none" fill-rule="evenodd">
        <g id="Style-Guide" transform="translate(-772.000000, -3941.000000)" fill="#5D7590">
            <path d="M781.714286,3948.33333 L773.714286,3948.33333 L773.714286,3949.55556 L781.714286,3949.55556 L781.714286,3948.33333 L781.714286,3948.33333 Z M781.714286,3943.44444 L773.714286,3943.44444 L773.714286,3944.66667 L781.714286,3944.66667 L781.714286,3943.44444 L781.714286,3943.44444 Z M772,3947.11111 L784,3947.11111 L784,3945.88889 L772,3945.88889 L772,3947.11111 L772,3947.11111 Z M772,3952 L784,3952 L784,3950.77778 L772,3950.77778 L772,3952 L772,3952 Z M772,3941 L772,3942.22222 L784,3942.22222 L784,3941 L772,3941 L772,3941 Z" id="Shape-Copy-7"></path>
        </g>
    </g>
</svg>