<?xml version="1.0" encoding="UTF-8"?>
<svg width="9px" height="10px" viewBox="0 0 9 10" version="1.1" xmlns="http://www.w3.org/2000/svg" xmlns:xlink="http://www.w3.org/1999/xlink">
    <!-- Generator: Sketch 52.6 (67491) - http://www.bohemiancoding.com/sketch -->
    <title>T_1</title>
    <desc>Created with Sketch.</desc>
    <g id="CarbUI" stroke="none" stroke-width="1" fill="none" fill-rule="evenodd">
        <g id="Style-Guide" transform="translate(-571.000000, -3942.000000)" fill="#5D7590">
            <g id="T_1" transform="translate(571.000000, 3942.000000)">
                <path d="M0.0375516359,8.7980515 L0.0375516359,9.27222099 L3.81907325,9.27222099 L3.81907325,8.7980515 C3.17290892,8.80491561 2.78512926,8.74854504 2.65573428,8.62893979 C2.52633931,8.50933453 2.52633931,8.16293382 2.65573428,7.58973766 L4.83714352,0.956799186 C6.09667174,0.909042862 6.91199754,0.975820228 7.28312093,1.15713128 C7.65424432,1.33844234 7.97392591,1.82616893 8.2421657,2.62031106 L8.5551681,2.52044917 L8.18240768,0 C7.85000575,0.21025929 7.5502435,0.342527719 7.28312093,0.396805288 C6.63539914,0.528418144 5.03587032,0.469652571 4.4384099,0.469652571 C3.805401,0.469652571 2.00464624,0.469652571 1.52024542,0.396805288 C1.28634515,0.361629874 1.01106738,0.229361445 0.694412115,0 L0,2.52044917 L0.353520299,2.62031106 C0.647327627,1.82438052 0.997539547,1.33665393 1.40415606,1.15713128 C1.81077257,0.977608641 2.59229676,0.910831275 3.74872864,0.956799186 L1.71334567,7.58973766 C1.52007767,8.13797775 1.37215735,8.48437846 1.26958471,8.62893979 C1.16002637,8.78334646 0.749348674,8.83971703 0.0375516359,8.7980515 Z" id="Path-2-Copy-4"></path>
            </g>
        </g>
    </g>
</svg>