<?xml version="1.0" encoding="UTF-8"?>
<svg width="9px" height="12px" viewBox="0 0 9 12" version="1.1" xmlns="http://www.w3.org/2000/svg" xmlns:xlink="http://www.w3.org/1999/xlink">
    <!-- Generator: Sketch 52.6 (67491) - http://www.bohemiancoding.com/sketch -->
    <title>T_3</title>
    <desc>Created with Sketch.</desc>
    <g id="CarbUI" stroke="none" stroke-width="1" fill="none" fill-rule="evenodd">
        <g id="Style-Guide" transform="translate(-653.000000, -3941.000000)">
            <g id="T_3" transform="translate(653.000000, 3941.000000)">
                <path d="M2.38252691,8.82467185 L2.38252691,9.29409964 L6.1955612,9.29409964 L6.1955612,8.82467185 C5.54401217,8.83146732 5.15300102,8.77566045 5.02252775,8.65725125 C4.89205448,8.53884205 4.84369624,8.19590535 4.87745305,7.62844114 L4.87745305,0.947231194 C6.14747733,0.899952433 6.96959752,0.966062026 7.3438136,1.14555997 C7.71802969,1.32505792 8.04037529,1.80790724 8.31085041,2.59410795 L8.62646117,2.49524468 L8.25059441,0 C7.91542246,0.208156697 7.61316219,0.339102442 7.3438136,0.392837235 C6.69069413,0.523133963 5.07783591,0.464956046 4.47539665,0.464956046 C3.83711268,0.464956046 2.02135163,0.464956046 1.53291413,0.392837235 C1.29706469,0.358013575 1.01949294,0.22706783 0.700198883,0 L0,2.49524468 L0.356466302,2.59410795 C0.652722024,1.80613672 1.00585238,1.32328739 1.41585736,1.14555997 C1.82586234,0.967832555 2.61389924,0.901722962 3.77996804,0.947231194 L3.77996804,7.62844114 C3.77996804,8.17119884 3.72825434,8.51413554 3.62482693,8.65725125 C3.5143556,8.81011386 3.10025559,8.86592072 2.38252691,8.82467185 Z" id="Path-2" fill="#5D7590"></path>
                <path d="M0,10.725 L9.05850251,10.725" id="Path-3" stroke="#5D7590" stroke-width="0.825" stroke-dasharray="1.650000035762787"></path>
            </g>
        </g>
    </g>
</svg>