<?xml version="1.0" encoding="UTF-8"?>
<svg width="15px" height="15px" viewBox="0 0 15 15" version="1.1" xmlns="http://www.w3.org/2000/svg" xmlns:xlink="http://www.w3.org/1999/xlink">
    <!-- Generator: Sketch 52.6 (67491) - http://www.bohemiancoding.com/sketch -->
    <title>Bring Front Copy@2x</title>
    <desc>Created with Sketch.</desc>
    <g id="CarbUI" stroke="none" stroke-width="1" fill="none" fill-rule="evenodd">
        <g id="Style-Guide" transform="translate(-534.000000, -4616.000000)">
            <g id="Bring-Front-Copy" transform="translate(534.000000, 4616.000000)">
                <path d="M4.38095238,3 C3.53942857,3 2.85714286,3.68228571 2.85714286,4.52380952 L2.85714286,10.6190476 C2.85714286,11.4605714 3.53942857,12.1428571 4.38095238,12.1428571 L10.4761905,12.1428571 C11.3177143,12.1428571 12,11.4605714 12,10.6190476 L12,4.52380952 C12,3.68228571 11.3177143,3 10.4761905,3 L4.38095238,3 Z" id="Fill-60-Copy-2" fill="#DADFEA"></path>
                <path d="M6.6,13.8 C6.6,14.1312 6.3312,14.4 6,14.4 L1.2,14.4 C0.8688,14.4 0.6,14.1312 0.6,13.8 L0.6,9 C0.6,8.6688 0.8688,8.4 1.2,8.4 L1.8,8.4 L1.8,7.8 L1.2,7.8 C0.5373,7.8 0,8.3373 0,9 L0,13.8 C0,14.4627 0.5373,15 1.2,15 L6,15 C6.6627,15 7.2,14.4627 7.2,13.8 L7.2,13.2 L6.6,13.2 L6.6,13.8 L6.6,13.8 Z" id="Path" fill="#5D7590"></path>
                <path d="M14.4,6 C14.4,6.3312 14.1312,6.6 13.8,6.6 L9,6.6 C8.6688,6.6 8.4,6.3312 8.4,6 L8.4,1.2 C8.4,0.8688 8.6688,0.6 9,0.6 L9.6,0.6 L9.6,0 L9,0 C8.3373,0 7.8,0.5373 7.8,1.2 L7.8,6 C7.8,6.6627 8.3373,7.2 9,7.2 L13.8,7.2 C14.4627,7.2 15,6.6627 15,6 L15,5.4 L14.4,5.4 L14.4,6 L14.4,6 Z" id="Path" fill="#5D7590" transform="translate(11.400000, 3.600000) scale(-1, -1) translate(-11.400000, -3.600000) "></path>
            </g>
        </g>
    </g>
</svg>