<?xml version="1.0" encoding="UTF-8"?>
<svg width="15px" height="16px" viewBox="0 0 15 16" version="1.1" xmlns="http://www.w3.org/2000/svg" xmlns:xlink="http://www.w3.org/1999/xlink">
    <!-- Generator: Sketch 52.6 (67491) - http://www.bohemiancoding.com/sketch -->
    <title>Send to Back Copy@2x</title>
    <desc>Created with Sketch.</desc>
    <g id="CarbUI" stroke="none" stroke-width="1" fill="none" fill-rule="evenodd">
        <g id="Style-Guide" transform="translate(-610.000000, -4618.000000)">
            <g id="Send-to-Back-Copy" transform="translate(610.000000, 4618.000000)">
                <path d="M4.38095238,3.04761905 C3.53942857,3.04761905 2.85714286,3.74073469 2.85714286,4.59561602 L2.85714286,10.7876039 C2.85714286,11.6424853 3.53942857,12.3356009 4.38095238,12.3356009 L10.4761905,12.3356009 C11.3177143,12.3356009 12,11.6424853 12,10.7876039 L12,4.59561602 C12,3.74073469 11.3177143,3.04761905 10.4761905,3.04761905 L4.38095238,3.04761905 Z" id="Fill-60-Copy-2" fill="#DADFEA"></path>
                <path d="M1.25,7.76417234 C0.5596875,7.76417234 -1.70530257e-13,8.33274376 -1.70530257e-13,9.03401361 L-1.70530257e-13,14.1133787 C-1.70530257e-13,14.8146485 0.5596875,15.38322 1.25,15.38322 L6.25,15.38322 C6.9403125,15.38322 7.5,14.8146485 7.5,14.1133787 L7.5,9.03401361 C7.5,8.33274376 6.9403125,7.76417234 6.25,7.76417234 L1.25,7.76417234 Z" id="Fill-60-Copy-2" fill="#5D7590"></path>
                <path d="M8.75,0 C8.0596875,0 7.5,0.568571429 7.5,1.26984127 L7.5,6.34920635 C7.5,7.05047619 8.0596875,7.61904762 8.75,7.61904762 L13.75,7.61904762 C14.4403125,7.61904762 15,7.05047619 15,6.34920635 L15,1.26984127 C15,0.568571429 14.4403125,0 13.75,0 L8.75,0 Z" id="Fill-60-Copy-2" fill="#5D7590"></path>
            </g>
        </g>
    </g>
</svg>