<svg xmlns="http://www.w3.org/2000/svg" width="20" height="21" viewBox="0 0 20 21">
  <g fill="none" fill-rule="evenodd" transform="matrix(-1 0 0 1 20 0)">
    <path fill="#FF386B" d="M5.84126984,4 C4.7192381,4 3.80952381,4.90971429 3.80952381,6.03174603 L3.80952381,14.1587302 C3.80952381,15.2807619 4.7192381,16.1904762 5.84126984,16.1904762 L13.968254,16.1904762 C15.0902857,16.1904762 16,15.2807619 16,14.1587302 L16,6.03174603 C16,4.90971429 15.0902857,4 13.968254,4 L5.84126984,4 Z"/>
    <path fill="#FFF" stroke="#FFF" d="M1.66666667 10.6904762C1.02239237 10.6904762.5 11.2128686.5 11.8571429L.5 18.5238095C.5 19.1680838 1.02239237 19.6904762 1.66666667 19.6904762L8.33333333 19.6904762C8.97760763 19.6904762 9.5 19.1680838 9.5 18.5238095L9.5 11.8571429C9.5 11.2128686 8.97760763 10.6904762 8.33333333 10.6904762L1.66666667 10.6904762zM11.6666667.5C11.0223924.5 10.5 1.02239237 10.5 1.66666667L10.5 8.33333333C10.5 8.97760763 11.0223924 9.5 11.6666667 9.5L18.3333333 9.5C18.9776076 9.5 19.5 8.97760763 19.5 8.33333333L19.5 1.66666667C19.5 1.02239237 18.9776076.5 18.3333333.5L11.6666667.5z"/>
  </g>
</svg>
