<svg xmlns="http://www.w3.org/2000/svg" width="20" height="20" viewBox="0 0 20 20">
  <g fill="none" fill-rule="evenodd" transform="matrix(-1 0 0 1 20 0)">
    <path fill="#FF386B" d="M7.5,0 C6.119375,0 5,1.119375 5,2.5 L5,12.5 C5,13.880625 6.119375,15 7.5,15 L17.5,15 C18.880625,15 20,13.880625 20,12.5 L20,2.5 C20,1.119375 18.880625,0 17.5,0 L7.5,0 Z"/>
    <path fill="#FFF" stroke="#FFF" d="M2.5,5.5 C1.39551737,5.5 0.5,6.39551737 0.5,7.5 L0.5,17.5 C0.5,18.6044826 1.39551737,19.5 2.5,19.5 L12.5,19.5 C13.6044826,19.5 14.5,18.6044826 14.5,17.5 L14.5,7.5 C14.5,6.39551737 13.6044826,5.5 12.5,5.5 L2.5,5.5 Z"/>
  </g>
</svg>
