<svg xmlns="http://www.w3.org/2000/svg" width="20" height="20" viewBox="0 0 20 20">
  <g fill="none" fill-rule="evenodd" transform="matrix(-1 0 0 1 20 0)">
    <path fill="#FF386B" d="M7.5,0 C6.119375,0 5,1.119375 5,2.5 L5,12.5 C5,13.880625 6.119375,15 7.5,15 L17.5,15 C18.880625,15 20,13.880625 20,12.5 L20,2.5 C20,1.119375 18.880625,0 17.5,0 L7.5,0 Z"/>
    <path fill="#FFFFFE" d="M13.75,17.5 C13.75,18.19 13.19,18.75 12.5,18.75 L2.5,18.75 C1.81,18.75 1.25,18.19 1.25,17.5 L1.25,7.5 C1.25,6.81 1.81,6.25 2.5,6.25 L3.75,6.25 L3.75,5 L2.5,5 C1.119375,5 0,6.119375 0,7.5 L0,17.5 C0,18.880625 1.119375,20 2.5,20 L12.5,20 C13.880625,20 15,18.880625 15,17.5 L15,16.25 L13.75,16.25 L13.75,17.5 L13.75,17.5 Z"/>
  </g>
</svg>
