<svg xmlns="http://www.w3.org/2000/svg" width="20" height="20" viewBox="0 0 20 20">
  <g fill="none" fill-rule="evenodd" transform="matrix(-1 0 0 1 20 0)">
    <path fill="#FF386B" d="M5.84126984,4 C4.7192381,4 3.80952381,4.90971429 3.80952381,6.03174603 L3.80952381,14.1587302 C3.80952381,15.2807619 4.7192381,16.1904762 5.84126984,16.1904762 L13.968254,16.1904762 C15.0902857,16.1904762 16,15.2807619 16,14.1587302 L16,6.03174603 C16,4.90971429 15.0902857,4 13.968254,4 L5.84126984,4 Z"/>
    <path fill="#FFFFFE" d="M8.8,18.4 C8.8,18.8416 8.4416,19.2 8,19.2 L1.6,19.2 C1.1584,19.2 0.8,18.8416 0.8,18.4 L0.8,12 C0.8,11.5584 1.1584,11.2 1.6,11.2 L2.4,11.2 L2.4,10.4 L1.6,10.4 C0.7164,10.4 0,11.1164 0,12 L0,18.4 C0,19.2836 0.7164,20 1.6,20 L8,20 C8.8836,20 9.6,19.2836 9.6,18.4 L9.6,17.6 L8.8,17.6 L8.8,18.4 L8.8,18.4 Z"/>
    <path fill="#FFFFFE" d="M19.2,8 C19.2,8.4416 18.8416,8.8 18.4,8.8 L12,8.8 C11.5584,8.8 11.2,8.4416 11.2,8 L11.2,1.6 C11.2,1.1584 11.5584,0.8 12,0.8 L12.8,0.8 L12.8,0 L12,0 C11.1164,0 10.4,0.7164 10.4,1.6 L10.4,8 C10.4,8.8836 11.1164,9.6 12,9.6 L18.4,9.6 C19.2836,9.6 20,8.8836 20,8 L20,7.2 L19.2,7.2 L19.2,8 L19.2,8 Z" transform="rotate(180 15.2 4.8)"/>
  </g>
</svg>
