<?xml version="1.0" encoding="UTF-8"?>
<svg width="16px" height="19px" viewBox="0 0 16 19" version="1.1" xmlns="http://www.w3.org/2000/svg" xmlns:xlink="http://www.w3.org/1999/xlink">
    <!-- Generator: Sketch 48.2 (47327) - http://www.bohemiancoding.com/sketch -->
    <title>Fill 100</title>
    <desc>Created with Sketch.</desc>
    <defs>
        <linearGradient x1="-9.67369661%" y1="15.340855%" x2="100%" y2="77.3768936%" id="linearGradient-1">
            <stop stop-color="#FF4396" offset="0%"></stop>
            <stop stop-color="#FF292C" offset="100%"></stop>
        </linearGradient>
    </defs>
    <g id="Icon/Action_symbol" stroke="none" stroke-width="1" fill="none" fill-rule="evenodd">
        <path d="M14.25,12.7063678 C14.25,13.0457508 13.984,13.3211921 13.65625,13.3211921 L10.6875,13.3211921 L10.6875,5.32847682 L13.65625,5.32847682 C13.984,5.32847682 14.25,5.60391808 14.25,5.94330107 L14.25,12.7063678 L14.25,12.7063678 Z M8.90625,10.9106906 C8.90625,11.261482 8.64025,11.5450331 8.3125,11.5450331 L3.5625,11.5450331 L3.5625,2.66423841 L8.3125,2.66423841 C8.64025,2.66423841 8.90625,2.94842384 8.90625,3.29858089 L8.90625,10.9106906 L8.90625,10.9106906 Z M2.671875,17.158964 C2.671875,17.4922159 2.272875,17.7615894 1.78125,17.7615894 C1.289625,17.7615894 0.890625,17.4922159 0.890625,17.158964 L0.890625,1.49070482 C0.890625,1.15805563 1.289625,0.88807947 1.78125,0.88807947 C2.272875,0.88807947 2.671875,1.15805563 2.671875,1.49070482 L2.671875,17.158964 L2.671875,17.158964 Z M13.929375,4.07961507 L10.295625,4.07961507 L10.295625,2.91401076 C10.295625,2.27059719 9.752985,1.74840646 9.084375,1.74840646 L3.63375,1.74840646 L3.63375,1.1656043 C3.63375,0.522190728 3.09111,0 2.4225,0 L1.21125,0 C0.54264,0 0,0.522190728 0,1.1656043 L0,17.4840646 C0,18.1274781 0.54264,18.6496689 1.21125,18.6496689 L2.4225,18.6496689 C3.09111,18.6496689 3.63375,18.1274781 3.63375,17.4840646 L3.63375,12.2388452 L9.084375,12.2388452 L9.084375,12.8216474 C9.084375,13.4650609 9.6536625,13.9872517 10.295625,13.9872517 L13.929375,13.9872517 C14.597985,13.9872517 15.140625,13.4650609 15.140625,12.8216474 L15.140625,5.24521937 C15.140625,4.60180579 14.597985,4.07961507 13.929375,4.07961507 L13.929375,4.07961507 Z" id="Fill-100" fill="url(#linearGradient-1)"></path>
    </g>
</svg>