<?xml version="1.0" encoding="UTF-8"?>
<svg width="17px" height="18px" viewBox="0 0 17 18" version="1.1" xmlns="http://www.w3.org/2000/svg" xmlns:xlink="http://www.w3.org/1999/xlink">
    <!-- Generator: Sketch 48.2 (47327) - http://www.bohemiancoding.com/sketch -->
    <title>Fill 143</title>
    <desc>Created with Sketch.</desc>
    <defs></defs>
    <g id="Icon/Action_artboard" stroke="none" stroke-width="1" fill="none" fill-rule="evenodd">
        <path d="M15.9032258,10.0657895 L1.09677419,10.0657895 L1.09677419,2.23684211 C1.09677419,1.61947368 1.58812903,1.11842105 2.19354839,1.11842105 L14.8064516,1.11842105 C15.411871,1.11842105 15.9032258,1.61947368 15.9032258,2.23684211 L15.9032258,10.0657895 L15.9032258,10.0657895 Z M15.9032258,12.3026316 C15.9032258,12.92 15.411871,13.4210526 14.8064516,13.4210526 L2.19354839,13.4210526 C1.58812903,13.4210526 1.09677419,12.92 1.09677419,12.3026316 L1.09677419,11.1842105 L15.9032258,11.1842105 L15.9032258,12.3026316 L15.9032258,12.3026316 Z M7.67741935,14.5394737 L9.87096774,14.5394737 L9.87096774,16.7763158 L7.67741935,16.7763158 L7.67741935,14.5394737 Z M14.8064516,0 L2.19354839,0 C0.98216129,0 0,1.00154605 0,2.23684211 L0,12.3026316 C0,13.5379276 0.98216129,14.5394737 2.19354839,14.5394737 L6.58064516,14.5394737 L6.58064516,16.7763158 L5.48387097,16.7763158 C5.1806129,16.7763158 4.93548387,17.0268421 4.93548387,17.3355263 C4.93548387,17.6447697 5.1806129,17.8947368 5.48387097,17.8947368 L12.0645161,17.8947368 C12.3677742,17.8947368 12.6129032,17.6447697 12.6129032,17.3355263 C12.6129032,17.0268421 12.3677742,16.7763158 12.0645161,16.7763158 L10.9677419,16.7763158 L10.9677419,14.5394737 L14.8064516,14.5394737 C16.0178387,14.5394737 17,13.5379276 17,12.3026316 L17,2.23684211 C17,1.00154605 16.0178387,0 14.8064516,0 L14.8064516,0 Z" id="Fill-143" fill="#9B9B9B"></path>
    </g>
</svg>