<?xml version="1.0" encoding="UTF-8"?>
<svg width="19px" height="19px" viewBox="0 0 19 19" version="1.1" xmlns="http://www.w3.org/2000/svg" xmlns:xlink="http://www.w3.org/1999/xlink">
    <!-- Generator: Sketch 48.2 (47327) - http://www.bohemiancoding.com/sketch -->
    <title>Fill 38</title>
    <desc>Created with Sketch.</desc>
    <defs>
        <linearGradient x1="3.50598726%" y1="94.3462675%" x2="98.509915%" y2="-4.60361858%" id="linearGradient-1">
            <stop stop-color="#FF4396" offset="0%"></stop>
            <stop stop-color="#FF292C" offset="100%"></stop>
        </linearGradient>
    </defs>
    <g id="Icon/Action_columns" stroke="none" stroke-width="1" fill="none" fill-rule="evenodd">
        <path d="M16.625,17.6428571 L2.375,17.6428571 C1.7195,17.6428571 1.1875,17.0321429 1.1875,16.2857143 C1.1875,15.5392857 1.7195,14.9285714 2.375,14.9285714 L16.625,14.9285714 C17.2805,14.9285714 17.8125,15.5392857 17.8125,16.2857143 C17.8125,17.0321429 17.2805,17.6428571 16.625,17.6428571 L16.625,17.6428571 Z M2.375,13.5714286 C1.06340625,13.5714286 0,14.7860714 0,16.2857143 C0,17.7853571 1.06340625,19 2.375,19 L16.625,19 C17.9365938,19 19,17.7853571 19,16.2857143 C19,14.7860714 17.9365938,13.5714286 16.625,13.5714286 L2.375,13.5714286 Z M16.625,10.8571429 L2.375,10.8571429 C1.7195,10.8571429 1.1875,10.2464286 1.1875,9.5 C1.1875,8.75357143 1.7195,8.14285714 2.375,8.14285714 L16.625,8.14285714 C17.2805,8.14285714 17.8125,8.75357143 17.8125,9.5 C17.8125,10.2464286 17.2805,10.8571429 16.625,10.8571429 L16.625,10.8571429 Z M16.625,6.78571429 L2.375,6.78571429 C1.06340625,6.78571429 0,8.00035714 0,9.5 C0,10.9996429 1.06340625,12.2142857 2.375,12.2142857 L16.625,12.2142857 C17.9365938,12.2142857 19,10.9996429 19,9.5 C19,8.00035714 17.9365938,6.78571429 16.625,6.78571429 L16.625,6.78571429 Z M2.375,1.35714286 L16.625,1.35714286 C17.2805,1.35714286 17.8125,1.96785714 17.8125,2.71428571 C17.8125,3.46071429 17.2805,4.07142857 16.625,4.07142857 L2.375,4.07142857 C1.7195,4.07142857 1.1875,3.46071429 1.1875,2.71428571 C1.1875,1.96785714 1.7195,1.35714286 2.375,1.35714286 L2.375,1.35714286 Z M2.375,5.42857143 L16.625,5.42857143 C17.9365938,5.42857143 19,4.21392857 19,2.71428571 C19,1.21464286 17.9365938,0 16.625,0 L2.375,0 C1.06340625,0 0,1.21464286 0,2.71428571 C0,4.21392857 1.06340625,5.42857143 2.375,5.42857143 L2.375,5.42857143 Z" id="Fill-38" fill="url(#linearGradient-1)" transform="translate(9.500000, 9.500000) rotate(-270.000000) translate(-9.500000, -9.500000) "></path>
    </g>
</svg>