<?xml version="1.0" encoding="UTF-8"?>
<svg width="15px" height="17px" viewBox="0 0 15 17" version="1.1" xmlns="http://www.w3.org/2000/svg" xmlns:xlink="http://www.w3.org/1999/xlink">
    <!-- Generator: Sketch 48.2 (47327) - http://www.bohemiancoding.com/sketch -->
    <title>Fill 156</title>
    <desc>Created with Sketch.</desc>
    <defs>
        <linearGradient x1="0%" y1="26.3848833%" x2="93.8302142%" y2="89.2562228%" id="linearGradient-1">
            <stop stop-color="#FF4396" offset="0%"></stop>
            <stop stop-color="#FF292C" offset="100%"></stop>
        </linearGradient>
    </defs>
    <g id="icon/library_logo" stroke="none" stroke-width="1" fill="none" fill-rule="evenodd">
        <path d="M7.90106732,15.25 C4.64162562,15.25 2,12.5134809 2,9.44147139 C2,8.72810748 2.01590722,8.14904185 2.51313629,7.59040183 C2.45925698,7.91414751 3.22998768,10.6823263 5.74846059,10.5373046 C5.63916256,8.43397891 5.06752874,3.2811119 7.72249589,1.5 C7.48799261,4.30034909 8.17713465,8.06223307 11.2513342,8.61168158 C11.0753284,7.48878449 11.096367,5.62086382 11.8865969,5.27567126 C11.9717775,6.99601701 13.25,8.05712668 13.25,9.7105786 C13.25,12.7049708 10.3389778,15.25 7.90106732,15.25 L7.90106732,15.25 Z M12.8632212,3.78082031 C10.5442308,4.41558594 10.1195673,6.21578125 10.2692308,7.359375 C8.615,5.49164063 8.68269231,3.34410156 8.68269231,0.25 C3.37730769,2.17105469 4.61110577,7.70875 4.45192308,9.390625 C3.11764423,8.34199219 2.86538462,5.8359375 2.86538462,5.8359375 C1.45653846,6.53214844 0.75,8.39074219 0.75,9.8984375 C0.75,13.5445312 3.82788462,16.5 7.625,16.5 C11.4221154,16.5 14.5,13.5445312 14.5,9.8984375 C14.5,7.73160156 12.843125,6.73222656 12.8632212,3.78082031 L12.8632212,3.78082031 Z" id="Fill-156" fill="url(#linearGradient-1)"></path>
    </g>
</svg>