<?xml version="1.0" encoding="UTF-8"?>
<svg width="18px" height="18px" viewBox="0 0 18 18" version="1.1" xmlns="http://www.w3.org/2000/svg" xmlns:xlink="http://www.w3.org/1999/xlink">
    <!-- Generator: Sketch 48.2 (47327) - http://www.bohemiancoding.com/sketch -->
    <title>Fill 133</title>
    <desc>Created with Sketch.</desc>
    <defs></defs>
    <g id="Icon/Action_BA" stroke="none" stroke-width="1" fill="none" fill-rule="evenodd">
        <path d="M15.1875,2.25 C14.8764375,2.25 14.625,2.5014375 14.625,2.8125 C14.625,3.1235625 14.8764375,3.375 15.1875,3.375 C15.4985625,3.375 15.75,3.1235625 15.75,2.8125 C15.75,2.5014375 15.4985625,2.25 15.1875,2.25 L15.1875,2.25 Z M16.875,15.75 C16.875,16.371 16.371,16.875 15.75,16.875 L2.25,16.875 C1.629,16.875 1.125,16.371 1.125,15.75 L1.125,2.25 C1.125,1.629 1.629,1.125 2.25,1.125 L15.75,1.125 C16.371,1.125 16.875,1.629 16.875,2.25 L16.875,15.75 L16.875,15.75 Z M15.75,0 L2.25,0 C1.0074375,0 0,1.0074375 0,2.25 L0,15.75 C0,16.9925625 1.0074375,18 2.25,18 L15.75,18 C16.9925625,18 18,16.9925625 18,15.75 L18,2.25 C18,1.0074375 16.9925625,0 15.75,0 L15.75,0 Z M9,11.25 C7.7574375,11.25 6.75,10.2425625 6.75,9 C6.75,7.7574375 7.7574375,6.75 9,6.75 C10.2425625,6.75 11.25,7.7574375 11.25,9 C11.25,10.2425625 10.2425625,11.25 9,11.25 L9,11.25 Z M9,5.625 C7.1364375,5.625 5.625,7.1364375 5.625,9 C5.625,10.8635625 7.1364375,12.375 9,12.375 C10.8635625,12.375 12.375,10.8635625 12.375,9 C12.375,7.1364375 10.8635625,5.625 9,5.625 L9,5.625 Z M9,14.625 C5.893875,14.625 3.375,12.1066875 3.375,9 C3.375,5.893875 5.893875,3.375 9,3.375 C12.106125,3.375 14.625,5.893875 14.625,9 C14.625,12.1066875 12.106125,14.625 9,14.625 L9,14.625 Z M9,2.25 C5.2723125,2.25 2.25,5.2723125 2.25,9 C2.25,12.72825 5.2723125,15.75 9,15.75 C12.7276875,15.75 15.75,12.72825 15.75,9 C15.75,5.2723125 12.7276875,2.25 9,2.25 L9,2.25 Z M2.8125,14.625 C2.5014375,14.625 2.25,14.8764375 2.25,15.1875 C2.25,15.4985625 2.5014375,15.75 2.8125,15.75 C3.1235625,15.75 3.375,15.4985625 3.375,15.1875 C3.375,14.8764375 3.1235625,14.625 2.8125,14.625 L2.8125,14.625 Z M2.8125,3.375 C3.1235625,3.375 3.375,3.1235625 3.375,2.8125 C3.375,2.5014375 3.1235625,2.25 2.8125,2.25 C2.5014375,2.25 2.25,2.5014375 2.25,2.8125 C2.25,3.1235625 2.5014375,3.375 2.8125,3.375 L2.8125,3.375 Z M15.1875,14.625 C14.8764375,14.625 14.625,14.8764375 14.625,15.1875 C14.625,15.4985625 14.8764375,15.75 15.1875,15.75 C15.4985625,15.75 15.75,15.4985625 15.75,15.1875 C15.75,14.8764375 15.4985625,14.625 15.1875,14.625 L15.1875,14.625 Z" id="Fill-133" fill="#9B9B9B"></path>
    </g>
</svg>