<svg xmlns="http://www.w3.org/2000/svg" width="20" height="12" viewBox="0 0 20 12">
  <path id="google" d="M5.833,12A5.925,5.925,0,0,1,0,6,5.925,5.925,0,0,1,5.833,0,5.538,5.538,0,0,1,9.742,1.569L8.158,3.137a3.223,3.223,0,0,0-2.326-.926A3.71,3.71,0,0,0,2.217,6,3.709,3.709,0,0,0,5.833,9.788,3.168,3.168,0,0,0,9.141,7.2H5.833V5.143h.008l.016,0h5.484a6.507,6.507,0,0,1,.083.677c.007.111.01.214.01.318A6,6,0,0,1,9.9,10.354,5.426,5.426,0,0,1,5.833,12ZM17.5,9.428H15.834V6.857h-2.5V5.143h2.5V2.571H17.5V5.143H20V6.857H17.5v2.57Z" fill="#fff" opacity="0.654"/>
</svg>
