<?xml version="1.0" encoding="UTF-8"?>
<svg width="11px" height="12px" viewBox="0 0 11 12" version="1.1" xmlns="http://www.w3.org/2000/svg" xmlns:xlink="http://www.w3.org/1999/xlink">
    <!-- Generator: Sketch 48.2 (47327) - http://www.bohemiancoding.com/sketch -->
    <title>Layers</title>
    <desc>Created with Sketch.</desc>
    <defs>
        <linearGradient x1="0%" y1="0%" x2="111.56719%" y2="100%" id="linearGradient-1">
            <stop stop-color="#FF4396" offset="0%"></stop>
            <stop stop-color="#FF292C" offset="100%"></stop>
        </linearGradient>
    </defs>
    <g id="icon/layer_logo" stroke="none" stroke-width="1" fill="none" fill-rule="evenodd">
        <path d="M4.60586632,5.80500719 L0.254504396,3.50421509 C0.0797149814,3.40361066 -0.00417426732,3.20069179 0.000177336358,3.00005292 C-0.00441602308,2.79713406 0.080198493,2.59193521 0.256921954,2.49047577 C0.256921954,2.49047577 3.16282619,0.867409873 4.66292068,0.187973682 C5.22186,-0.0651048991 5.8366449,-0.0625399135 6.39413368,0.195098642 L10.7454956,2.49589074 C10.920285,2.59649518 11.0041743,2.79941404 10.9998227,2.99976792 C11.004416,3.20297178 10.9198015,3.40817063 10.7428363,3.50963006 C10.7428363,3.50963006 7.83717381,5.13269596 6.33707932,5.81213215 C5.77814,6.06521073 5.16335511,6.06236075 4.60586632,5.80500719 Z M10.7454956,5.51600329 C10.920285,5.61603028 11.0041743,5.81778445 10.9998227,6.01727172 C11.004416,6.21902589 10.9198015,6.42304696 10.7428363,6.52392404 C10.7428363,6.52392404 7.83717381,8.13767403 6.33707932,8.81321046 C5.77814,9.06483644 5.16335511,9.06200282 4.60586632,8.80612639 L0.254504396,6.51854015 C0.0797149814,6.41851316 -0.00417426732,6.21675899 0.000177336358,6.01755508 C-0.00441602308,5.81551755 0.080198493,5.61149648 0.256921954,5.5106194 C0.256921954,5.5106194 0.636236741,5.30008099 1.19009919,5 L4.60586632,6.79566877 C5.16335511,7.0515452 5.77814,7.05437882 6.33707932,6.80275284 C7.29588267,6.37090824 8.82837243,5.55624078 9.80990082,5.02436918 L10.7454956,5.51600329 Z M10.7454956,8.51600329 C10.920285,8.61603028 11.0041743,8.81778445 10.9998227,9.01727172 C11.004416,9.21902589 10.9198015,9.42304696 10.7428363,9.52392404 C10.7428363,9.52392404 7.83717381,11.137674 6.33707932,11.8132105 C5.77814,12.0648364 5.16335511,12.0620028 4.60586632,11.8061264 L0.254504396,9.51854015 C0.0797149814,9.41851316 -0.00417426732,9.21675899 0.000177336358,9.01755508 C-0.00441602308,8.81551755 0.080198493,8.61149648 0.256921954,8.5106194 C0.256921954,8.5106194 0.636236741,8.30008099 1.19009919,8 L4.60586632,9.79566877 C5.16335511,10.0515452 5.77814,10.0543788 6.33707932,9.8030362 C7.29588267,9.37090824 8.82837243,8.55624078 9.80990082,8.02436918 L10.7454956,8.51600329 Z" id="Layers" fill="url(#linearGradient-1)"></path>
    </g>
</svg>