<?xml version="1.0" encoding="UTF-8"?>
<svg width="10px" height="10px" viewBox="0 0 10 10" version="1.1" xmlns="http://www.w3.org/2000/svg" xmlns:xlink="http://www.w3.org/1999/xlink">
    <!-- Generator: Sketch 48.2 (47327) - http://www.bohemiancoding.com/sketch -->
    <title>Fill 216</title>
    <desc>Created with Sketch.</desc>
    <defs>
        <linearGradient x1="16.1132353%" y1="0%" x2="81.5587243%" y2="100%" id="linearGradient-1">
            <stop stop-color="#F0562C" offset="0%"></stop>
            <stop stop-color="#EB0487" offset="100%"></stop>
        </linearGradient>
    </defs>
    <g id="icon/layer_image" stroke="none" stroke-width="1" fill="none" fill-rule="evenodd">
        <path d="M9.375,8.75 C9.375,9.095 9.095,9.375 8.75,9.375 L7.135,9.375 L4.8325,7.0421875 L7.5,4.3746875 L9.375,6.2496875 L9.375,8.75 L9.375,8.75 Z M1.25,9.375 C0.905,9.375 0.625,9.095 0.625,8.75 L0.625,8.4565625 L3.1078125,6.2328125 L6.2503125,9.375 L1.25,9.375 L1.25,9.375 Z M2.5,1.25 C3.1903125,1.25 3.75,1.8096875 3.75,2.5 C3.75,3.1903125 3.1903125,3.75 2.5,3.75 C1.8096875,3.75 1.25,3.1903125 1.25,2.5 C1.25,1.8096875 1.8096875,1.25 2.5,1.25 L2.5,1.25 Z M8.75,0 L1.25,0 C0.5596875,0 0,0.5596875 0,1.25 L0,8.75 C0,9.4403125 0.5596875,10 1.25,10 L8.75,10 C9.4403125,10 10,9.4403125 10,8.75 L10,1.25 C10,0.5596875 9.4403125,0 8.75,0 L8.75,0 Z M2.5,3.125 C2.845,3.125 3.125,2.845 3.125,2.5 C3.125,2.155 2.845,1.875 2.5,1.875 C2.155,1.875 1.875,2.155 1.875,2.5 C1.875,2.845 2.155,3.125 2.5,3.125 L2.5,3.125 Z" id="Fill-216" fill="url(#linearGradient-1)"></path>
    </g>
</svg>