<?xml version="1.0" encoding="UTF-8"?>
<svg width="11px" height="6px" viewBox="0 0 11 6" version="1.1" xmlns="http://www.w3.org/2000/svg" xmlns:xlink="http://www.w3.org/1999/xlink">
    <!-- Generator: Sketch 48.2 (47327) - http://www.bohemiancoding.com/sketch -->
    <title>view_simple [#815]</title>
    <desc>Created with Sketch.</desc>
    <defs></defs>
    <g id="Design-Text-Edit-Copy-2" stroke="none" stroke-width="1" fill="none" fill-rule="evenodd" transform="translate(-260.000000, -939.000000)">
        <path d="M266,942 C266,942.5525 265.5525,943 265,943 C264.4475,943 264,942.5525 264,942 C264,941.4475 264.4475,941 265,941 C265.5525,941 266,941.4475 266,942 M265,944 C263.427049,944 261.945139,943.24752 261,942.000265 C261.945139,940.75301 263.427049,940 265,940 C266.572951,940 268.054861,940.75301 269,942.000265 C268.054861,943.24752 266.572951,944 265,944 M265.5,939 C263.1482,939 261.09945,940.208409 260,942.00026 C261.09945,943.79211 263.1482,945 265.5,945 C267.8518,945 269.90055,943.79211 271,942.00026 C269.90055,940.208409 267.8518,939 265.5,939" id="view_simple-[#815]" fill="#FFFFFF"></path>
    </g>
</svg>