<?xml version="1.0" encoding="UTF-8"?>
<svg width="22px" height="25px" viewBox="0 0 22 25" version="1.1" xmlns="http://www.w3.org/2000/svg" xmlns:xlink="http://www.w3.org/1999/xlink">
    <!-- Generator: Sketch 48.2 (47327) - http://www.bohemiancoding.com/sketch -->
    <title>Library</title>
    <desc>Created with Sketch.</desc>
    <defs>
        <linearGradient x1="0%" y1="26.3848833%" x2="93.8302142%" y2="89.2562228%" id="linearGradient-1">
            <stop stop-color="#FF4396" offset="0%"></stop>
            <stop stop-color="#FF292C" offset="100%"></stop>
        </linearGradient>
    </defs>
    <g id="Icon/LOGO_LIBRARY" stroke="none" stroke-width="1" fill="none" fill-rule="evenodd">
        <g id="Library" fill="url(#linearGradient-1)">
            <path d="M11.9184455,23.9583333 C6.48604269,23.9583333 2.08333333,19.6047802 2.08333333,14.7174924 C2.08333333,13.5825952 2.10984537,12.6613545 2.93856048,11.772609 C2.84876163,12.2876589 4.13331281,16.6915797 8.33076765,16.4608633 C8.14860427,13.1146634 7.19588123,4.91692044 11.6208265,2.08333333 C11.2299877,6.53843416 12.3785577,12.5232496 17.5022236,13.3973722 C17.2088807,11.610945 17.243945,8.63925304 18.5609948,8.09008306 C18.7029625,10.8269968 20.8333333,12.5151258 20.8333333,15.1456175 C20.8333333,19.9094233 15.9816297,23.9583333 11.9184455,23.9583333 L11.9184455,23.9583333 Z M19.2710337,5.43203125 C15.5817308,6.40859375 14.9061298,9.178125 15.1442308,10.9375 C12.5125,8.0640625 12.6201923,4.76015625 12.6201923,0 C4.17980769,2.95546875 6.14266827,11.475 5.88942308,14.0625 C3.76670673,12.4492187 3.36538462,8.59375 3.36538462,8.59375 C1.12403846,9.66484375 0,12.5242187 0,14.84375 C0,20.453125 4.89663462,25 10.9375,25 C16.9783654,25 21.875,20.453125 21.875,14.84375 C21.875,11.5101562 19.2390625,9.97265625 19.2710337,5.43203125 L19.2710337,5.43203125 Z" id="Fill-156"></path>
        </g>
    </g>
</svg>