<svg xmlns="http://www.w3.org/2000/svg" width="7" height="10" viewBox="0 0 7 10">
  <path fill="#4A4A4A" fill-rule="evenodd" d="M4.1875,8.3125 C4.1875,8.4853125 4.0478125,8.625 3.875,8.625 C3.7021875,8.625 3.5625,8.4853125 3.5625,8.3125 L3.5625,7.0625 C3.5625,6.89 3.7021875,6.75 3.875,6.75 C4.0478125,6.75 4.1875,6.89 4.1875,7.0625 L4.1875,8.3125 L4.1875,8.3125 Z M1.98498934,4.879375 L2,4 C2,2.9646875 2.8396875,2.125 3.875,2.125 C4.87688873,2.125 5.68152248,2.91134613 5.73243147,3.90036202 C5.73412983,3.93335634 5.73243147,4.82618011 5.73243147,4.85960388 C5.73243147,4.85960388 5.90145755,4.99227466 6.01069641,5.09919739 C6.05264903,5.14026051 6.12388363,5.19845651 6.188797,5.27102661 C6.2850188,5.37859807 6.37256641,5.5 6.37256641,5.5 C6.37256641,5.46270457 6.37418316,3.92559979 6.37256641,3.88870256 C6.31433303,2.55971551 5.21832957,1.5 3.875,1.5 C2.494375,1.5 1.375,2.619375 1.375,4 L1.375,5.5059375 C0.984375,6.0275 0.75,6.673125 0.75,7.375 C0.75,9.1009375 2.149375,10.5 3.875,10.5 C5.600625,10.5 7,9.1009375 7,7.375 C7,5.649375 5.600625,4.25 3.875,4.25 C3.170625,4.25 2.50780184,4.4859375 1.98498934,4.879375 Z" transform="translate(0 -1)"/>
</svg>
