<?xml version="1.0" encoding="UTF-8"?>
<svg width="7px" height="11px" viewBox="0 0 7 11" version="1.1" xmlns="http://www.w3.org/2000/svg" xmlns:xlink="http://www.w3.org/1999/xlink">
    <!-- Generator: Sketch 48.2 (47327) - http://www.bohemiancoding.com/sketch -->
    <title>Fill 174@3x</title>
    <desc>Created with Sketch.</desc>
    <defs></defs>
    <g id="icon/proporties_lock" stroke="none" stroke-width="1" fill="none" fill-rule="evenodd">
        <path d="M4.1875,8.3125 C4.1875,8.4853125 4.0478125,8.625 3.875,8.625 C3.7021875,8.625 3.5625,8.4853125 3.5625,8.3125 L3.5625,7.0625 C3.5625,6.89 3.7021875,6.75 3.875,6.75 C4.0478125,6.75 4.1875,6.89 4.1875,7.0625 L4.1875,8.3125 L4.1875,8.3125 Z M3.875,4.25 C3.170625,4.25 2.5228125,4.4859375 2,4.879375 L2,3 C2,1.9646875 2.8396875,1.125 3.875,1.125 C4.9103125,1.125 5.75,1.9646875 5.75,3 L6.375,3 C6.375,1.619375 5.255625,0.5 3.875,0.5 C2.494375,0.5 1.375,1.619375 1.375,3 L1.375,5.5059375 C0.984375,6.0275 0.75,6.673125 0.75,7.375 C0.75,9.1009375 2.149375,10.5 3.875,10.5 C5.600625,10.5 7,9.1009375 7,7.375 C7,5.649375 5.600625,4.25 3.875,4.25 L3.875,4.25 Z" id="Fill-174" fill="#4A4A4A"></path>
    </g>
</svg>