<svg xmlns="http://www.w3.org/2000/svg" width="17" height="19" viewBox="0 0 17 19">
  <g fill="#9B9B9B" fill-rule="evenodd">
    <path d="M6.8 3.25524476L10.0454545 0 13.2909091 3.25524476 10.9727273 3.25524476 10.9727273 6.97552448 9.11818182 6.97552448 9.11818182 3.25524476 6.8 3.25524476 6.8 3.25524476zM17 8.83566434L13.7545455 12.0909091 10.5090909 8.83566434 12.8272727 8.83566434 12.8272727 5.11538462 14.6818182 5.11538462 14.6818182 8.83566434 17 8.83566434 17 8.83566434zM13.2458333 16.5530303C13.2458333 17.2283939 12.7063667 17.7765152 12.0416667 17.7765152L2.40833333 17.7765152C1.74363333 17.7765152 1.20416667 17.2283939 1.20416667 16.5530303L1.20416667 6.76515152C1.20416667 6.08978788 1.74363333 5.54166667 2.40833333 5.54166667L3.6125 5.54166667 3.6125 4.31818182 2.40833333 4.31818182C1.07833125 4.31818182 0 5.4138125 0 6.76515152L0 16.5530303C0 17.9043693 1.07833125 19 2.40833333 19L12.0416667 19C13.3716688 19 14.45 17.9043693 14.45 16.5530303L14.45 15.3295455 13.2458333 15.3295455 13.2458333 16.5530303 13.2458333 16.5530303z"/>
  </g>
</svg>
