<svg xmlns="http://www.w3.org/2000/svg" width="17" height="15" viewBox="0 0 17 15">
  <path fill="#9B9B9B" fill-rule="evenodd" d="M5.18311915,10.8357191 C5.60101721,10.8962458 6.55137225,10.9615385 6.99185939,10.9615385 C10.8535171,10.9615385 13.4458834,8.41512542 13.4458834,5.42119565 C13.4458834,2.42726589 10.2065012,0 6.99185939,0 C3.12536115,0 0,2.42726589 0,5.42119565 C0,7.15597826 0.745977613,8.62816054 2.15134135,9.68857023 L2.15134135,12.3913043 L5.18311915,10.8357191 L5.18311915,10.8357191 Z M14.3401739,4.56521739 C14.3499937,4.69576058 14.3665323,4.82539088 14.3665323,4.95821629 C14.3665323,5.24851513 14.3344887,5.53288019 14.2884908,5.81359368 C14.9841457,6.53295055 15.4001949,7.41936619 15.4001949,8.38155165 C15.4001949,9.90333832 14.3706669,11.239352 12.8160383,12.0130258 L12.8160383,13.6306659 L11.0520931,12.5922541 C10.6226063,12.6712191 10.1765808,12.7177764 9.71505047,12.7177764 C8.37645737,12.7177764 7.66529748,12.3626624 6.69365461,11.7724794 C6.41198155,11.792563 6.12772433,11.804887 5.83881562,11.804887 C5.63311676,11.804887 5.43155255,11.7921065 5.22895467,11.7816083 C6.45953003,12.8437552 7.72473308,13.5165547 9.71505047,13.5165547 C10.1383353,13.5165547 10.5512835,13.4827778 10.9528615,13.4248093 L13.849701,15 L13.849701,12.411502 C15.4208682,11.4607277 16.4338575,9.98595482 16.4338575,8.32449606 C16.4338575,6.8437894 15.6270839,5.51097084 14.3401739,4.56521739 L14.3401739,4.56521739 Z M9.71091582,6.52173913 C10.1237542,6.52173913 10.4579093,6.23 10.4579093,5.86956522 C10.4579093,5.50956522 10.1237542,5.2173913 9.71091582,5.2173913 C9.2980774,5.2173913 8.96392229,5.50956522 8.96392229,5.86956522 C8.96392229,6.23 9.2980774,6.52173913 9.71091582,6.52173913 L9.71091582,6.52173913 Z M3.73496762,6.52173913 C4.14780604,6.52173913 4.48196115,6.23 4.48196115,5.86956522 C4.48196115,5.50956522 4.14780604,5.2173913 3.73496762,5.2173913 C3.3221292,5.2173913 2.9879741,5.50956522 2.9879741,5.86956522 C2.9879741,6.23 3.3221292,6.52173913 3.73496762,6.52173913 L3.73496762,6.52173913 Z M6.72294172,6.52173913 C7.13578014,6.52173913 7.46993525,6.23 7.46993525,5.86956522 C7.46993525,5.50956522 7.13578014,5.2173913 6.72294172,5.2173913 C6.3101033,5.2173913 5.9759482,5.50956522 5.9759482,5.86956522 C5.9759482,6.23 6.3101033,6.52173913 6.72294172,6.52173913 L6.72294172,6.52173913 Z"/>
</svg>
