<svg xmlns="http://www.w3.org/2000/svg" width="20" height="19" viewBox="0 0 20 19">
  <g fill="none" fill-rule="evenodd">
    <path fill="#9B9B9B" d="M8.33943834,3.04 C7.476337,3.04 6.77655678,3.73138286 6.77655678,4.58412698 L6.77655678,10.7606349 C6.77655678,11.613379 7.476337,12.3047619 8.33943834,12.3047619 L14.5909646,12.3047619 C15.4540659,12.3047619 16.1538462,11.613379 16.1538462,10.7606349 L16.1538462,4.58412698 C16.1538462,3.73138286 15.4540659,3.04 14.5909646,3.04 L8.33943834,3.04 Z M12.4420024,13.655873 C12.4420024,14.0820521 12.091917,14.4279365 11.6605617,14.4279365 L5.40903541,14.4279365 C4.9776801,14.4279365 4.62759463,14.0820521 4.62759463,13.655873 L4.62759463,7.47936508 C4.62759463,7.05318603 4.9776801,6.70730159 5.40903541,6.70730159 L6.19047619,6.70730159 L6.19047619,5.9352381 L5.40903541,5.9352381 C4.54593407,5.9352381 3.84615385,6.62662095 3.84615385,7.47936508 L3.84615385,13.655873 C3.84615385,14.5086171 4.54593407,15.2 5.40903541,15.2 L11.6605617,15.2 C12.523663,15.2 13.2234432,14.5086171 13.2234432,13.655873 L13.2234432,12.8838095 L12.4420024,12.8838095 L12.4420024,13.655873 L12.4420024,13.655873 Z"/>
    <rect width="19.226" height="18.226" x=".387" y=".387" stroke="#9B9B9B" stroke-width=".774" rx="4.643"/>
  </g>
</svg>
