<svg xmlns="http://www.w3.org/2000/svg" width="19" height="19" viewBox="0 0 19 19"><rect width="19" height="19" fill="rgba(0,0,0,0)"/><rect width="19" height="19" fill="none"/><path d="M1.727,13.458A1.553,1.553,0,0,1,0,11.731V5.686A1.553,1.553,0,0,1,1.727,3.959h.648v4.75A2.376,2.376,0,0,0,4.75,11.084H9.5v.648a1.553,1.553,0,0,1-1.727,1.727ZM11.084,9.5V4.75A2.376,2.376,0,0,0,8.708,2.375H3.959V1.727A1.553,1.553,0,0,1,5.686,0h6.046a1.553,1.553,0,0,1,1.727,1.727V7.773A1.553,1.553,0,0,1,11.731,9.5Z" transform="translate(2.375 3.167)" fill="#5d7590"/><path d="M1.008,0H4.534A.906.906,0,0,1,5.542,1.008V4.534A.906.906,0,0,1,4.534,5.542H1.008A.906.906,0,0,1,0,4.534V1.008A.906.906,0,0,1,1.008,0Z" transform="translate(6.333 7.125)" fill="#fff"/></svg>