<?xml version="1.0" encoding="UTF-8"?>
<svg width="20px" height="20px" viewBox="0 0 20 20" version="1.1" xmlns="http://www.w3.org/2000/svg" xmlns:xlink="http://www.w3.org/1999/xlink">
    <!-- Generator: Sketch 48.2 (47327) - http://www.bohemiancoding.com/sketch -->
    <title>Grind</title>
    <desc>Created with Sketch.</desc>
    <defs>
        <linearGradient x1="16.1132353%" y1="0%" x2="81.5587243%" y2="100%" id="linearGradient-1">
            <stop stop-color="#F0562C" offset="0%"></stop>
            <stop stop-color="#EB0487" offset="100%"></stop>
        </linearGradient>
        <path d="M12.0387569,3.21446291 L10.8333333,0 L9.16666667,0 L7.96124307,3.21446291 C7.5007206,3.35263475 7.05991881,3.53640782 6.64408222,3.76053762 L3.51818784,2.33967654 L2.33967654,3.51818784 L3.76053762,6.64408222 C3.53640782,7.05991881 3.35263475,7.5007206 3.21446291,7.96124307 L1.020539e-16,9.16666667 L0,10.8333333 L3.21446291,12.0387569 C3.35263475,12.4992794 3.53640782,12.9400812 3.76053762,13.3559178 L2.33967654,16.4818122 L3.51818784,17.6603235 L6.64408222,16.2394624 C7.05991881,16.4635922 7.5007206,16.6473652 7.96124307,16.7855371 L9.16666667,20 L10.8333333,20 L12.0387569,16.7855371 C12.4992794,16.6473652 12.9400812,16.4635922 13.3559178,16.2394624 L16.4818122,17.6603235 L17.6603235,16.4818122 L16.2394624,13.3559178 C16.4635922,12.9400812 16.6473652,12.4992794 16.7855371,12.0387569 L20,10.8333333 L20,9.16666667 L16.7855371,7.96124307 C16.6473652,7.5007206 16.4635922,7.05991881 16.2394624,6.64408222 L17.6603235,3.51818784 L16.4818122,2.33967654 L13.3559178,3.76053762 C12.9400812,3.53640782 12.4992794,3.35263475 12.0387569,3.21446291 L12.0387569,3.21446291 L12.0387569,3.21446291 Z M10,15 C12.7614237,15 15,12.7614237 15,10 C15,7.23857625 12.7614237,5 10,5 C7.23857625,5 5,7.23857625 5,10 C5,12.7614237 7.23857625,15 10,15 L10,15 Z" id="path-2"></path>
    </defs>
    <g id="Icon/Action_settings" stroke="none" stroke-width="1" fill="none" fill-rule="evenodd">
        <g id="Grind">
            <use fill="url(#linearGradient-1)" fill-rule="evenodd" xlink:href="#path-2"></use>
            <path stroke="url(#linearGradient-1)" stroke-width="0.72" d="M10.5838532,0.36 L9.41614684,0.36 L8.23565224,3.50798559 L8.06469868,3.55927727 C7.63091178,3.68942756 7.21243543,3.86316505 6.8148868,4.07743791 L6.65768653,4.16216654 L3.59633716,2.7706441 L2.7706441,3.59633716 L4.16216654,6.65768653 L4.07743791,6.8148868 C3.86316505,7.21243543 3.68942756,7.63091178 3.55927727,8.06469868 L3.50798559,8.23565224 L0.36,9.41614684 L0.36,10.5838532 L3.50798559,11.7643478 L3.55927727,11.9353013 C3.68942756,12.3690882 3.86316505,12.7875646 4.07743791,13.1851132 L4.16216654,13.3423135 L2.7706441,16.4036628 L3.59633716,17.2293559 L6.65768653,15.8378335 L6.8148868,15.9225621 C7.21243543,16.1368349 7.63091178,16.3105724 8.06469868,16.4407227 L8.23565224,16.4920144 L9.41614684,19.64 L10.5838532,19.64 L11.7643478,16.4920144 L11.9353013,16.4407227 C12.3690882,16.3105724 12.7875646,16.1368349 13.1851132,15.9225621 L13.3423135,15.8378335 L16.4036628,17.2293559 L17.2293559,16.4036628 L15.8378335,13.3423135 L15.9225621,13.1851132 C16.1368349,12.7875646 16.3105724,12.3690882 16.4407227,11.9353013 L16.4920144,11.7643478 L19.64,10.5838532 L19.64,9.41614684 L16.4920144,8.23565224 L16.4407227,8.06469868 C16.3105724,7.63091178 16.1368349,7.21243543 15.9225621,6.8148868 L15.8378335,6.65768653 L17.2293559,3.59633716 L16.4036628,2.7706441 L13.3423135,4.16216654 L13.1851132,4.07743791 C12.7875646,3.86316505 12.3690882,3.68942756 11.9353013,3.55927727 L11.7643478,3.50798559 L10.5838532,0.36 Z M10,15.36 C7.03975374,15.36 4.64,12.9602463 4.64,10 C4.64,7.03975374 7.03975374,4.64 10,4.64 C12.9602463,4.64 15.36,7.03975374 15.36,10 C15.36,12.9602463 12.9602463,15.36 10,15.36 Z"></path>
        </g>
    </g>
</svg>