<?xml version="1.0" encoding="UTF-8"?>
<svg width="22px" height="18px" viewBox="0 0 22 18" version="1.1" xmlns="http://www.w3.org/2000/svg" xmlns:xlink="http://www.w3.org/1999/xlink">
    <!-- Generator: Sketch 48.2 (47327) - http://www.bohemiancoding.com/sketch -->
    <title>Fill 120@3x</title>
    <desc>Created with Sketch.</desc>
    <defs></defs>
    <g id="icon/tabbar_hamburger" stroke="none" stroke-width="1" fill="none" fill-rule="evenodd" transform="translate(-6.000000, 0.000000)">
        <path d="M27,8 L7,8 C6.448,8 6,8.448 6,9 C6,9.553 6.448,10 7,10 L27,10 C27.552,10 28,9.553 28,9 C28,8.448 27.552,8 27,8 L27,8 Z M27,16 L7,16 C6.448,16 6,16.448 6,17 C6,17.553 6.448,18 7,18 L27,18 C27.552,18 28,17.553 28,17 C28,16.448 27.552,16 27,16 L27,16 Z M7,2 L27,2 C27.552,2 28,1.553 28,1 C28,0.448 27.552,0 27,0 L7,0 C6.448,0 6,0.448 6,1 C6,1.553 6.448,2 7,2 L7,2 Z" id="Fill-120" fill="#FFFFFF"></path>
    </g>
</svg>