<?xml version="1.0" encoding="UTF-8"?>
<svg width="32px" height="29px" viewBox="0 0 32 29" version="1.1" xmlns="http://www.w3.org/2000/svg" xmlns:xlink="http://www.w3.org/1999/xlink">
    <!-- Generator: Sketch 48.2 (47327) - http://www.bohemiancoding.com/sketch -->
    <title>Message</title>
    <desc>Created with Sketch.</desc>
    <defs>
        <linearGradient x1="1.40106824%" y1="51.4010682%" x2="98.5989318%" y2="51.4010682%" id="linearGradient-1">
            <stop stop-color="#FF4396" offset="0%"></stop>
            <stop stop-color="#FF292C" offset="100%"></stop>
        </linearGradient>
    </defs>
    <g id="Icon/LOGO_MESSAGE" stroke="none" stroke-width="1" fill="none" fill-rule="evenodd">
        <g id="Message" fill="url(#linearGradient-1)">
            <path d="M10.0613489,20.5878662 C10.8725628,20.7028671 12.7173697,20.8269231 13.5724329,20.8269231 C21.068592,20.8269231 26.1008326,15.9887383 26.1008326,10.3002717 C26.1008326,4.61180518 19.81262,0 13.5724329,0 C6.06687752,0 0,4.61180518 0,10.3002717 C0,13.5963587 1.44807419,16.393505 4.17613321,18.4082834 L4.17613321,23.5434783 L10.0613489,20.5878662 L10.0613489,20.5878662 Z M27.8368081,8.67391304 C27.8558701,8.9219451 27.8879744,9.16824267 27.8879744,9.42061095 C27.8879744,9.97217874 27.8257723,10.5124724 27.7364821,11.045828 C29.0868711,12.4126061 29.894496,14.0967958 29.894496,15.9249481 C29.894496,18.8163428 27.8960005,21.3547688 24.8781921,22.824749 L24.8781921,25.8982651 L21.454063,23.9252829 C20.6203533,24.0753162 19.7545393,24.1637752 18.8586274,24.1637752 C16.260182,24.1637752 14.8796951,23.4890586 12.9935648,22.3677109 C12.4467877,22.4058697 11.8949943,22.4292853 11.3341715,22.4292853 C10.9348737,22.4292853 10.543602,22.4050024 10.1503238,22.3850558 C12.5390877,24.4031348 14.9950701,25.6814539 18.8586274,25.6814539 C19.680298,25.6814539 20.4819033,25.6172778 21.261437,25.5071377 L26.8847137,28.5 L26.8847137,23.5818539 C29.9346264,21.7753826 31.9010176,18.9733141 31.9010176,15.8165425 C31.9010176,13.0031999 30.3349275,10.4708446 27.8368081,8.67391304 L27.8368081,8.67391304 Z M18.8506013,12.3913043 C19.6519935,12.3913043 20.3006475,11.837 20.3006475,11.1521739 C20.3006475,10.4681739 19.6519935,9.91304348 18.8506013,9.91304348 C18.0492091,9.91304348 17.400555,10.4681739 17.400555,11.1521739 C17.400555,11.837 18.0492091,12.3913043 18.8506013,12.3913043 L18.8506013,12.3913043 Z M7.25023127,12.3913043 C8.0516235,12.3913043 8.70027752,11.837 8.70027752,11.1521739 C8.70027752,10.4681739 8.0516235,9.91304348 7.25023127,9.91304348 C6.44883904,9.91304348 5.80018501,10.4681739 5.80018501,11.1521739 C5.80018501,11.837 6.44883904,12.3913043 7.25023127,12.3913043 L7.25023127,12.3913043 Z M13.0504163,12.3913043 C13.8518085,12.3913043 14.5004625,11.837 14.5004625,11.1521739 C14.5004625,10.4681739 13.8518085,9.91304348 13.0504163,9.91304348 C12.2490241,9.91304348 11.60037,10.4681739 11.60037,11.1521739 C11.60037,11.837 12.2490241,12.3913043 13.0504163,12.3913043 L13.0504163,12.3913043 Z" id="Fill-189"></path>
        </g>
    </g>
</svg>