<?xml version="1.0" encoding="UTF-8"?>
<svg width="8px" height="22px" viewBox="0 0 8 22" version="1.1" xmlns="http://www.w3.org/2000/svg" xmlns:xlink="http://www.w3.org/1999/xlink">
    <!-- Generator: Sketch 48.2 (47327) - http://www.bohemiancoding.com/sketch -->
    <title>Oscar</title>
    <desc>Created with Sketch.</desc>
    <defs></defs>
    <g id="icon/library_oscar(icons)" stroke="none" stroke-width="1" fill="none" fill-rule="evenodd">
        <path d="M0.750080683,20.9375 L6.74991932,20.9375 C6.66757767,20.9144271 6.57386426,20.9020951 6.46695814,20.9020951 C5.34549689,20.9020951 4.42048044,20.5843248 4.42048037,19.9230898 C4.42024459,19.8484328 4.42024459,19.8484328 4.41951805,19.7500218 C4.41554495,19.1861975 4.42367655,18.7906658 4.46189903,18.3508974 C4.50345647,17.8727586 4.57590003,17.4712045 4.69001379,17.157482 C4.78478318,16.8969412 4.84499748,16.260701 4.86666313,15.3986163 C4.88025969,14.8576035 4.87834664,14.2779853 4.86693292,13.726219 C4.86351463,13.5609713 4.86010429,13.4388113 4.85784973,13.3721675 L4.89008579,13.2230069 C5.2154427,12.5654949 5.33126166,11.7407514 5.27872497,10.8194086 C5.2423718,10.1818783 5.13285868,9.58306448 5.00072526,9.09388858 L4.90385625,8.73526634 L5.273767,8.70121409 C5.55716079,8.67512618 5.76002763,8.6317172 5.87452867,8.57843896 C6.08617943,8.47995618 6.28374089,8.08338702 6.40957043,7.39572199 L6.63982109,5.21921702 C6.69359028,4.71095947 6.43252444,4.22116609 5.98060692,3.9824457 C5.68169008,3.82454622 5.43143572,3.70422644 5.23115396,3.62178753 C5.05425741,3.54897431 4.81981041,3.46902418 4.52908855,3.38273724 L4.30550552,3.31637727 L4.30550552,2.44043779 L4.37154405,2.24831025 C4.53629124,2.03697232 4.63109335,1.75522361 4.63109335,1.45274894 C4.63109335,1.09774803 4.50530008,0.669931221 4.34675367,0.481285238 C4.23533809,0.34871774 4.09310065,0.3125 3.72263899,0.3125 C3.35217733,0.3125 3.20993989,0.34871774 3.09852431,0.481285238 C2.93997789,0.669931221 2.81418462,1.09774803 2.81418462,1.45274894 C2.81418462,1.75522361 2.90898674,2.03697232 3.07373393,2.24831025 L3.13977245,2.44043779 L3.13977245,3.31611122 L2.91616846,3.38246039 C2.62501606,3.46885294 2.39025703,3.54889597 2.21317014,3.62178753 C2.01288838,3.70422644 1.76263402,3.82454622 1.46371718,3.9824457 C1.01179966,4.22116609 0.750733824,4.71095947 0.804503075,5.21921765 L1.03145326,7.37272966 C1.16058322,8.08338702 1.35814468,8.47995618 1.56979543,8.57843896 C1.69153261,8.63508423 1.91188316,8.68022739 2.22188175,8.70567954 L2.5955564,8.73635977 L2.49805973,9.0983935 C2.36578413,9.5895716 2.25669572,10.1888458 2.2209096,10.8258651 C2.16929125,11.7447095 2.28535263,12.5671022 2.60991421,13.2230069 L2.64215027,13.3721675 C2.63989571,13.4388113 2.63648537,13.5609713 2.63306708,13.726219 C2.62165336,14.2779853 2.61974031,14.8576035 2.63333687,15.3986163 C2.65500252,16.260701 2.71521682,16.8969412 2.80998621,17.157482 C2.92409997,17.4712045 2.99654353,17.8727586 3.03810097,18.3508974 C3.07632345,18.7906658 3.08445505,19.1861975 3.08048195,19.7500218 C3.07975541,19.8484328 3.07975541,19.8484328 3.07951963,19.9230898 C3.07951956,20.5843248 2.15450311,20.9020951 1.03304186,20.9020951 C0.926135739,20.9020951 0.83242233,20.9144271 0.750080683,20.9375 Z" id="Oscar" stroke="#FFFFFF" stroke-width="0.625"></path>
    </g>
</svg>