<?xml version="1.0" encoding="UTF-8"?>
<svg width="17px" height="17px" viewBox="0 0 17 17" version="1.1" xmlns="http://www.w3.org/2000/svg" xmlns:xlink="http://www.w3.org/1999/xlink">
    <!-- Generator: Sketch 48.2 (47327) - http://www.bohemiancoding.com/sketch -->
    <title>Fill 170</title>
    <desc>Created with Sketch.</desc>
    <defs>
        <linearGradient x1="10.74346%" y1="8.24944361%" x2="86.6556645%" y2="84.142442%" id="linearGradient-1">
            <stop stop-color="#FF4396" offset="0%"></stop>
            <stop stop-color="#FF292C" offset="100%"></stop>
        </linearGradient>
    </defs>
    <g id="icon/proporties_logo" stroke="none" stroke-width="1" fill="none" fill-rule="evenodd">
        <path d="M6.0859375,3.85207031 C5.41257813,3.85207031 4.8671875,4.39746094 4.8671875,5.0703125 C4.8671875,5.74316406 5.41257813,6.2890625 6.0859375,6.2890625 C6.75929687,6.2890625 7.3046875,5.74316406 7.3046875,5.0703125 C7.3046875,4.39746094 6.75929687,3.85207031 6.0859375,3.85207031 L6.0859375,3.85207031 Z M10.65625,7.9140625 C9.98289063,7.9140625 9.4375,8.45996094 9.4375,9.1328125 C9.4375,9.80566406 9.98289063,10.3515625 10.65625,10.3515625 C11.3296094,10.3515625 11.875,9.80566406 11.875,9.1328125 C11.875,8.45996094 11.3296094,7.9140625 10.65625,7.9140625 L10.65625,7.9140625 Z M13.703125,5.578125 L8.04507813,5.578125 C7.81910156,6.45308594 7.03148437,7.1015625 6.0859375,7.1015625 C5.14039063,7.1015625 4.35277344,6.45308594 4.12679687,5.578125 L3.546875,5.578125 C3.2665625,5.578125 3.0390625,5.35113281 3.0390625,5.0703125 C3.0390625,4.79 3.2665625,4.5625 3.546875,4.5625 L4.12679687,4.5625 C4.35277344,3.68753906 5.14039063,3.0390625 6.0859375,3.0390625 C7.03148437,3.0390625 7.81910156,3.68753906 8.04507813,4.5625 L13.703125,4.5625 C13.9834375,4.5625 14.2109375,4.79 14.2109375,5.0703125 C14.2109375,5.35113281 13.9834375,5.578125 13.703125,5.578125 L13.703125,5.578125 Z M13.703125,9.640625 L12.6153906,9.640625 C12.3894141,10.5155859 11.6017969,11.1640625 10.65625,11.1640625 C9.71070313,11.1640625 8.92308594,10.5155859 8.69710937,9.640625 L3.546875,9.640625 C3.2665625,9.640625 3.0390625,9.41363281 3.0390625,9.1328125 C3.0390625,8.8525 3.2665625,8.625 3.546875,8.625 L8.69710937,8.625 C8.92359375,7.75003906 9.71070313,7.1015625 10.65625,7.1015625 C11.6017969,7.1015625 12.3894141,7.75003906 12.6153906,8.625 L13.703125,8.625 C13.9834375,8.625 14.2109375,8.8525 14.2109375,9.1328125 C14.2109375,9.41363281 13.9834375,9.640625 13.703125,9.640625 L13.703125,9.640625 Z M13.703125,13.703125 L8.04507813,13.703125 C7.81910156,14.5780859 7.03148437,15.2265625 6.0859375,15.2265625 C5.14039063,15.2265625 4.35277344,14.5780859 4.12679687,13.703125 L3.546875,13.703125 C3.2665625,13.703125 3.0390625,13.4761328 3.0390625,13.1953125 C3.0390625,12.9144922 3.2665625,12.6875 3.546875,12.6875 L4.12679687,12.6875 C4.35277344,11.8130469 5.14039063,11.1640625 6.0859375,11.1640625 C7.03148437,11.1640625 7.81910156,11.8130469 8.04507813,12.6875 L13.703125,12.6875 C13.9834375,12.6875 14.2109375,12.9144922 14.2109375,13.1953125 C14.2109375,13.4761328 13.9834375,13.703125 13.703125,13.703125 L13.703125,13.703125 Z M14.71875,0.5 L2.53125,0.5 C1.40949219,0.5 0.5,1.40949219 0.5,2.53125 L0.5,14.71875 C0.5,15.8405078 1.40949219,16.75 2.53125,16.75 L14.71875,16.75 C15.8405078,16.75 16.75,15.8405078 16.75,14.71875 L16.75,2.53125 C16.75,1.40949219 15.8405078,0.5 14.71875,0.5 L14.71875,0.5 Z M6.0859375,11.9770703 C5.41257813,11.9770703 4.8671875,12.5224609 4.8671875,13.1953125 C4.8671875,13.8681641 5.41257813,14.4140625 6.0859375,14.4140625 C6.75929687,14.4140625 7.3046875,13.8681641 7.3046875,13.1953125 C7.3046875,12.5224609 6.75929687,11.9770703 6.0859375,11.9770703 L6.0859375,11.9770703 Z" id="Fill-170" fill="url(#linearGradient-1)"></path>
    </g>
</svg>