<?xml version="1.0" encoding="UTF-8"?>
<svg width="12px" height="12px" viewBox="0 0 12 12" version="1.1" xmlns="http://www.w3.org/2000/svg" xmlns:xlink="http://www.w3.org/1999/xlink">
    <!-- Generator: Sketch 48.2 (47327) - http://www.bohemiancoding.com/sketch -->
    <title>Path</title>
    <desc>Created with Sketch.</desc>
    <defs>
        <linearGradient x1="16.1132353%" y1="0%" x2="81.5587243%" y2="100%" id="linearGradient-1">
            <stop stop-color="#F0562C" offset="0%"></stop>
            <stop stop-color="#EB0487" offset="100%"></stop>
        </linearGradient>
    </defs>
    <g id="icon/proporties_add_pink" stroke="none" stroke-width="1" fill="none" fill-rule="evenodd">
        <path d="M11.1964286,5.57142857 L7.17857143,5.57142857 L7.17857143,1.55357143 C7.17857143,1.11160714 6.81857143,0.75 6.375,0.75 C5.93142857,0.75 5.57142857,1.11160714 5.57142857,1.55357143 L5.57142857,5.57142857 L1.55357143,5.57142857 C1.11,5.57142857 0.75,5.93303571 0.75,6.375 C0.75,6.81696429 1.11,7.17857143 1.55357143,7.17857143 L5.57142857,7.17857143 L5.57142857,11.1964286 C5.57142857,11.6383929 5.93142857,12 6.375,12 C6.81857143,12 7.17857143,11.6383929 7.17857143,11.1964286 L7.17857143,7.17857143 L11.1964286,7.17857143 C11.64,7.17857143 12,6.81696429 12,6.375 C12,5.93303571 11.64,5.57142857 11.1964286,5.57142857 L11.1964286,5.57142857 Z" id="Path" fill="url(#linearGradient-1)"></path>
    </g>
</svg>