<svg xmlns="http://www.w3.org/2000/svg" width="23" height="22" viewBox="0 0 23 22">
  <g fill="none" fill-rule="evenodd">
    <path fill="#FF386B" d="M8,7 L15,7 L15,12 C15,13.6568542 13.6568542,15 12,15 L8,15 L8,7 Z"/>
    <path stroke="#FFF" d="M2.53968254,0.5 C1.41328523,0.5 0.5,1.41328523 0.5,2.53968254 L0.5,12.6984127 C0.5,13.82481 1.41328523,14.7380952 2.53968254,14.7380952 L12.6984127,14.7380952 C13.82481,14.7380952 14.7380952,13.82481 14.7380952,12.6984127 L14.7380952,2.53968254 C14.7380952,1.41328523 13.82481,0.5 12.6984127,0.5 L2.53968254,0.5 Z"/>
    <path stroke="#FFF" d="M9.53968254,6.5 C8.41328523,6.5 7.5,7.41328523 7.5,8.53968254 L7.5,18.6984127 C7.5,19.82481 8.41328523,20.7380952 9.53968254,20.7380952 L19.6984127,20.7380952 C20.82481,20.7380952 21.7380952,19.82481 21.7380952,18.6984127 L21.7380952,8.53968254 C21.7380952,7.41328523 20.82481,6.5 19.6984127,6.5 L9.53968254,6.5 Z"/>
  </g>
</svg>
