<?xml version="1.0" encoding="UTF-8"?>
<svg width="20px" height="20px" viewBox="0 0 20 20" version="1.1" xmlns="http://www.w3.org/2000/svg" xmlns:xlink="http://www.w3.org/1999/xlink">
    <!-- Generator: Sketch 48.2 (47327) - http://www.bohemiancoding.com/sketch -->
    <title>Fill 60</title>
    <desc>Created with Sketch.</desc>
    <defs>
        <linearGradient x1="1.40106824%" y1="51.4010682%" x2="98.5989318%" y2="51.4010682%" id="linearGradient-1">
            <stop stop-color="#FF4396" offset="0%"></stop>
            <stop stop-color="#FF292C" offset="100%"></stop>
        </linearGradient>
    </defs>
    <g id="Icon/Action_group" stroke="none" stroke-width="1" fill="none" fill-rule="evenodd">
        <path d="M17.4603175,0 L7.3015873,0 C5.89904762,0 4.76190476,1.13714286 4.76190476,2.53968254 L4.76190476,12.6984127 C4.76190476,14.1009524 5.89904762,15.2380952 7.3015873,15.2380952 L17.4603175,15.2380952 C18.8628571,15.2380952 20,14.1009524 20,12.6984127 L20,2.53968254 C20,1.13714286 18.8628571,0 17.4603175,0 L17.4603175,0 Z M13.968254,17.4603175 C13.968254,18.1612698 13.3993651,18.7301587 12.6984127,18.7301587 L2.53968254,18.7301587 C1.83873016,18.7301587 1.26984127,18.1612698 1.26984127,17.4603175 L1.26984127,7.3015873 C1.26984127,6.60063492 1.83873016,6.03174603 2.53968254,6.03174603 L3.80952381,6.03174603 L3.80952381,4.76190476 L2.53968254,4.76190476 C1.13714286,4.76190476 0,5.89904762 0,7.3015873 L0,17.4603175 C0,18.8628571 1.13714286,20 2.53968254,20 L12.6984127,20 C14.1009524,20 15.2380952,18.8628571 15.2380952,17.4603175 L15.2380952,16.1904762 L13.968254,16.1904762 L13.968254,17.4603175 L13.968254,17.4603175 Z" id="Fill-60" fill="url(#linearGradient-1)"></path>
    </g>
</svg>