<svg xmlns="http://www.w3.org/2000/svg" width="24" height="23" viewBox="0 0 24 23">
  <g fill="none" fill-rule="evenodd" transform="translate(1 1)">
    <path fill="#FF386B" stroke="#000" d="M2.53968254,0 C1.13714286,0 0,1.13714286 0,2.53968254 L0,12.6984127 C0,14.1009524 1.13714286,15.2380952 2.53968254,15.2380952 L12.6984127,15.2380952 C14.1009524,15.2380952 15.2380952,14.1009524 15.2380952,12.6984127 L15.2380952,2.53968254 C15.2380952,1.13714286 14.1009524,0 12.6984127,0 L2.53968254,0 Z"/>
    <path fill="#FFF" d="M9.53968254,6 C8.13714286,6 7,7.13714286 7,8.53968254 L7,18.6984127 C7,20.1009524 8.13714286,21.2380952 9.53968254,21.2380952 L19.6984127,21.2380952 C21.1009524,21.2380952 22.2380952,20.1009524 22.2380952,18.6984127 L22.2380952,8.53968254 C22.2380952,7.13714286 21.1009524,6 19.6984127,6 L9.53968254,6 Z"/>
  </g>
</svg>
