<svg xmlns="http://www.w3.org/2000/svg" width="22" height="21" viewBox="0 0 22 21">
  <g fill="none" fill-rule="evenodd">
    <path fill="#FF386B" d="M9.5,6 C8.119375,6 7,7.119375 7,8.5 L7,18.5 C7,19.880625 8.119375,21 9.5,21 L19.5,21 C20.880625,21 22,19.880625 22,18.5 L22,8.5 C22,7.119375 20.880625,6 19.5,6 L9.5,6 Z"/>
    <path fill="#FF386B" d="M2.5,0 C1.119375,0 0,1.119375 0,2.5 L0,12.5 C0,13.880625 1.119375,15 2.5,15 L12.5,15 C13.880625,15 15,13.880625 15,12.5 L15,2.5 C15,1.119375 13.880625,0 12.5,0 L2.5,0 Z"/>
    <path d="M9.5,6 C8.119375,6 7,7.119375 7,8.5 L7,18.5 C7,19.880625 8.119375,21 9.5,21 L19.5,21 C20.880625,21 22,19.880625 22,18.5 L22,8.5 C22,7.119375 20.880625,6 19.5,6 L9.5,6 Z"/>
    <path fill="#FFF" d="M8.97909587,6.07689333 L15.032683,6.07689333 L15.032683,14.0700808 C15.032683,14.6223655 14.5849678,15.0700808 14.032683,15.0700808 L6.97909587,15.0700808 L6.97909587,8.07689333 C6.97909587,6.97232383 7.87452637,6.07689333 8.97909587,6.07689333 Z"/>
  </g>
</svg>
