<?xml version="1.0" encoding="UTF-8"?>
<svg width="25px" height="25px" viewBox="0 0 25 25" version="1.1" xmlns="http://www.w3.org/2000/svg" xmlns:xlink="http://www.w3.org/1999/xlink">
    <!-- Generator: Sketch 48.2 (47327) - http://www.bohemiancoding.com/sketch -->
    <title>Proporties</title>
    <desc>Created with Sketch.</desc>
    <defs>
        <linearGradient x1="10.74346%" y1="8.24944361%" x2="86.6556645%" y2="84.142442%" id="linearGradient-1">
            <stop stop-color="#FF4396" offset="0%"></stop>
            <stop stop-color="#FF292C" offset="100%"></stop>
        </linearGradient>
    </defs>
    <g id="Icon/LOGO_PROPORTIES" stroke="none" stroke-width="1" fill="none" fill-rule="evenodd">
        <g id="Proporties" fill="url(#linearGradient-1)">
            <path d="M8.125,3.75 C7.0890625,3.75 6.25,4.58923734 6.25,5.62460929 C6.25,6.65998125 7.0890625,7.5 8.125,7.5 C9.1609375,7.5 10,6.65998125 10,5.62460929 C10,4.58923734 9.1609375,3.75 8.125,3.75 L8.125,3.75 Z M15.625,11.25 C14.5890625,11.25 13.75,12.0898438 13.75,13.125 C13.75,14.1601562 14.5890625,15 15.625,15 C16.6609375,15 17.5,14.1601562 17.5,13.125 C17.5,12.0898438 16.6609375,11.25 15.625,11.25 L15.625,11.25 Z M16.875,6.875 L9.91125,6.875 C9.633125,7.951875 8.66375,8.75 7.5,8.75 C6.33625,8.75 5.366875,7.951875 5.08875,6.875 L4.375,6.875 C4.03,6.875 3.75,6.595625 3.75,6.25 C3.75,5.905 4.03,5.625 4.375,5.625 L5.08875,5.625 C5.366875,4.548125 6.33625,3.75 7.5,3.75 C8.66375,3.75 9.633125,4.548125 9.91125,5.625 L16.875,5.625 C17.22,5.625 17.5,5.905 17.5,6.25 C17.5,6.595625 17.22,6.875 16.875,6.875 L16.875,6.875 Z M19.3181818,13.125 L17.8577273,13.125 C17.5543182,14.201875 16.4968182,15 15.2272727,15 C13.9577273,15 12.9002273,14.201875 12.5968182,13.125 L5.68181818,13.125 C5.30545455,13.125 5,12.845625 5,12.5 C5,12.155 5.30545455,11.875 5.68181818,11.875 L12.5968182,11.875 C12.9009091,10.798125 13.9577273,10 15.2272727,10 C16.4968182,10 17.5543182,10.798125 17.8577273,11.875 L19.3181818,11.875 C19.6945455,11.875 20,12.155 20,12.5 C20,12.845625 19.6945455,13.125 19.3181818,13.125 L19.3181818,13.125 Z M16.875,19.375 L9.91125,19.375 C9.633125,20.451875 8.66375,21.25 7.5,21.25 C6.33625,21.25 5.366875,20.451875 5.08875,19.375 L4.375,19.375 C4.03,19.375 3.75,19.095625 3.75,18.75 C3.75,18.404375 4.03,18.125 4.375,18.125 L5.08875,18.125 C5.366875,17.04875 6.33625,16.25 7.5,16.25 C8.66375,16.25 9.633125,17.04875 9.91125,18.125 L16.875,18.125 C17.22,18.125 17.5,18.404375 17.5,18.75 C17.5,19.095625 17.22,19.375 16.875,19.375 L16.875,19.375 Z M3.125,0 C1.39921875,0 0,1.39921875 0,3.125 L0,21.875 C0,23.6007812 1.39921875,25 3.125,25 L21.875,25 C23.6007813,25 25,23.6007812 25,21.875 L25,3.125 C25,1.39921875 23.6007813,0 21.875,0 L3.125,0 Z M8.125,17.5 C7.0890625,17.5 6.25,18.3392373 6.25,19.3746093 C6.25,20.4099812 7.0890625,21.25 8.125,21.25 C9.1609375,21.25 10,20.4099812 10,19.3746093 C10,18.3392373 9.1609375,17.5 8.125,17.5 L8.125,17.5 Z" id="Fill-170"></path>
        </g>
    </g>
</svg>