<svg xmlns="http://www.w3.org/2000/svg" width="19" height="19" viewBox="0 0 19 19"><rect width="19" height="19" fill="rgba(0,0,0,0)"/><rect width="19" height="19" fill="none"/><path d="M12.667,9.986V5.919a.4.4,0,0,1,.657-.3l2.323,2.039a.4.4,0,0,1,0,.6l-2.323,2.027a.39.39,0,0,1-.258.1A.4.4,0,0,1,12.667,9.986ZM11.436,8.708A4.75,4.75,0,0,1,7.686,6.874L4.522,2.806a3.166,3.166,0,0,0-2.5-1.223H0V0H2.022a4.75,4.75,0,0,1,3.75,1.834L8.936,5.9a3.166,3.166,0,0,0,2.5,1.223h1.231V8.708Z" transform="translate(1.583 4.75)" fill="#5d7590" opacity="0.44"/><path d="M0,10.311V8.727H2.022A3.168,3.168,0,0,0,4.522,7.5L7.686,3.436A4.75,4.75,0,0,1,11.436,1.6h1.231V3.186H11.436a3.168,3.168,0,0,0-2.5,1.222L5.772,8.477a4.75,4.75,0,0,1-3.75,1.834ZM12.667,4.462V.4a.4.4,0,0,1,.657-.3l2.323,2.039a.4.4,0,0,1,0,.6L13.323,4.761a.389.389,0,0,1-.258.1A.4.4,0,0,1,12.667,4.462Z" transform="translate(1.583 3.148)" fill="#dadfea"/></svg>