<?xml version="1.0" encoding="UTF-8"?>
<svg width="20px" height="12px" viewBox="0 0 20 12" version="1.1" xmlns="http://www.w3.org/2000/svg" xmlns:xlink="http://www.w3.org/1999/xlink">
    <!-- Generator: Sketch 48.2 (47327) - http://www.bohemiancoding.com/sketch -->
    <title>arrow_infinity [#239]</title>
    <desc>Created with Sketch.</desc>
    <defs>
        <linearGradient x1="1.40106824%" y1="51.4010682%" x2="98.5989318%" y2="51.4010682%" id="linearGradient-1">
            <stop stop-color="#FF4396" offset="0%"></stop>
            <stop stop-color="#FF292C" offset="100%"></stop>
        </linearGradient>
    </defs>
    <g id="Design-Gray-" stroke="none" stroke-width="1" fill="none" fill-rule="evenodd" transform="translate(-370.000000, -540.000000)">
        <g id="Dublicate/Repeat" transform="translate(357.000000, 529.000000)" fill="url(#linearGradient-1)">
            <g id="Group-19">
                <path d="M32.0776119,16.597432 C32.0776119,13.81871 29.7741721,11.5668293 26.9318284,11.5668293 C24.1063254,11.5668293 21.7860448,13.813222 21.7860448,16.597432 C21.7860448,18.3005197 20.350839,19.7987246 18.5114552,19.7987246 C16.705753,19.7987246 15.2368657,18.3627162 15.2368657,16.597432 C15.2368657,14.8321478 16.705753,13.3961393 18.5114552,13.3961393 C19.6032969,13.3961393 20.5650907,13.9257246 21.161066,14.7315357 C21.393094,14.0446298 21.6896783,13.5232764 22.1004054,12.9964351 C21.1732287,12.1128783 19.9083016,11.5668293 18.5114552,11.5668293 C15.6691115,11.5668293 13.3656716,13.81871 13.3656716,16.597432 C13.3656716,19.376154 15.6691115,21.6280347 18.5114552,21.6280347 C21.3369582,21.6280347 23.6572388,19.3816419 23.6572388,16.597432 C23.6572388,14.889771 25.096187,13.3961393 26.9318284,13.3961393 C28.7375306,13.3961393 30.2064179,14.8321478 30.2064179,16.597432 C30.2064179,17.695018 29.6375749,18.6645524 28.7740189,19.2407851 L28.1555893,17.6456267 L26.7709057,19.7795169 L25.6799996,21.4597382 L25.6500604,21.5063856 L30.1437329,22.7777561 L29.4485843,20.9832029 C31.0166449,20.1206832 32.0776119,18.4816214 32.0776119,16.597432" id="arrow_infinity-[#239]"></path>
            </g>
        </g>
    </g>
</svg>