<?xml version="1.0" encoding="UTF-8"?>
<svg width="19px" height="11px" viewBox="0 0 19 11" version="1.1" xmlns="http://www.w3.org/2000/svg" xmlns:xlink="http://www.w3.org/1999/xlink">
    <!-- Generator: Sketch 48.2 (47327) - http://www.bohemiancoding.com/sketch -->
    <title>arrow_infinity [#239]</title>
    <desc>Created with Sketch.</desc>
    <defs>
        <linearGradient x1="1.40106824%" y1="51.4010682%" x2="98.5989318%" y2="51.4010682%" id="linearGradient-1">
            <stop stop-color="#FF4396" offset="0%"></stop>
            <stop stop-color="#FF292C" offset="100%"></stop>
        </linearGradient>
    </defs>
    <g id="Icon/Action_infinity" stroke="none" stroke-width="1" fill="none" fill-rule="evenodd">
        <path d="M19,4.93595496 C19,2.20951293 16.6611,0 13.775,0 C10.906,0 8.55,2.20412825 8.55,4.93595496 C8.55,6.60700008 7.0927,8.07701721 5.225,8.07701721 C3.3915,8.07701721 1.9,6.66802643 1.9,4.93595496 C1.9,3.2038835 3.3915,1.79489271 5.225,1.79489271 C6.33365,1.79489271 7.31025,2.31451416 7.9154,3.1051644 C8.151,2.43118218 8.45215,1.91963776 8.8692,1.40270866 C7.92775,0.535775475 6.64335,0 5.225,0 C2.3389,0 0,2.20951293 0,4.93595496 C0,7.662397 2.3389,9.87190993 5.225,9.87190993 C8.094,9.87190993 10.45,7.66778168 10.45,4.93595496 C10.45,3.26042262 11.9111,1.79489271 13.775,1.79489271 C15.6085,1.79489271 17.1,3.2038835 17.1,4.93595496 C17.1,6.01289059 16.5224,6.96418373 15.64555,7.52957494 L15.0176,5.96442849 L13.6116,8.05817084 L12.5039,9.7067798 L12.4735,9.75254956 L17.03635,11 L16.3305,9.23921025 C17.9227,8.39291833 19,6.78469446 19,4.93595496" id="arrow_infinity-[#239]" fill="url(#linearGradient-1)"></path>
    </g>
</svg>