<svg xmlns="http://www.w3.org/2000/svg" width="20" height="20" viewBox="0 0 20 20">
  <g fill="#FF386B" fill-rule="evenodd">
    <path d="M15.5202822,17.1781305 C15.5202822,17.9569665 14.8881834,18.5890653 14.1093474,18.5890653 L2.82186949,18.5890653 C2.04303351,18.5890653 1.41093474,17.9569665 1.41093474,17.1781305 L1.41093474,5.89065256 C1.41093474,5.11181658 2.04303351,4.47971781 2.82186949,4.47971781 L4.23280423,4.47971781 L4.23280423,3.06878307 L2.82186949,3.06878307 C1.26349206,3.06878307 0,4.33227513 0,5.89065256 L0,17.1781305 C0,18.7365079 1.26349206,20 2.82186949,20 L14.1093474,20 C15.6677249,20 16.9312169,18.7365079 16.9312169,17.1781305 L16.9312169,15.7671958 L15.5202822,15.7671958 L15.5202822,17.1781305 L15.5202822,17.1781305 Z"/>
    <polygon points="20 1.222 18.778 0 13.889 4.889 9 0 7.778 1.222 12.667 6.111 7.778 11 9 12.222 13.889 7.333 18.778 12.222 20 11 15.111 6.111"/>
  </g>
</svg>
