<?xml version="1.0" encoding="UTF-8"?>
<svg width="8px" height="8px" viewBox="0 0 8 8" version="1.1" xmlns="http://www.w3.org/2000/svg" xmlns:xlink="http://www.w3.org/1999/xlink">
    <!-- Generator: Sketch 48.2 (47327) - http://www.bohemiancoding.com/sketch -->
    <title>Searh</title>
    <desc>Created with Sketch.</desc>
    <defs></defs>
    <g id="Search-Logo" stroke="none" stroke-width="1" fill="none" fill-rule="evenodd">
        <g id="Searh" fill="#FFFFFF" fill-rule="nonzero">
            <path d="M4.96962457,5.84355791 C4.77320652,5.64713986 4.77800919,5.3238806 4.96759446,5.13429533 L4.96759446,5.13429533 C5.16289131,4.93899848 5.48323794,4.94270634 5.67685703,5.13632544 L7.68597622,7.14544463 C7.88239427,7.34186268 7.8775916,7.66512194 7.68800633,7.85470721 L7.68800633,7.85470721 C7.49270948,8.05000406 7.17236285,8.04629619 6.97874376,7.8526771 L4.96962457,5.84355791 Z M5.6099168,5.28106368 C4.42060762,6.5796337 2.38571209,6.68447826 1.06485044,5.51524056 C-0.256011222,4.34600286 -0.362655577,2.34544942 0.826653602,1.0468794 C2.01596278,-0.251690627 4.0508583,-0.35653519 5.37171996,0.812702512 C6.69258162,1.98194021 6.79922598,3.98249365 5.6099168,5.28106368 Z M5.13159048,4.85764525 C6.08303782,3.81878923 5.99772234,2.21834648 4.94103301,1.28295632 C3.88434368,0.347566156 2.25642726,0.431441806 1.30497992,1.47029783 C0.353532578,2.50915385 0.438848062,4.10959659 1.49553739,5.04498676 C2.55222672,5.98037692 4.18014313,5.89650127 5.13159048,4.85764525 Z" id="Search"></path>
        </g>
    </g>
</svg>