<?xml version="1.0" encoding="UTF-8"?>
<svg width="14px" height="16px" viewBox="0 0 14 16" version="1.1" xmlns="http://www.w3.org/2000/svg" xmlns:xlink="http://www.w3.org/1999/xlink">
    <!-- Generator: Sketch 48.2 (47327) - http://www.bohemiancoding.com/sketch -->
    <title>settings-applications</title>
    <desc>Created with Sketch.</desc>
    <defs></defs>
    <g id="Part-1" stroke="none" stroke-width="1" fill="none" fill-rule="evenodd" transform="translate(-979.000000, -691.000000)">
        <g id="Group-9" transform="translate(704.000000, 179.000000)" fill="#9B9B9B">
            <g id="Group-7" transform="translate(-4.000000, 5.000000)">
                <g id="settings-applications" transform="translate(279.000000, 507.000000)">
                    <path d="M7,6 C5.9,6 5,6.9 5,8 C5,9.1 5.9,10 7,10 C8.1,10 9,9.1 9,8 C9,6.9 8.1,6 7,6 L7,6 Z M12.2,8 L12.2,8.7 L13.7,9.9 C13.8,10 13.9,10.2 13.8,10.3 L12.4,12.7 C12.3,12.9 12.1,12.9 12,12.9 L10.3,12.2 C9.9,12.5 9.5,12.7 9.1,12.9 L8.8,14.8 C8.8,15 8.6,15.1 8.5,15.1 L5.7,15.1 C5.5,15.1 5.4,15 5.4,14.8 L5,12.9 C4.6,12.7 4.2,12.5 3.8,12.2 L2.1,12.9 C1.9,13 1.8,12.9 1.7,12.7 L0.3,10.3 C0.2,10.1 0.3,10 0.4,9.9 L1.9,8.7 L1.9,8 L1.9,7.3 L0.4,6.1 C0.3,6 0.2,5.8 0.3,5.7 L1.7,3.3 C1.8,3.1 2,3.1 2.1,3.1 L3.8,3.8 C4.2,3.6 4.6,3.3 5,3.1 L5.3,1.2 C5.3,1 5.5,0.9 5.6,0.9 L8.4,0.9 C8.6,0.9 8.7,1 8.7,1.2 L9,3.1 C9.4,3.3 9.8,3.5 10.2,3.8 L11.9,3.1 C12.1,3 12.2,3.1 12.3,3.3 L13.7,5.7 C13.8,5.9 13.7,6 13.6,6.1 L12.1,7.3 C12.2,7.5 12.2,7.8 12.2,8 L12.2,8 Z" id="Shape"></path>
                </g>
            </g>
        </g>
    </g>
</svg>