<?xml version="1.0" encoding="UTF-8"?>
<svg width="15px" height="20px" viewBox="0 0 15 20" version="1.1" xmlns="http://www.w3.org/2000/svg" xmlns:xlink="http://www.w3.org/1999/xlink">
    <!-- Generator: Sketch 48.2 (47327) - http://www.bohemiancoding.com/sketch -->
    <title>share</title>
    <desc>Created with Sketch.</desc>
    <defs></defs>
    <g id="icon/tabbar_export" stroke="none" stroke-width="1" fill="none" fill-rule="evenodd">
        <path d="M0,5.66037736 L5.45454563,5.66037736 L5.45454563,7.19010334 L1.45507839,7.19010334 L1.45507839,18.7385914 L13.7517259,18.7385914 L13.7517259,7.19010334 L9.54545437,7.19010334 L9.54545437,5.66037736 L15,5.66037736 L15,20 L0,20 L0,5.66037736 Z M5.25,3.39622642 C5.25,3.39622642 6.499806,2.13856 7.124709,1.50972679 C7.17501488,1.45910453 7.124709,12.1734668 7.124709,12.1734668 L7.888326,12.1734668 C7.888326,12.1734668 7.83170063,1.46586189 7.888326,1.52284377 L9.75,3.39622642 L10.3125,2.83018868 L7.5,0 L4.6875,2.83018868 L5.25,3.39622642 Z" id="share" fill="#929292"></path>
    </g>
</svg>