<?xml version="1.0" encoding="UTF-8"?>
<svg width="16px" height="20px" viewBox="0 0 16 20" version="1.1" xmlns="http://www.w3.org/2000/svg" xmlns:xlink="http://www.w3.org/1999/xlink">
    <!-- Generator: Sketch 48.2 (47327) - http://www.bohemiancoding.com/sketch -->
    <title>Fill 100</title>
    <desc>Created with Sketch.</desc>
    <defs>
        <linearGradient x1="-9.67369661%" y1="15.340855%" x2="100%" y2="77.3768936%" id="linearGradient-1">
            <stop stop-color="#FF4396" offset="0%"></stop>
            <stop stop-color="#FF292C" offset="100%"></stop>
        </linearGradient>
    </defs>
    <g id="Design-Gray-" stroke="none" stroke-width="1" fill="none" fill-rule="evenodd" transform="translate(-370.000000, -791.000000)">
        <g id="Symbols" transform="translate(358.000000, 784.000000)" fill="url(#linearGradient-1)">
            <g id="Group-18">
                <path d="M26.71875,20.699083 C26.71875,21.038466 26.45275,21.3139073 26.125,21.3139073 L23.15625,21.3139073 L23.15625,13.3211921 L26.125,13.3211921 C26.45275,13.3211921 26.71875,13.5966333 26.71875,13.9360163 L26.71875,20.699083 L26.71875,20.699083 Z M21.375,18.9034059 C21.375,19.2541973 21.109,19.5377483 20.78125,19.5377483 L16.03125,19.5377483 L16.03125,10.6569536 L20.78125,10.6569536 C21.109,10.6569536 21.375,10.9411391 21.375,11.2912961 L21.375,18.9034059 L21.375,18.9034059 Z M15.140625,25.1516793 C15.140625,25.4849311 14.741625,25.7543046 14.25,25.7543046 C13.758375,25.7543046 13.359375,25.4849311 13.359375,25.1516793 L13.359375,9.48342006 C13.359375,9.15077086 13.758375,8.8807947 14.25,8.8807947 C14.741625,8.8807947 15.140625,9.15077086 15.140625,9.48342006 L15.140625,25.1516793 L15.140625,25.1516793 Z M26.398125,12.0723303 L22.764375,12.0723303 L22.764375,10.906726 C22.764375,10.2633124 22.221735,9.74112169 21.553125,9.74112169 L16.1025,9.74112169 L16.1025,9.15831954 C16.1025,8.51490596 15.55986,7.99271523 14.89125,7.99271523 L13.68,7.99271523 C13.01139,7.99271523 12.46875,8.51490596 12.46875,9.15831954 L12.46875,25.4767798 C12.46875,26.1201934 13.01139,26.6423841 13.68,26.6423841 L14.89125,26.6423841 C15.55986,26.6423841 16.1025,26.1201934 16.1025,25.4767798 L16.1025,20.2315604 L21.553125,20.2315604 L21.553125,20.8143626 C21.553125,21.4577762 22.1224125,21.9799669 22.764375,21.9799669 L26.398125,21.9799669 C27.066735,21.9799669 27.609375,21.4577762 27.609375,20.8143626 L27.609375,13.2379346 C27.609375,12.594521 27.066735,12.0723303 26.398125,12.0723303 L26.398125,12.0723303 Z" id="Fill-100"></path>
            </g>
        </g>
    </g>
</svg>