<svg xmlns="http://www.w3.org/2000/svg" width="11" height="12" viewBox="0 0 11 12">
  <path fill="#FFF" fill-rule="evenodd" d="M0.0458964438,10.5576618 L0.0458964438,11.1266652 L4.6677562,11.1266652 L4.6677562,10.5576618 C3.87799979,10.5658987 3.40404688,10.498254 3.24589746,10.3547277 C3.08774804,10.2112014 3.08774804,9.79552059 3.24589746,9.10768519 L5.9120643,1.14815902 C7.45148768,1.09085143 8.44799699,1.17098427 8.90159225,1.38855754 C9.3551875,1.60613081 9.74590945,2.19140272 10.0737581,3.14437328 L10.4563166,3.024539 L10.0007205,0 C9.59445147,0.252311148 9.22807539,0.411033263 8.90159225,0.476166346 C8.10993228,0.634101773 6.15495261,0.563583086 5.42472321,0.563583086 C4.65104567,0.563583086 2.45012318,0.563583086 1.85807774,0.476166346 C1.57219963,0.433955849 1.23574902,0.275233734 0.848725918,0 L0,3.024539 L0.432080366,3.14437328 C0.791178211,2.18925663 1.219215,1.60398471 1.71619074,1.38855754 C2.21316647,1.17313037 3.16836271,1.09299753 4.58177944,1.14815902 L2.09408915,9.10768519 C1.8578727,9.7655733 1.6770812,10.1812542 1.55171465,10.3547277 C1.41781,10.5400157 0.915870602,10.6076604 0.0458964438,10.5576618 Z"/>
</svg>
