<?xml version="1.0" encoding="UTF-8"?>
<svg width="14px" height="14px" viewBox="0 0 14 14" version="1.1" xmlns="http://www.w3.org/2000/svg" xmlns:xlink="http://www.w3.org/1999/xlink">
    <!-- Generator: Sketch 48.2 (47327) - http://www.bohemiancoding.com/sketch -->
    <title>text_dist</title>
    <desc>Created with Sketch.</desc>
    <defs></defs>
    <g id="Design-Text-Edit" stroke="none" stroke-width="1" fill="none" fill-rule="evenodd" transform="translate(-1856.000000, -483.000000)">
        <g id="Window/Proporties" transform="translate(1596.000000, 53.000000)" fill="#FFFFFF">
            <path d="M274,439.333333 L260,439.333333 L260,440.888889 L274,440.888889 L274,439.333333 L274,439.333333 Z M274,433.111111 L260,433.111111 L260,434.666667 L274,434.666667 L274,433.111111 L274,433.111111 Z M260,437.777778 L274,437.777778 L274,436.222222 L260,436.222222 L260,437.777778 L260,437.777778 Z M260,444 L274,444 L274,442.444444 L260,442.444444 L260,444 L260,444 Z M260,430 L260,431.555556 L274,431.555556 L274,430 L260,430 L260,430 Z" id="text_dist" transform="translate(267.000000, 437.000000) scale(-1, 1) translate(-267.000000, -437.000000) "></path>
        </g>
    </g>
</svg>