<?xml version="1.0" encoding="UTF-8"?>
<svg width="14px" height="14px" viewBox="0 0 14 14" version="1.1" xmlns="http://www.w3.org/2000/svg" xmlns:xlink="http://www.w3.org/1999/xlink">
    <!-- Generator: Sketch 48.2 (47327) - http://www.bohemiancoding.com/sketch -->
    <title>text_right</title>
    <desc>Created with Sketch.</desc>
    <defs></defs>
    <g id="Design-Text-Edit" stroke="none" stroke-width="1" fill="none" fill-rule="evenodd" transform="translate(-1808.000000, -483.000000)">
        <g id="Window/Proporties" transform="translate(1596.000000, 53.000000)" fill="#FFFFFF">
            <path d="M221.333333,439.333333 L212,439.333333 L212,440.888889 L221.333333,440.888889 L221.333333,439.333333 L221.333333,439.333333 Z M221.333333,433.111111 L212,433.111111 L212,434.666667 L221.333333,434.666667 L221.333333,433.111111 L221.333333,433.111111 Z M212,437.777778 L226,437.777778 L226,436.222222 L212,436.222222 L212,437.777778 L212,437.777778 Z M212,444 L226,444 L226,442.444444 L212,442.444444 L212,444 L212,444 Z M212,430 L212,431.555556 L226,431.555556 L226,430 L212,430 L212,430 Z" id="text_right" transform="translate(219.000000, 437.000000) scale(-1, 1) translate(-219.000000, -437.000000) "></path>
        </g>
    </g>
</svg>