<?xml version="1.0" encoding="UTF-8"?>
<svg width="14px" height="14px" viewBox="0 0 14 14" version="1.1" xmlns="http://www.w3.org/2000/svg" xmlns:xlink="http://www.w3.org/1999/xlink">
    <!-- Generator: Sketch 48.2 (47327) - http://www.bohemiancoding.com/sketch -->
    <title>text_center</title>
    <desc>Created with Sketch.</desc>
    <defs></defs>
    <g id="Design-Text-Edit" stroke="none" stroke-width="1" fill="none" fill-rule="evenodd" transform="translate(-1760.000000, -483.000000)">
        <g id="Window/Proporties" transform="translate(1596.000000, 53.000000)" fill="#FFFFFF">
            <path d="M175.333333,439.333333 L166,439.333333 L166,440.888889 L175.333333,440.888889 L175.333333,439.333333 L175.333333,439.333333 Z M175.333333,433.111111 L166,433.111111 L166,434.666667 L175.333333,434.666667 L175.333333,433.111111 L175.333333,433.111111 Z M164,437.777778 L178,437.777778 L178,436.222222 L164,436.222222 L164,437.777778 L164,437.777778 Z M164,444 L178,444 L178,442.444444 L164,442.444444 L164,444 L164,444 Z M164,430 L164,431.555556 L178,431.555556 L178,430 L164,430 L164,430 Z" id="text_center"></path>
        </g>
    </g>
</svg>