<?xml version="1.0" encoding="UTF-8"?>
<svg width="14px" height="14px" viewBox="0 0 14 14" version="1.1" xmlns="http://www.w3.org/2000/svg" xmlns:xlink="http://www.w3.org/1999/xlink">
    <!-- Generator: Sketch 48.2 (47327) - http://www.bohemiancoding.com/sketch -->
    <title>text_left</title>
    <desc>Created with Sketch.</desc>
    <defs></defs>
    <g id="Design-Text-Edit" stroke="none" stroke-width="1" fill="none" fill-rule="evenodd" transform="translate(-1710.000000, -483.000000)">
        <g id="Window/Proporties" transform="translate(1596.000000, 53.000000)" fill="#FFFFFF">
            <path d="M123.333333,439.333333 L114,439.333333 L114,440.888889 L123.333333,440.888889 L123.333333,439.333333 L123.333333,439.333333 Z M123.333333,433.111111 L114,433.111111 L114,434.666667 L123.333333,434.666667 L123.333333,433.111111 L123.333333,433.111111 Z M114,437.777778 L128,437.777778 L128,436.222222 L114,436.222222 L114,437.777778 L114,437.777778 Z M114,444 L128,444 L128,442.444444 L114,442.444444 L114,444 L114,444 Z M114,430 L114,431.555556 L128,431.555556 L128,430 L114,430 L114,430 Z" id="text_left"></path>
        </g>
    </g>
</svg>