<?xml version="1.0" encoding="UTF-8"?>
<svg width="15px" height="13px" viewBox="0 0 15 13" version="1.1" xmlns="http://www.w3.org/2000/svg" xmlns:xlink="http://www.w3.org/1999/xlink">
    <!-- Generator: Sketch 52.6 (67491) - http://www.bohemiancoding.com/sketch -->
    <title>Image</title>
    <desc>Created with Sketch.</desc>
    <g id="CarbUI" stroke="none" stroke-width="1" fill="none" fill-rule="evenodd">
        <g id="Style-Guide" transform="translate(-545.000000, -4349.000000)">
            <g id="Stockholm-icons-/-Design-/-Image" transform="translate(543.000000, 4346.000000)">
                <polygon id="Shape" points="0 0 19 0 19 19 0 19"></polygon>
                <path d="M4.75,3.95833333 L14.25,3.95833333 C15.5616763,3.95833333 16.625,5.02165705 16.625,6.33333333 L16.625,13.4583333 C16.625,14.7700096 15.5616763,15.8333333 14.25,15.8333333 L4.75,15.8333333 C3.43832372,15.8333333 2.375,14.7700096 2.375,13.4583333 L2.375,6.33333333 C2.375,5.02165705 3.43832372,3.95833333 4.75,3.95833333 Z M3.95833333,13.4583333 L11.0833333,13.4583333 L7.52083333,8.70833333 L3.95833333,13.4583333 Z M12.6666667,11.0833333 C13.9783429,11.0833333 15.0416667,10.0200096 15.0416667,8.70833333 C15.0416667,7.39665705 13.9783429,6.33333333 12.6666667,6.33333333 C11.3549904,6.33333333 10.2916667,7.39665705 10.2916667,8.70833333 C10.2916667,10.0200096 11.3549904,11.0833333 12.6666667,11.0833333 Z" id="Rectangle-25" fill="#DADFEA" fill-rule="evenodd"></path>
            </g>
        </g>
    </g>
</svg>