<svg xmlns="http://www.w3.org/2000/svg" width="20" height="19" viewBox="0 0 20 19">
  <path fill="none" stroke="#979797" d="M40.5764079,77.7382643 C39.8874412,75.5952243 39.168942,74.1825602 38.4209103,73.5002722 C37.621066,72.7707252 35.7321331,72.0277947 32.7541116,71.2714806 L32.7541058,71.2715033 C32.2188015,71.1355545 31.8950599,70.5913965 32.0310086,70.0560922 C32.1007977,69.7812943 32.283952,69.5490359 32.5349048,69.4171 L48.3260417,61.1150741 C48.8148846,60.8580701 49.419513,61.0460126 49.676517,61.5348555 C49.822435,61.8124034 49.8297172,62.1423249 49.6961879,62.426041 L42.4331919,77.8580385 C42.1980111,78.3577382 41.6022729,78.5721731 41.1025733,78.3369924 C40.8517875,78.2189615 40.6612401,78.002136 40.5764079,77.7382643 Z" transform="translate(-31 -60)"/>
</svg>
