<?xml version="1.0" encoding="UTF-8"?>
<svg width="16px" height="16px" viewBox="0 0 16 16" version="1.1" xmlns="http://www.w3.org/2000/svg" xmlns:xlink="http://www.w3.org/1999/xlink">
    <!-- Generator: Sketch 48.2 (47327) - http://www.bohemiancoding.com/sketch -->
    <title>Fill 216</title>
    <desc>Created with Sketch.</desc>
    <defs></defs>
    <g id="Icon/Action_addimages" stroke="none" stroke-width="1" fill="none" fill-rule="evenodd">
        <path d="M15.7,14.2000625 C15.7,15.0271307 15.0333844,15.7 14.2093561,15.7 L11.4391352,15.7 L7.29844385,11.4654396 L12.2280682,6.48956867 L15.7,9.99407186 L15.7,14.2000625 Z M1.77772346,14.9 C0.964503703,14.9 0.3,14.2511108 0.3,13.4452511 L0.3,12.770046 L4.70267631,8.91941492 L10.8277842,14.9 L1.77772346,14.9 Z M2,0.5 C1.17164237,0.5 0.5,1.17164237 0.5,2 L0.5,14 C0.5,14.8283576 1.17164237,15.5 2,15.5 L14,15.5 C14.8283576,15.5 15.5,14.8283576 15.5,14 L15.5,2 C15.5,1.17164237 14.8283576,0.5 14,0.5 L2,0.5 Z M4.4,6.1 C3.46145763,6.1 2.7,5.33854237 2.7,4.4 C2.7,3.46145763 3.46145763,2.7 4.4,2.7 C5.33854237,2.7 6.1,3.46145763 6.1,4.4 C6.1,5.33854237 5.33854237,6.1 4.4,6.1 Z" id="Fill-216" stroke="#9B9B9B"></path>
    </g>
</svg>