<?xml version="1.0" encoding="UTF-8"?>
<svg width="16px" height="17px" viewBox="0 0 16 17" version="1.1" xmlns="http://www.w3.org/2000/svg" xmlns:xlink="http://www.w3.org/1999/xlink">
    <!-- Generator: Sketch 48.2 (47327) - http://www.bohemiancoding.com/sketch -->
    <title>Fill 213</title>
    <desc>Created with Sketch.</desc>
    <defs></defs>
    <g id="Icon/Action_pen" stroke="none" stroke-width="1" fill="none" fill-rule="evenodd" transform="translate(-2.000000, 0.000000)">
        <path d="M10.9923882,3.57104844 L7.39238816,3.57104844 L7.39238816,1.06895685 C7.37378816,0.450940226 7.40498816,0.423417219 7.99238816,0.443433952 L10.3923882,0.443433952 C10.9803882,0.447812612 10.9947882,0.422791696 10.9923882,1.06895685 L10.9923882,3.57104844 L10.9923882,3.57104844 Z M10.9923882,12.9538919 C9.75998816,12.9532664 7.74158816,12.9538919 7.39238816,12.9538919 L7.39238816,4.82209424 L10.9923882,4.82209424 L10.9923882,12.9538919 L10.9923882,12.9538919 Z M9.19238816,17.4933116 L7.39238816,14.2049377 L10.9923882,14.2049377 L9.19238816,17.4933116 L9.19238816,17.4933116 Z M10.9923882,-0.807611845 L7.39238816,-0.807611845 C6.66638816,-0.807611845 6.19238816,-0.320329507 6.19238816,0.443433952 L6.19238816,14.3381741 L8.59238816,18.7556168 C8.95478816,19.3379786 9.42998816,19.3379786 9.79238816,18.7556168 L12.1923882,14.3381741 L12.1923882,0.443433952 C12.1923882,-0.320329507 11.7183882,-0.806986322 10.9923882,-0.807611845 L10.9923882,-0.807611845 Z" id="Fill-213" fill="#9B9B9B" transform="translate(9.192388, 9.192388) rotate(-315.000000) translate(-9.192388, -9.192388) "></path>
    </g>
</svg>