<?xml version="1.0" encoding="UTF-8"?>
<svg width="13px" height="25px" viewBox="0 0 13 25" version="1.1" xmlns="http://www.w3.org/2000/svg" xmlns:xlink="http://www.w3.org/1999/xlink">
    <!-- Generator: Sketch 48.2 (47327) - http://www.bohemiancoding.com/sketch -->
    <title>Path 4</title>
    <desc>Created with Sketch.</desc>
    <defs></defs>
    <g id="Design_Icon_Grey" stroke="none" stroke-width="1" fill="none" fill-rule="evenodd">
        <path d="M0,25 C1.89038645,19.6356093 3.51032414,15.4896723 4.85981308,12.5621891 C6.20930203,9.63470577 7.99123349,6.40087493 10.2056075,2.86069652 C8.3792071,6.33155615 7.08325695,8.90203708 6.31775701,10.5721393 C5.55225707,12.2422415 4.37780224,15.0614787 2.79439252,19.0298507 C3.61418782,18.7785765 4.22166445,18.5298202 4.61682243,18.2835821 C5.01198041,18.0373439 5.33596795,17.705669 5.58878505,17.2885572 C5.1654106,17.4160731 4.84142306,17.4989918 4.61682243,17.5373134 C4.3922218,17.5756351 4.23022803,17.5756351 4.13084112,17.5373134 C5.02157786,17.1466117 5.66955293,16.7734774 6.07476636,16.4179104 C6.47997978,16.0623435 6.96596108,15.4404529 7.53271028,14.5522388 C7.14381834,14.7554171 6.86032924,14.8797952 6.68224299,14.9253731 C6.50415674,14.9709511 6.30166452,14.9709511 6.07476636,14.9253731 C7.1176403,14.1554631 7.84661226,13.4921132 8.26168224,12.9353234 C8.67675222,12.3785335 9.12223509,11.4664274 9.59813084,10.199005 L8.26168224,10.5721393 C9.30854504,9.80154295 10.037517,9.13819303 10.4485981,8.58208955 C10.8596793,8.02598607 11.2646637,7.15533931 11.6635514,5.97014925 L10.2056075,6.5920398 C10.8944025,5.83140284 11.3803838,5.20951229 11.6635514,4.72636816 C11.946719,4.24322403 12.1897097,3.62133348 12.3925234,2.86069652 L11.4205607,3.35820896 C12.0074266,2.58879023 12.412411,1.96689969 12.635514,1.49253731 C12.858617,1.01817494 12.9801124,0.520662504 13,0 L11.4205607,0.995024876 L11.9065421,0 C11.1017888,0.340377879 10.5348106,0.672052838 10.2056075,0.995024876 C9.87640435,1.31799691 9.47141993,1.93988746 8.99065421,2.86069652 L8.99065421,1.74129353 C8.04282212,2.55584333 7.39484705,3.30211199 7.04672897,3.9800995 C6.6986109,4.65808701 6.45562024,5.52873378 6.31775701,6.5920398 C6.26456192,6.39090711 6.22406348,6.18361026 6.19626168,5.97014925 C6.16845988,5.75668825 6.12796144,5.34209455 6.07476636,4.72636816 C5.26934105,6.00407004 4.70236285,7.08201366 4.37383178,7.960199 C4.0453007,8.83838435 3.88330693,9.70903112 3.88785047,10.5721393 C3.74530096,10.3167906 3.66430408,10.1094938 3.64485981,9.95024876 C3.62541555,9.79100373 3.62541555,9.33495067 3.64485981,8.58208955 C3.06462223,9.18214439 2.6596378,10.0113318 2.42990654,11.0696517 C2.20017528,12.1279717 2.20017528,13.2888341 2.42990654,14.5522388 C2.30135198,14.2890291 2.22035509,14.1231916 2.18691589,14.0547264 C2.15347668,13.9862611 2.03198136,13.6131268 1.82242991,12.9353234 C1.57943925,13.7921504 1.45794393,14.4555003 1.45794393,14.9253731 C1.45794393,15.395246 1.57943925,16.0171365 1.82242991,16.7910448 L1.21495327,15.7960199 C1.30873276,16.6216846 1.38972964,17.2021158 1.45794393,17.5373134 C1.52615821,17.8725111 1.64765354,18.2871048 1.82242991,18.7810945 L0,25 Z" id="Path-4" fill="#BEBEBE"></path>
    </g>
</svg>