<svg xmlns="http://www.w3.org/2000/svg" width="14" height="12" viewBox="0 0 14 12">
  <path id="twitter" d="M12.8,2.982c-.109,5.178-3.281,8.78-8.094,9.005A7.8,7.8,0,0,1,0,10.637,5.69,5.69,0,0,0,4.266,9.4,2.97,2.97,0,0,1,1.531,7.26a4.288,4.288,0,0,0,1.2,0,3.049,3.049,0,0,1-2.3-3.039,2.158,2.158,0,0,0,1.2.338A3.392,3.392,0,0,1,.766.506,8.593,8.593,0,0,0,6.781,3.658c-.766-3.152,3.391-4.84,5.031-2.7A7.233,7.233,0,0,0,13.672.281a3.178,3.178,0,0,1-1.2,1.689A6.134,6.134,0,0,0,14,1.519a2.983,2.983,0,0,1-1.2,1.463Z" fill="#fff" opacity="0.654"/>
</svg>
