<?xml version="1.0" encoding="UTF-8"?>
<svg width="10px" height="20px" viewBox="0 0 10 20" version="1.1" xmlns="http://www.w3.org/2000/svg" xmlns:xlink="http://www.w3.org/1999/xlink">
    <!-- Generator: Sketch 48.2 (47327) - http://www.bohemiancoding.com/sketch -->
    <title>use-as-wallpaper</title>
    <desc>Created with Sketch.</desc>
    <defs></defs>
    <g id="icon/tabbar_device" stroke="none" stroke-width="1" fill="none" fill-rule="evenodd">
        <path d="M0,1.4991585 C0,0.67119625 0.676418444,0 1.5103589,0 L8.05485849,0 C8.88900661,0 9.56521739,0.67115475 9.56521739,1.4991585 L9.56521739,18.5008415 C9.56521739,19.3288038 8.88879895,20 8.05485849,20 L1.5103589,20 C0.676210778,20 0,19.3288453 0,18.5008415 L0,1.4991585 L0,1.4991585 Z M0.755148741,2.75 L8.81006865,2.75 L8.81006865,17.25 L0.755148741,17.25 L0.755148741,2.75 L0.755148741,2.75 Z M4.7826087,19.25 C5.19966577,19.25 5.53775744,18.9142135 5.53775744,18.5 C5.53775744,18.0857865 5.19966577,17.75 4.7826087,17.75 C4.36555162,17.75 4.02745995,18.0857865 4.02745995,18.5 C4.02745995,18.9142135 4.36555162,19.25 4.7826087,19.25 L4.7826087,19.25 Z" id="use-as-wallpaper" fill="#929292"></path>
    </g>
</svg>