<?xml version="1.0" encoding="UTF-8"?>
<svg width="15px" height="15px" viewBox="0 0 15 15" version="1.1" xmlns="http://www.w3.org/2000/svg" xmlns:xlink="http://www.w3.org/1999/xlink">
    <!-- Generator: Sketch 48.2 (47327) - http://www.bohemiancoding.com/sketch -->
    <title>Fill 18</title>
    <desc>Created with Sketch.</desc>
    <defs></defs>
    <g id="icon/tabbar_zoomin" stroke="none" stroke-width="1" fill="none" fill-rule="evenodd">
        <path d="M8.68301984,6.756799 L6.80894293,6.756799 L6.80894293,8.63238512 C6.80894293,8.89496718 6.59935765,9.10128165 6.34054092,9.10128165 C6.08219307,9.10128165 5.87213891,8.89496718 5.87213891,8.63238512 L5.87213891,6.756799 L3.99899974,6.756799 C3.74065189,6.756799 3.53059773,6.42388246 3.53059773,6.16130041 C3.53059773,5.90340731 3.74065189,5.81900594 3.99899974,5.81900594 L5.87213891,5.81900594 L5.87213891,3.94341982 C5.87213891,3.68083776 6.08219307,3.47452329 6.34054092,3.47452329 C6.59935765,3.47452329 6.80894293,3.68083776 6.80894293,3.94341982 L6.80894293,5.81900594 L8.68301984,5.81900594 C8.9413677,5.81900594 9.15142185,6.03000938 9.15142185,6.28790247 C9.15142185,6.54579556 8.9413677,6.756799 8.68301984,6.756799 L8.68301984,6.756799 Z M14.8575805,14.18412 L10.9851759,10.3719912 C11.9993436,9.2700844 12.6220041,7.81650516 12.6220041,6.21287902 C12.6220041,2.78055642 9.79658818,0 6.31100206,0 C2.82541593,0 0,2.78055642 0,6.21287902 C0,9.64051266 2.82541593,12.4210691 6.31100206,12.4210691 C7.81701532,12.4210691 9.19830894,11.9005939 10.2832762,11.0331354 L14.1716224,14.859331 C14.3610462,15.0468897 14.6681566,15.0468897 14.8575805,14.859331 C15.0474732,14.6764614 15.0474732,14.3716786 14.8575805,14.18412 L14.8575805,14.18412 Z" id="Fill-18" fill="#9B9B9B"></path>
    </g>
</svg>