<?xml version="1.0" encoding="UTF-8"?>
<svg width="15px" height="15px" viewBox="0 0 15 15" version="1.1" xmlns="http://www.w3.org/2000/svg" xmlns:xlink="http://www.w3.org/1999/xlink">
    <!-- Generator: Sketch 48.2 (47327) - http://www.bohemiancoding.com/sketch -->
    <title>Fill 17</title>
    <desc>Created with Sketch.</desc>
    <defs></defs>
    <g id="icon/tabbar_zoomout" stroke="none" stroke-width="1" fill="none" fill-rule="evenodd">
        <path d="M8.76272789,6.71928728 L4.05245102,6.71928728 C3.79879188,6.71928728 3.59295756,6.51766177 3.59295756,6.26914661 C3.59295756,6.02063145 3.79879188,5.81900594 4.05245102,5.81900594 L8.76272789,5.81900594 C9.01638704,5.81900594 9.22222135,6.02063145 9.22222135,6.26914661 C9.22222135,6.51766177 9.01638704,6.71928728 8.76272789,6.71928728 L8.76272789,6.71928728 Z M14.8575805,14.18412 L10.9851759,10.3719912 C11.9993436,9.2700844 12.6220041,7.81650516 12.6220041,6.21287902 C12.6220041,2.78055642 9.79658818,0 6.31100206,0 C2.82541593,0 0,2.78055642 0,6.21287902 C0,9.64051266 2.82541593,12.4210691 6.31100206,12.4210691 C7.81701532,12.4210691 9.19830894,11.9005939 10.2832762,11.0331354 L14.1716224,14.859331 C14.3610462,15.0468897 14.6681566,15.0468897 14.8575805,14.859331 C15.0474732,14.6764614 15.0474732,14.3716786 14.8575805,14.18412 L14.8575805,14.18412 Z" id="Fill-17" fill="#9B9B9B"></path>
    </g>
</svg>