<?xml version="1.0" encoding="UTF-8"?>
<svg width="13px" height="13px" viewBox="0 0 13 13" version="1.1" xmlns="http://www.w3.org/2000/svg" xmlns:xlink="http://www.w3.org/1999/xlink">
    <!-- Generator: Sketch 52.6 (67491) - http://www.bohemiancoding.com/sketch -->
    <title>Pencil</title>
    <desc>Created with Sketch.</desc>
    <g id="CarbUI" stroke="none" stroke-width="1" fill="none" fill-rule="evenodd">
        <g id="Style-Guide" transform="translate(-462.000000, -4349.000000)">
            <g id="Stockholm-icons-/-Design-/-Pencil" transform="translate(469.727922, 4353.727922) rotate(45.000000) translate(-469.727922, -4353.727922) translate(460.727922, 4344.727922)">
                <rect id="bound" x="0" y="0" width="18" height="18"></rect>
                <path d="M7.875,6 L4.5,14.25 C4.52644748,14.3499495 4.54701313,14.4234516 4.56169696,14.4705062 C4.82788234,15.3235021 6.05731669,15.75 6.75,15.75 C7.875,15.75 8.25,14.25 9.375,14.25 C10.5,14.25 10.9437981,15.7382339 12,15.75 C12.7041346,15.7578441 13.4541346,15.2578441 14.25,14.25 L10.875,6 L7.875,6 Z" id="Path-18" fill="#DADFEA" fill-rule="evenodd"></path>
                <path d="M8.475,4.5 L9.375,2.25 L10.275,4.5 L8.475,4.5 Z M10.875,6 L7.875,6 L10.875,6 Z" id="Combined-Shape" fill="#5D7590" fill-rule="evenodd"></path>
            </g>
        </g>
    </g>
</svg>