<?xml version="1.0" encoding="UTF-8"?>
<svg width="15px" height="13px" viewBox="0 0 15 13" version="1.1" xmlns="http://www.w3.org/2000/svg" xmlns:xlink="http://www.w3.org/1999/xlink">
    <!-- Generator: Sketch 52.6 (67491) - http://www.bohemiancoding.com/sketch -->
    <title>Redo</title>
    <desc>Created with Sketch.</desc>
    <g id="CarbUI" stroke="none" stroke-width="1" fill="none" fill-rule="evenodd">
        <g id="Style-Guide" transform="translate(-745.000000, -4349.000000)">
            <g id="Stockholm-icons-/-Text-/-Redo" transform="translate(743.000000, 4346.000000)">
                <rect id="bound" x="0" y="0" width="19" height="19"></rect>
                <path d="M16.9773844,14.084554 C16.9773844,13.43514 17.1165445,10.8722738 15.0948567,8.83898926 C13.7341796,7.47058105 11.6978027,7.23323568 9.26249994,7.125 L9.26249994,3.71535142 C9.26249994,3.38743235 8.99666901,3.12160142 8.66874994,3.12160142 C8.52125434,3.12160142 8.37903877,3.17649944 8.26979955,3.27560416 L2.61724745,8.40374957 C2.37438175,8.62408379 2.35611637,8.99958152 2.57645059,9.24244722 C2.58801533,9.25519457 2.60012887,9.26743304 2.61275691,9.27912795 L8.26530901,14.5139947 C8.50590144,14.736809 8.88156679,14.722397 9.10438107,14.4818045 C9.20602959,14.3720456 9.26249994,14.2279612 9.26249994,14.0783636 L9.26249994,10.6875 C10.8087239,10.7300212 11.9101265,10.8283736 12.9108154,11.1467285 C14.3516901,11.6051223 15.4652171,12.9056613 16.2513963,15.0483454 L16.251465,15.0483203 C16.3372407,15.2820969 16.5597937,15.4375 16.8088097,15.4375 L16.9812499,15.4375 C16.9812499,15.0470785 16.9773844,14.4285889 16.9773844,14.084554 Z" id="Shape" fill="#DADFEA" fill-rule="nonzero" transform="translate(9.701847, 9.279551) scale(-1, 1) translate(-9.701847, -9.279551) "></path>
            </g>
        </g>
    </g>
</svg>