<?xml version="1.0" encoding="UTF-8"?>
<svg width="15px" height="15px" viewBox="0 0 15 15" version="1.1" xmlns="http://www.w3.org/2000/svg" xmlns:xlink="http://www.w3.org/1999/xlink">
    <!-- Generator: Sketch 52.6 (67491) - http://www.bohemiancoding.com/sketch -->
    <title>Crop Copy</title>
    <desc>Created with Sketch.</desc>
    <g id="CarbUI" stroke="none" stroke-width="1" fill="none" fill-rule="evenodd">
        <g id="Style-Guide" transform="translate(-505.000000, -4348.000000)">
            <g id="Stockholm-icons-/-Design-/-Crop" transform="translate(512.500000, 4355.500000) rotate(-270.000000) translate(-512.500000, -4355.500000) translate(503.000000, 4346.000000)">
                <rect id="bound" x="0" y="0" width="19.3226166" height="19.3226166"></rect>
                <path d="M8.05109023,4.83065414 L11.6740808,4.83065414 C13.4526786,4.83065414 14.4919624,5.86993798 14.4919624,7.64853572 L14.4919624,11.2715263 L12.8817444,11.2715263 L12.8817444,7.64853572 C12.8817444,6.75923685 12.5633797,6.44087219 11.6740808,6.44087219 L8.05109023,6.44087219 L8.05109023,4.83065414 Z M6.44087219,4.83065414 L6.44087219,6.44087219 L3.22043609,6.44087219 C2.77578666,6.44087219 2.41532707,6.0804126 2.41532707,5.63576316 C2.41532707,5.19111373 2.77578666,4.83065414 3.22043609,4.83065414 L6.44087219,4.83065414 Z M14.4919624,12.8817444 L14.4919624,16.1021805 C14.4919624,16.5468299 14.1315028,16.9072895 13.6868534,16.9072895 C13.242204,16.9072895 12.8817444,16.5468299 12.8817444,16.1021805 L12.8817444,12.8817444 L14.4919624,12.8817444 Z" id="Combined-Shape" fill="#5D7590" fill-rule="nonzero"></path>
                <path d="M5.63576316,4.02554512 C5.19111373,4.02554512 4.83065414,3.66508553 4.83065414,3.22043609 C4.83065414,2.77578666 5.19111373,2.41532707 5.63576316,2.41532707 L14.0894079,2.41532707 C15.8680056,2.41532707 16.9072895,3.45461091 16.9072895,5.23320865 L16.9072895,13.6868534 C16.9072895,14.1315028 16.5468299,14.4919624 16.1021805,14.4919624 C15.657531,14.4919624 15.2970714,14.1315028 15.2970714,13.6868534 L15.2970714,5.23320865 C15.2970714,4.34390978 14.9787068,4.02554512 14.0894079,4.02554512 L5.63576316,4.02554512 Z" id="Path-12-Copy" fill="#DADFEA" fill-rule="nonzero" transform="translate(10.868972, 8.453645) rotate(-180.000000) translate(-10.868972, -8.453645) "></path>
            </g>
        </g>
    </g>
</svg>