<?xml version="1.0" encoding="UTF-8"?>
<svg width="14px" height="15px" viewBox="0 0 14 15" version="1.1" xmlns="http://www.w3.org/2000/svg" xmlns:xlink="http://www.w3.org/1999/xlink">
    <!-- Generator: Sketch 52.6 (67491) - http://www.bohemiancoding.com/sketch -->
    <title>Pen-tool-vector Copy</title>
    <desc>Created with Sketch.</desc>
    <g id="CarbUI" stroke="none" stroke-width="1" fill="none" fill-rule="evenodd">
        <g id="Style-Guide" transform="translate(-414.000000, -4347.000000)">
            <g id="Stockholm-icons-/-Design-/-Pen-tool-vector" transform="translate(422.142136, 4353.142136) rotate(45.000000) translate(-422.142136, -4353.142136) translate(412.142136, 4343.142136)">
                <rect id="bound" x="0" y="0" width="19.7746076" height="19.7746076"></rect>
                <path d="M9.06336181,2.47182595 L9.06336181,9.06336181 C9.06336181,9.13441561 9.07235583,9.20336874 9.0892675,9.26914485 C8.58246288,9.55020218 8.23941983,10.090663 8.23941983,10.7112458 C8.23941983,11.621347 8.97720261,12.3591297 9.88730379,12.3591297 C10.797405,12.3591297 11.5351878,11.621347 11.5351878,10.7112458 C11.5351878,10.090663 11.1921447,9.55020218 10.6853401,9.26914485 C10.7022518,9.20336874 10.7112458,9.13441561 10.7112458,9.06336181 L10.7112458,2.47182595 L14.651511,10.3523563 C14.7653184,10.5799712 14.7731404,10.8461482 14.6728953,11.0800533 L12.4714892,16.2166676 C12.4033254,16.3757164 12.246935,16.4788397 12.073895,16.4788397 L7.70071254,16.4788397 C7.52767256,16.4788397 7.37128218,16.3757164 7.3031184,16.2166676 L5.10171225,11.0800533 C5.00146722,10.8461482 5.00928919,10.5799712 5.12309662,10.3523563 L9.06336181,2.47182595 Z" id="Combined-Shape" fill="#DADFEA" fill-rule="evenodd"></path>
                <path d="M8.28061693,17.3027816 L11.4939907,17.3027816 C11.9717938,17.3027816 12.3591297,17.6901176 12.3591297,18.1679207 L12.3591297,18.9506656 L7.41547785,18.9506656 L7.41547785,18.1679207 C7.41547785,17.6901176 7.80281381,17.3027816 8.28061693,17.3027816 Z" id="Rectangle-2" fill="#5D7590" fill-rule="evenodd"></path>
            </g>
        </g>
    </g>
</svg>