<?xml version="1.0" encoding="UTF-8"?>
<svg width="13px" height="14px" viewBox="0 0 13 14" version="1.1" xmlns="http://www.w3.org/2000/svg" xmlns:xlink="http://www.w3.org/1999/xlink">
    <!-- Generator: Sketch 52.6 (67491) - http://www.bohemiancoding.com/sketch -->
    <title>Zoom-plus</title>
    <desc>Created with Sketch.</desc>
    <g id="CarbUI" stroke="none" stroke-width="1" fill="none" fill-rule="evenodd">
        <g id="Style-Guide" transform="translate(-646.000000, -4349.000000)">
            <g id="Stockholm-icons-/-Design-/-Zoom-plus" transform="translate(643.000000, 4346.000000)">
                <rect id="bound" x="0" y="0" width="19" height="19"></rect>
                <path d="M11.3152071,13.2264595 C11.0060421,12.9172945 11.0060421,12.4160389 11.3152071,12.1068738 C11.6243722,11.7977087 12.1256278,11.7977087 12.4347929,12.1068738 L15.6014595,15.2735405 C15.9106246,15.5827055 15.9106246,16.0839611 15.6014595,16.3931262 C15.2922945,16.7022913 14.7910389,16.7022913 14.4818738,16.3931262 L11.3152071,13.2264595 Z" id="Path-2" fill="#5D7590" fill-rule="nonzero"></path>
                <path d="M8.70833333,12.6666667 C10.8944605,12.6666667 12.6666667,10.8944605 12.6666667,8.70833333 C12.6666667,6.5222062 10.8944605,4.75 8.70833333,4.75 C6.5222062,4.75 4.75,6.5222062 4.75,8.70833333 C4.75,10.8944605 6.5222062,12.6666667 8.70833333,12.6666667 Z M8.70833333,14.25 C5.64775534,14.25 3.16666667,11.7689113 3.16666667,8.70833333 C3.16666667,5.64775534 5.64775534,3.16666667 8.70833333,3.16666667 C11.7689113,3.16666667 14.25,5.64775534 14.25,8.70833333 C14.25,11.7689113 11.7689113,14.25 8.70833333,14.25 Z" id="Path" fill="#DADFEA" fill-rule="nonzero"></path>
                <path d="M8.3125,8.3125 L8.3125,7.52083333 C8.3125,7.30222062 8.48972062,7.125 8.70833333,7.125 C8.92694605,7.125 9.10416667,7.30222062 9.10416667,7.52083333 L9.10416667,8.3125 L9.89583333,8.3125 C10.114446,8.3125 10.2916667,8.48972062 10.2916667,8.70833333 C10.2916667,8.92694605 10.114446,9.10416667 9.89583333,9.10416667 L9.10416667,9.10416667 L9.10416667,9.89583333 C9.10416667,10.114446 8.92694605,10.2916667 8.70833333,10.2916667 C8.48972062,10.2916667 8.3125,10.114446 8.3125,9.89583333 L8.3125,9.10416667 L7.52083333,9.10416667 C7.30222062,9.10416667 7.125,8.92694605 7.125,8.70833333 C7.125,8.48972062 7.30222062,8.3125 7.52083333,8.3125 L8.3125,8.3125 Z" id="Combined-Shape" fill="#5D7590" fill-rule="evenodd"></path>
            </g>
        </g>
    </g>
</svg>