<?xml version="1.0" encoding="UTF-8"?>
<svg width="13px" height="14px" viewBox="0 0 13 14" version="1.1" xmlns="http://www.w3.org/2000/svg" xmlns:xlink="http://www.w3.org/1999/xlink">
    <!-- Generator: Sketch 52.6 (67491) - http://www.bohemiancoding.com/sketch -->
    <title>Zoom-minus</title>
    <desc>Created with Sketch.</desc>
    <g id="CarbUI" stroke="none" stroke-width="1" fill="none" fill-rule="evenodd">
        <g id="Style-Guide" transform="translate(-696.000000, -4349.000000)">
            <g id="Stockholm-icons-/-Design-/-Zoom-minus" transform="translate(693.000000, 4346.000000)">
                <rect id="bound" x="0" y="0" width="19" height="19"></rect>
                <path d="M11.3152071,13.2264595 C11.0060421,12.9172945 11.0060421,12.4160389 11.3152071,12.1068738 C11.6243722,11.7977087 12.1256278,11.7977087 12.4347929,12.1068738 L15.6014595,15.2735405 C15.9106246,15.5827055 15.9106246,16.0839611 15.6014595,16.3931262 C15.2922945,16.7022913 14.7910389,16.7022913 14.4818738,16.3931262 L11.3152071,13.2264595 Z" id="Path-2" fill="#5D7590" fill-rule="nonzero"></path>
                <path d="M8.70833333,12.6666667 C10.8944605,12.6666667 12.6666667,10.8944605 12.6666667,8.70833333 C12.6666667,6.5222062 10.8944605,4.75 8.70833333,4.75 C6.5222062,4.75 4.75,6.5222062 4.75,8.70833333 C4.75,10.8944605 6.5222062,12.6666667 8.70833333,12.6666667 Z M8.70833333,14.25 C5.64775534,14.25 3.16666667,11.7689113 3.16666667,8.70833333 C3.16666667,5.64775534 5.64775534,3.16666667 8.70833333,3.16666667 C11.7689113,3.16666667 14.25,5.64775534 14.25,8.70833333 C14.25,11.7689113 11.7689113,14.25 8.70833333,14.25 Z" id="Path" fill="#DADFEA" fill-rule="nonzero"></path>
                <rect id="Combined-Shape" fill="#5D7590" fill-rule="evenodd" x="7.125" y="8.3125" width="3.16666667" height="1" rx="0.5"></rect>
            </g>
        </g>
    </g>
</svg>