<?xml version="1.0" encoding="UTF-8"?>
<svg width="19px" height="9px" viewBox="0 0 19 9" version="1.1" xmlns="http://www.w3.org/2000/svg" xmlns:xlink="http://www.w3.org/1999/xlink">
    <!-- Generator: Sketch 52.6 (67491) - http://www.bohemiancoding.com/sketch -->
    <title>Rainbow</title>
    <desc>Created with Sketch.</desc>
    <g id="CarbUI" stroke="none" stroke-width="1" fill="none" fill-rule="evenodd">
        <g id="Style-Guide" transform="translate(-420.000000, -4478.000000)">
            <g id="Stockholm-icons-/-Weather-/-Rainbow" transform="translate(420.000000, 4474.000000)">
                <polygon id="Shape" points="0 0 19 0 19 19 0 19"></polygon>
                <path d="M4.01424973,12.6666667 C4.40067854,9.95768536 6.73292193,7.91666667 9.5,7.91666667 C12.2672753,7.91666667 14.5993646,9.9579042 14.9857504,12.6666667 L13.3791523,12.6666667 C13.0123966,10.8598931 11.4150083,9.5 9.5,9.5 C7.58499165,9.5 5.98760336,10.8598931 5.62084767,12.6666667 L4.01424973,12.6666667 Z M7.25954981,12.6666667 C7.58690944,11.7386841 8.47386203,11.0833333 9.5,11.0833333 C10.5262001,11.0833333 11.4131035,11.7387393 11.7404489,12.6666667 L7.25954981,12.6666667 Z" id="Combined-Shape" fill="#5D7590" fill-rule="evenodd"></path>
                <path d="M9.5,4.75 C14.042617,4.75 17.7728598,8.22818749 18.1728326,12.6666667 L16.5815148,12.6666667 C16.5747446,12.6054228 16.5671981,12.5444129 16.5588856,12.483647 C16.0836679,9.00975417 13.1043897,6.33333333 9.5,6.33333333 C5.8983058,6.33333333 2.92078856,9.00575257 2.44218481,12.4758545 C2.43344854,12.5391966 2.4255449,12.6028044 2.41848528,12.6666666 L0.827160891,12.6666667 C1.22714017,8.22818749 4.95738298,4.75 9.5,4.75 Z" id="Path" fill="#000000" fill-rule="evenodd"></path>
                <path d="M9.5,4.75 C14.042617,4.75 17.7728598,8.22818749 18.1728326,12.6666667 L16.5815148,12.6666667 C16.5747446,12.6054228 16.5671981,12.5444129 16.5588856,12.483647 C16.0836679,9.00975417 13.1043897,6.33333333 9.5,6.33333333 C5.8983058,6.33333333 2.92078856,9.00575257 2.44218481,12.4758545 C2.43344854,12.5391966 2.4255449,12.6028044 2.41848528,12.6666666 L0.827160891,12.6666667 C1.22714017,8.22818749 4.95738298,4.75 9.5,4.75 Z" id="Path-Copy" fill="#DADFEA" fill-rule="evenodd"></path>
            </g>
        </g>
    </g>
</svg>