<?xml version="1.0" encoding="UTF-8"?>
<svg width="17px" height="13px" viewBox="0 0 17 13" version="1.1" xmlns="http://www.w3.org/2000/svg" xmlns:xlink="http://www.w3.org/1999/xlink">
    <!-- Generator: Sketch 52.6 (67491) - http://www.bohemiancoding.com/sketch -->
    <title>Shuffle</title>
    <desc>Created with Sketch.</desc>
    <g id="CarbUI" stroke="none" stroke-width="1" fill="none" fill-rule="evenodd">
        <g id="Style-Guide" transform="translate(-300.000000, -4477.000000)">
            <g id="Stockholm-icons-/-Media-/-Shuffle" transform="translate(299.000000, 4474.000000)">
                <rect id="bound" x="0" y="0" width="19" height="19"></rect>
                <path d="M14.25,11.875 L14.25,10.6696204 C14.25,10.5735284 14.2849548,10.4807174 14.3483442,10.4084993 C14.4925574,10.2442005 14.7426558,10.227918 14.9069545,10.3721313 L17.2304657,12.4115937 C17.2436732,12.4231866 17.256094,12.4356462 17.2676457,12.4488897 C17.4113464,12.6136369 17.3942848,12.8636833 17.2295377,13.007384 L14.9060264,15.0340662 C14.8339312,15.0969512 14.7415008,15.1315984 14.6458333,15.1315984 C14.4272206,15.1315984 14.25,14.9543777 14.25,14.735765 L14.25,13.4583333 L13.0192901,13.4583333 C11.5534855,13.4583333 10.169784,12.7815873 9.26986703,11.6245512 L6.10532529,7.55585472 C5.50538066,6.78449734 4.58291297,6.33333333 3.60570994,6.33333333 L1.58333333,6.33333333 L1.58333333,4.75 L3.60570994,4.75 C5.07151449,4.75 6.45521602,5.42674601 7.35513297,6.58378209 L10.5196747,10.6524786 C11.1196193,11.423836 12.042087,11.875 13.0192901,11.875 L14.25,11.875 Z" id="Combined-Shape" fill="#5D7590" fill-rule="nonzero" opacity="0.439999998"></path>
                <path d="M14.25,4.75 L14.25,3.54462076 C14.25,3.44852874 14.2849548,3.35571773 14.3483442,3.28349963 C14.4925574,3.11920092 14.7426558,3.10291842 14.9069545,3.24713164 L17.2304657,5.28659407 C17.2436732,5.29818696 17.256094,5.31064653 17.2676457,5.32389008 C17.4113464,5.48863725 17.3942848,5.73868365 17.2295377,5.88238434 L14.9060264,7.90906656 C14.8339312,7.97195162 14.7415008,8.00659875 14.6458333,8.00659875 C14.4272206,8.00659875 14.25,7.82937813 14.25,7.61076541 L14.25,6.33333333 L13.0192901,6.33333333 C12.042087,6.33333333 11.1196193,6.78449734 10.5196747,7.55585472 L7.35513297,11.6245512 C6.45521602,12.7815873 5.07151449,13.4583333 3.60570994,13.4583333 L1.58333333,13.4583333 L1.58333333,11.875 L3.60570994,11.875 C4.58291297,11.875 5.50538066,11.423836 6.10532529,10.6524786 L9.26986703,6.58378209 C10.169784,5.42674601 11.5534855,4.75 13.0192901,4.75 L14.25,4.75 Z" id="Combined-Shape" fill="#DADFEA" fill-rule="nonzero"></path>
            </g>
        </g>
    </g>
</svg>