<?xml version="1.0" encoding="UTF-8"?>
<svg width="15px" height="15px" viewBox="0 0 15 15" version="1.1" xmlns="http://www.w3.org/2000/svg" xmlns:xlink="http://www.w3.org/1999/xlink">
    <!-- Generator: Sketch 52.6 (67491) - http://www.bohemiancoding.com/sketch -->
    <title>Tools</title>
    <desc>Created with Sketch.</desc>
    <g id="CarbUI" stroke="none" stroke-width="1" fill="none" fill-rule="evenodd">
        <g id="Style-Guide" transform="translate(-502.000000, -4476.000000)">
            <g id="Stockholm-icons-/-Tools-/-Tools" transform="translate(500.000000, 4474.000000)">
                <rect id="bound" x="0" y="0" width="19" height="19"></rect>
                <path d="M12.6268834,3.01435938 L10.3111516,5.33009123 C9.69282144,5.94842135 9.69282144,6.95093257 10.3111516,7.5692627 L11.4307373,8.68884844 C12.0490674,9.30717856 13.0515786,9.30717856 13.6699088,8.68884844 L15.9856406,6.37311659 C16.4145038,7.95212308 16.0150953,9.70241908 14.7840259,10.9334885 C13.3358883,12.3816261 11.169276,12.678961 9.40816145,11.83101 L5.34957612,15.8895954 C4.73124599,16.5079255 3.72873478,16.5079255 3.11040465,15.8895954 C2.49207452,15.2712652 2.49207452,14.268754 3.11040465,13.6504239 L7.16898998,9.59183855 C6.32103905,7.83072395 6.6183739,5.66411168 8.06651149,4.21597409 C9.29758092,2.98490466 11.0478769,2.58549621 12.6268834,3.01435938 Z" id="Combined-Shape" fill="#DADFEA" fill-rule="evenodd"></path>
                <path d="M13.1866763,4.69373798 L14.306262,5.81332372 C14.6154271,6.12248878 14.6154271,6.62374439 14.306262,6.93290946 L13.2140193,8.0251522 C12.9048542,8.33431727 12.4035986,8.33431727 12.0944335,8.0251522 L10.9748478,6.90556647 C10.6656827,6.5964014 10.6656827,6.09514579 10.9748478,5.78598073 L12.0670905,4.69373798 C12.3762556,4.38457292 12.8775112,4.38457292 13.1866763,4.69373798 Z" id="Rectangle-2" fill="#5D7590" fill-rule="evenodd"></path>
            </g>
        </g>
    </g>
</svg>