<svg xmlns="http://www.w3.org/2000/svg" width="200" height="40" viewBox="0 0 200 40">
  <path d="M20,18.1h11.4a11.42,11.42,0,0,1,.19,2,12.74,12.74,0,0,1-1.43,6.09A10.33,10.33,0,0,1,26,30.4,12.06,12.06,0,0,1,20,31.91a11.87,11.87,0,0,1-4.7-1,11.83,11.83,0,0,1-6.42-6.42,12.09,12.09,0,0,1,0-9.4A11.83,11.83,0,0,1,15.27,8.7a11.87,11.87,0,0,1,4.7-1,11.44,11.44,0,0,1,8.1,3.16l-3.29,3.16A6.65,6.65,0,0,0,20,12.2a7.22,7.22,0,0,0-3.75,1,7.73,7.73,0,0,0-2.73,10.43,7.53,7.53,0,0,0,2.73,2.78,7.21,7.21,0,0,0,3.75,1,8,8,0,0,0,2.52-.38,6.35,6.35,0,0,0,1.89-.94,6.84,6.84,0,0,0,1.29-1.29,6,6,0,0,0,.81-1.37,5.76,5.76,0,0,0,.35-1.23H20V18.1Z" style="fill: #fff"/>
  <path d="M73,12.16a10.64,10.64,0,0,1-2.55,2.63q0,0.22,0,.66a14.43,14.43,0,0,1-.6,4.08,14.75,14.75,0,0,1-1.82,3.91,15.36,15.36,0,0,1-2.9,3.31A12.93,12.93,0,0,1,61.09,29a14.84,14.84,0,0,1-5.08.86,14.11,14.11,0,0,1-7.8-2.28,10.89,10.89,0,0,0,1.23.06,9.94,9.94,0,0,0,6.31-2.17A5.09,5.09,0,0,1,51,22a6.4,6.4,0,0,0,1,.08,5.25,5.25,0,0,0,1.34-.17,5,5,0,0,1-2.92-1.75,4.91,4.91,0,0,1-1.16-3.23V16.84a5,5,0,0,0,2.3.64,5.07,5.07,0,0,1-1.65-1.81,5.09,5.09,0,0,1,.08-5,14.39,14.39,0,0,0,4.63,3.75A14.14,14.14,0,0,0,60.42,16a5.61,5.61,0,0,1-.13-1.16,5.08,5.08,0,0,1,8.79-3.48,10,10,0,0,0,3.22-1.23,4.93,4.93,0,0,1-2.23,2.8A10.11,10.11,0,0,0,73,12.16Z" style="fill: #fff"/>
  <path d="M106.41,5.93v4.15h-2.47a2.31,2.31,0,0,0-1.82.57,2.6,2.6,0,0,0-.47,1.7v3h4.61L105.64,20h-4V31.91H96.83V20h-4V15.32h4V11.89a6.08,6.08,0,0,1,1.64-4.54,5.94,5.94,0,0,1,4.36-1.61A26,26,0,0,1,106.41,5.93Z" style="fill: #fff"/>
  <path d="M151,24.35A15.15,15.15,0,0,1,149,28.28q-2,3.08-4,3.08a7.26,7.26,0,0,1-2.2-.5,7,7,0,0,0-2.37-.5,6.05,6.05,0,0,0-2.23.52,5.68,5.68,0,0,1-2.08.53q-2.39,0-4.73-4.07A16.12,16.12,0,0,1,129,19.42a9.33,9.33,0,0,1,1.78-5.88,5.43,5.43,0,0,1,4.47-2.26,10.46,10.46,0,0,1,2.78.47,10.14,10.14,0,0,0,2.17.47,7.86,7.86,0,0,0,2.25-.53,8.89,8.89,0,0,1,2.72-.53,5.75,5.75,0,0,1,3.35,1,8.12,8.12,0,0,1,1.64,1.57,10.19,10.19,0,0,0-1.79,1.86,5.6,5.6,0,0,0-1,3.25,6,6,0,0,0,1.08,3.51A4.78,4.78,0,0,0,151,24.35ZM145,5.9A6,6,0,0,1,144.58,8a6.45,6.45,0,0,1-1.46,2.17,4.45,4.45,0,0,1-1.7,1.13,8.78,8.78,0,0,1-1.64.27,7.17,7.17,0,0,1,1.23-4,6.27,6.27,0,0,1,3.93-2.33,1.65,1.65,0,0,1,0,.17,1.35,1.35,0,0,0,0,.17s0,0.09,0,.16S145,5.86,145,5.9Z" style="fill: #fff"/>
  <path d="M177.67,11.84v8h-8.31V13Zm0,9.06v7.94l-8.31-1.15V20.9h8.31Zm12-10.7v9.68H178.59V11.72Zm0,10.7v9.58L178.59,29V20.9h11.06Z" style="fill: #fff"/>
</svg>
