<?xml version="1.0" encoding="UTF-8"?>
<svg width="14px" height="14px" viewBox="0 0 14 14" version="1.1" xmlns="http://www.w3.org/2000/svg" xmlns:xlink="http://www.w3.org/1999/xlink">
    <!-- Generator: Sketch 52.6 (67491) - http://www.bohemiancoding.com/sketch -->
    <title>Interselect</title>
    <desc>Created with Sketch.</desc>
    <g id="CarbUI" stroke="none" stroke-width="1" fill="none" fill-rule="evenodd">
        <g id="Style-Guide" transform="translate(-376.000000, -4618.000000)">
            <g id="Stockholm-icons-/-Design-/-Interselect" transform="translate(374.000000, 4615.000000)">
                <rect id="bound" x="0" y="0" width="19" height="19"></rect>
                <path d="M4.75,7.125 L4.75,11.875 C4.75,13.1866763 5.81332372,14.25 7.125,14.25 L11.875,14.25 L11.875,14.8977273 C11.875,16.0173864 11.2673864,16.625 10.1477273,16.625 L4.10227273,16.625 C2.98261355,16.625 2.375,16.0173864 2.375,14.8977273 L2.375,8.85227273 C2.375,7.73261355 2.98261355,7.125 4.10227273,7.125 L4.75,7.125 Z M13.4583333,12.6666667 L13.4583333,7.91666667 C13.4583333,6.60499039 12.3950096,5.54166667 11.0833333,5.54166667 L6.33333333,5.54166667 L6.33333333,4.89393939 C6.33333333,3.77428022 6.94094689,3.16666667 8.06060606,3.16666667 L14.1060606,3.16666667 C15.2257198,3.16666667 15.8333333,3.77428022 15.8333333,4.89393939 L15.8333333,10.9393939 C15.8333333,12.0590531 15.2257198,12.6666667 14.1060606,12.6666667 L13.4583333,12.6666667 Z" id="Combined-Shape" fill="#5D7590" fill-rule="nonzero"></path>
                <path d="M7.34090909,7.125 L10.8674242,7.125 C11.5205588,7.125 11.875,7.47944124 11.875,8.13257576 L11.875,11.6590909 C11.875,12.3122254 11.5205588,12.6666667 10.8674242,12.6666667 L7.34090909,12.6666667 C6.68777457,12.6666667 6.33333333,12.3122254 6.33333333,11.6590909 L6.33333333,8.13257576 C6.33333333,7.47944124 6.68777457,7.125 7.34090909,7.125 Z" id="Rectangle-19-Copy-3" fill="#FFFFFF" fill-rule="evenodd"></path>
            </g>
        </g>
    </g>
</svg>